Recursive-Mono Casual Black.ufo
<glyph name="quotedbl" format="2">
  <advance width="600.0"/>
  <unicode hex="0022"/>
  <outline>
    <contour>
      <point x="254.0" y="442.6666666666667" type="curve"/>
      <point x="270.0" y="614.3333333333333" type="line" smooth="yes"/>
      <point x="279.3333333333333" y="710.3333333333333"/>
      <point x="227.0" y="754.0"/>
      <point x="109.00000000000001" y="754.0" type="curve" smooth="yes"/>
      <point x="92.99999999999999" y="754.0"/>
      <point x="75.33333333333334" y="753.6666666666667"/>
      <point x="55.33333333333334" y="750.0" type="curve"/>
      <point x="65.0" y="724.3333333333334"/>
      <point x="72.66666666666667" y="686.0"/>
      <point x="76.66666666666667" y="636.0" type="curve" smooth="yes"/>
      <point x="86.66666666666669" y="508.0" type="line" smooth="yes"/>
      <point x="91.0" y="454.33333333333337"/>
      <point x="115.66666666666666" y="434.0"/>
      <point x="175.33333333333334" y="434.0" type="curve" smooth="yes"/>
      <point x="207.00000000000003" y="434.0"/>
      <point x="233.66666666666666" y="436.6666666666667"/>
    </contour>
    <contour>
      <point x="502.6666666666667" y="442.6666666666667" type="curve"/>
      <point x="522.3333333333333" y="619.0" type="line" smooth="yes"/>
      <point x="532.6666666666666" y="710.3333333333333"/>
      <point x="480.0" y="754.0"/>
      <point x="379.33333333333337" y="754.0" type="curve" smooth="yes"/>
      <point x="355.66666666666663" y="754.0"/>
      <point x="340.6666666666667" y="753.0"/>
      <point x="321.3333333333333" y="751.6666666666667" type="curve"/>
      <point x="339.0" y="508.0" type="line"/>
      <point x="342.66666666666663" y="454.33333333333337"/>
      <point x="368.0" y="434.0"/>
      <point x="428.3333333333333" y="434.0" type="curve" smooth="yes"/>
      <point x="459.3333333333333" y="434.0"/>
      <point x="482.3333333333333" y="436.6666666666667"/>
    </contour>
  </outline>
</glyph>
<glyph name="parenleft" format="2">
  <advance width="600.0"/>
  <unicode hex="0028"/>
  <outline>
    <contour>
      <point x="280.66666666666663" y="716.6666666666666" type="curve" smooth="yes"/>
      <point x="198.0" y="634.0"/>
      <point x="143.33333333333331" y="487.33333333333326"/>
      <point x="143.33333333333331" y="318.3333333333333" type="curve" smooth="yes"/>
      <point x="143.33333333333331" y="305.3333333333333" type="line" smooth="yes"/>
      <point x="143.33333333333331" y="136.33333333333331"/>
      <point x="198.3333333333334" y="-10.666666666666671"/>
      <point x="280.6666666666667" y="-93.00000000000001" type="curve" smooth="yes"/>
      <point x="323.66666666666663" y="-136.00000000000003"/>
      <point x="354.33333333333337" y="-146.33333333333334"/>
      <point x="401.00000000000006" y="-146.33333333333334" type="curve" smooth="yes"/>
      <point x="457.3333333333333" y="-146.33333333333334"/>
      <point x="492.00000000000006" y="-126.99999999999999"/>
      <point x="519.3333333333333" y="-100.0" type="curve"/>
      <point x="519.3333333333333" y="-93.99999999999999" type="line"/>
      <point x="411.33333333333337" y="9.66666666666666"/>
      <point x="353.33333333333326" y="149.66666666666666"/>
      <point x="353.33333333333326" y="305.3333333333333" type="curve" smooth="yes"/>
      <point x="353.33333333333326" y="318.3333333333333" type="line" smooth="yes"/>
      <point x="353.33333333333326" y="473.6666666666667"/>
      <point x="411.00000000000006" y="612.6666666666666"/>
      <point x="519.3333333333333" y="716.3333333333333" type="curve"/>
      <point x="519.3333333333333" y="722.3333333333333" type="line"/>
      <point x="492.00000000000006" y="749.3333333333334"/>
      <point x="457.33333333333337" y="770.0"/>
      <point x="401.0" y="770.0" type="curve" smooth="yes"/>
      <point x="354.33333333333337" y="770.0"/>
      <point x="323.66666666666663" y="759.6666666666666"/>
    </contour>
  </outline>
</glyph>
<glyph name="asterisk" format="2">
  <advance width="600.0"/>
  <unicode hex="002A"/>
  <outline>
    <contour>
      <point x="288.3333333333333" y="558.6666666666666" type="curve" smooth="yes"/>
      <point x="254.66666666666669" y="558.6666666666667"/>
      <point x="230.33333333333334" y="554.3333333333334"/>
      <point x="205.33333333333337" y="544.6666666666666" type="curve"/>
      <point x="221.33333333333331" y="517.0"/>
      <point x="228.66666666666669" y="500.3333333333333"/>
      <point x="239.33333333333334" y="460.6666666666667" type="curve" smooth="yes"/>
      <point x="246.33333333333337" y="433.6666666666667"/>
      <point x="252.3333333333333" y="401.99999999999994"/>
      <point x="258.66666666666663" y="376.6666666666667" type="curve"/>
      <point x="253.33333333333337" y="373.3333333333333" type="line"/>
      <point x="227.0" y="403.33333333333337"/>
      <point x="206.0" y="427.6666666666667"/>
      <point x="174.0" y="454.00000000000006" type="curve" smooth="yes"/>
      <point x="138.66666666666666" y="484.3333333333333"/>
      <point x="102.33333333333333" y="468.33333333333337"/>
      <point x="73.33333333333331" y="419.00000000000006" type="curve" smooth="yes"/>
      <point x="62.33333333333333" y="399.3333333333333"/>
      <point x="57.33333333333334" y="380.33333333333337"/>
      <point x="53.0" y="360.00000000000006" type="curve"/>
      <point x="114.33333333333336" y="336.3333333333333"/>
      <point x="156.66666666666669" y="324.33333333333337"/>
      <point x="217.0" y="307.33333333333337" type="curve"/>
      <point x="217.0" y="301.33333333333337" type="line"/>
      <point x="172.0" y="292.00000000000006"/>
      <point x="146.33333333333334" y="287.3333333333333"/>
      <point x="104.99999999999999" y="273.0" type="curve" smooth="yes"/>
      <point x="60.33333333333334" y="258.0"/>
      <point x="56.99999999999999" y="217.66666666666669"/>
      <point x="85.0" y="168.66666666666663" type="curve" smooth="yes"/>
      <point x="96.66666666666667" y="148.66666666666663"/>
      <point x="112.0" y="135.00000000000003"/>
      <point x="127.66666666666666" y="121.33333333333334" type="curve"/>
      <point x="175.66666666666666" y="161.0"/>
      <point x="206.33333333333331" y="189.66666666666666"/>
      <point x="250.0" y="234.66666666666666" type="curve"/>
      <point x="255.00000000000003" y="231.33333333333334" type="line"/>
      <point x="243.6666666666667" y="201.66666666666663"/>
      <point x="235.33333333333331" y="175.33333333333331"/>
      <point x="229.00000000000003" y="147.33333333333331" type="curve" smooth="yes"/>
      <point x="212.0" y="72.0"/>
      <point x="243.66666666666669" y="41.0"/>
      <point x="311.33333333333337" y="41.0" type="curve" smooth="yes"/>
      <point x="342.66666666666663" y="41.000000000000014"/>
      <point x="365.0" y="44.66666666666668"/>
      <point x="393.0" y="54.33333333333334" type="curve"/>
      <point x="377.3333333333333" y="82.00000000000001"/>
      <point x="368.99999999999994" y="102.0"/>
      <point x="359.99999999999994" y="145.0" type="curve" smooth="yes"/>
      <point x="354.3333333333333" y="173.33333333333331"/>
      <point x="349.6666666666667" y="200.66666666666669"/>
      <point x="341.3333333333333" y="231.66666666666669" type="curve"/>
      <point x="346.66666666666663" y="234.66666666666666" type="line"/>
      <point x="376.0" y="205.0"/>
      <point x="393.33333333333337" y="181.66666666666669"/>
      <point x="427.6666666666667" y="154.33333333333331" type="curve" smooth="yes"/>
      <point x="464.3333333333333" y="124.33333333333334"/>
      <point x="499.0" y="139.66666666666666"/>
      <point x="527.6666666666666" y="189.66666666666666" type="curve" smooth="yes"/>
      <point x="538.6666666666666" y="208.33333333333331"/>
      <point x="544.0" y="225.99999999999997"/>
      <point x="547.9999999999999" y="247.66666666666666" type="curve"/>
      <point x="482.3333333333333" y="273.33333333333337"/>
      <point x="446.0" y="284.0"/>
      <point x="385.33333333333337" y="300.33333333333337" type="curve"/>
      <point x="385.33333333333337" y="306.33333333333337" type="line"/>
      <point x="424.33333333333337" y="313.0"/>
      <point x="453.66666666666663" y="320.00000000000006"/>
      <point x="495.99999999999994" y="334.6666666666667" type="curve" smooth="yes"/>
      <point x="540.3333333333334" y="349.33333333333337"/>
      <point x="544.6666666666667" y="389.33333333333337"/>
      <point x="515.6666666666666" y="439.33333333333337" type="curve" smooth="yes"/>
      <point x="504.66666666666663" y="458.0"/>
      <point x="492.0" y="470.66666666666663"/>
      <point x="475.0" y="485.6666666666667" type="curve"/>
      <point x="418.0" y="440.0"/>
      <point x="386.33333333333337" y="408.3333333333333"/>
      <point x="352.33333333333337" y="373.3333333333333" type="curve"/>
      <point x="347.99999999999994" y="376.6666666666667" type="line"/>
      <point x="357.6666666666667" y="398.0"/>
      <point x="365.6666666666667" y="422.66666666666674"/>
      <point x="371.0" y="452.3333333333333" type="curve" smooth="yes"/>
      <point x="384.6666666666667" y="528.6666666666666"/>
      <point x="354.0" y="558.6666666666666"/>
    </contour>
  </outline>
</glyph>
<glyph name="plus" format="2">
  <advance width="600.0"/>
  <unicode hex="002B"/>
  <outline>
    <contour>
      <point x="188.33333333333331" y="547.3333333333333" type="curve"/>
      <point x="196.66666666666663" y="511.0"/>
      <point x="200.66666666666666" y="472.6666666666667"/>
      <point x="200.66666666666666" y="426.6666666666667" type="curve" smooth="yes"/>
      <point x="200.66666666666666" y="340.3333333333333"/>
      <point x="200.66666666666666" y="254.33333333333334"/>
      <point x="200.66666666666666" y="168.0" type="curve" smooth="yes"/>
      <point x="200.66666666666666" y="75.66666666666666"/>
      <point x="232.66666666666666" y="43.333333333333336"/>
      <point x="325.66666666666663" y="43.333333333333336" type="curve" smooth="yes"/>
      <point x="352.33333333333337" y="43.333333333333336"/>
      <point x="375.66666666666663" y="45.33333333333333"/>
      <point x="400.0" y="50.66666666666667" type="curve"/>
      <point x="400.0" y="182.0"/>
      <point x="400.0" y="314.33333333333337"/>
      <point x="400.0" y="445.6666666666667" type="curve" smooth="yes"/>
      <point x="400.0" y="523.6666666666666"/>
      <point x="362.33333333333337" y="556.6666666666667"/>
      <point x="273.33333333333337" y="556.6666666666667" type="curve" smooth="yes"/>
      <point x="245.66666666666666" y="556.6666666666667"/>
      <point x="211.99999999999997" y="553.0"/>
    </contour>
    <contour>
      <point x="53.0" y="395.66666666666663" type="line"/>
      <point x="47.0" y="366.0"/>
      <point x="43.333333333333336" y="335.0"/>
      <point x="43.333333333333336" y="310.66666666666674" type="curve" smooth="yes"/>
      <point x="43.333333333333336" y="228.66666666666666"/>
      <point x="71.33333333333334" y="204.33333333333337"/>
      <point x="163.66666666666666" y="204.33333333333337" type="curve"/>
      <point x="560.0" y="204.33333333333337" type="line"/>
      <point x="560.6666666666667" y="217.33333333333337"/>
      <point x="561.0" y="228.66666666666666"/>
      <point x="561.0" y="241.33333333333331" type="curve" smooth="yes"/>
      <point x="561.0" y="363.66666666666663"/>
      <point x="534.3333333333334" y="395.66666666666663"/>
      <point x="433.3333333333333" y="395.66666666666663" type="curve"/>
    </contour>
  </outline>
</glyph>
<glyph name="comma" format="2">
  <advance width="600.0"/>
  <unicode hex="002C"/>
  <outline>
    <contour>
      <point x="262.9999999999999" y="-203.99999999999997" type="curve" smooth="yes"/>
      <point x="297.0" y="-203.99999999999997"/>
      <point x="313.6666666666666" y="-197.66666666666669"/>
      <point x="333.99999999999994" y="-176.33333333333334" type="curve" smooth="yes"/>
      <point x="387.9999999999999" y="-116.33333333333331"/>
      <point x="442.0" y="12.333333333333336"/>
      <point x="441.99999999999994" y="102.33333333333336" type="curve" smooth="yes"/>
      <point x="442.0" y="177.00000000000003"/>
      <point x="406.3333333333333" y="210.6666666666667"/>
      <point x="288.66666666666663" y="210.6666666666667" type="curve" smooth="yes"/>
      <point x="259.66666666666663" y="210.6666666666667"/>
      <point x="236.00000000000003" y="207.3333333333334"/>
      <point x="199.00000000000003" y="200.00000000000006" type="curve"/>
      <point x="199.0" y="65.66666666666664"/>
      <point x="179.0" y="-62.66666666666667"/>
      <point x="130.66666666666669" y="-154.66666666666663" type="curve"/>
      <point x="164.33333333333334" y="-190.33333333333334"/>
      <point x="209.0" y="-203.99999999999997"/>
    </contour>
  </outline>
</glyph>
<glyph name="slash" format="2">
  <advance width="600.0"/>
  <unicode hex="002F"/>
  <outline>
    <contour>
      <point x="590.9999999999999" y="751.6666666666667" type="curve"/>
      <point x="554.6666666666665" y="765.0"/>
      <point x="512.9999999999999" y="773.3333333333334"/>
      <point x="472.00000000000006" y="773.3333333333334" type="curve" smooth="yes"/>
      <point x="400.33333333333337" y="773.3333333333334"/>
      <point x="362.66666666666663" y="748.6666666666666"/>
      <point x="349.00000000000006" y="694.0" type="curve" smooth="yes"/>
      <point x="283.3333333333333" y="437.6666666666667"/>
      <point x="192.33333333333334" y="203.33333333333331"/>
      <point x="63.66666666666666" y="-15.000000000000007" type="curve" smooth="yes"/>
      <point x="41.99999999999999" y="-51.333333333333336"/>
      <point x="22.66666666666668" y="-78.66666666666667"/>
      <point x="1.333333333333341" y="-104.33333333333333" type="curve"/>
      <point x="36.0" y="-125.66666666666669"/>
      <point x="76.0" y="-133.0"/>
      <point x="119.0" y="-133.0" type="curve" smooth="yes"/>
      <point x="189.33333333333331" y="-133.0"/>
      <point x="236.66666666666666" y="-105.66666666666666"/>
      <point x="285.99999999999994" y="-24.000000000000018" type="curve"/>
      <point x="424.3333333333333" y="199.66666666666666"/>
      <point x="520.3333333333334" y="456.33333333333337"/>
    </contour>
  </outline>
</glyph>
<glyph name="four" format="2">
  <advance width="600.0"/>
  <unicode hex="0034"/>
  <outline>
    <contour>
      <point x="376.66666666666674" y="716.6666666666666" type="curve" smooth="yes"/>
      <point x="318.33333333333337" y="716.6666666666666"/>
      <point x="278.99999999999994" y="701.0000000000001"/>
      <point x="227.33333333333334" y="650.0000000000001" type="curve" smooth="yes"/>
      <point x="130.0" y="553.9999999999999"/>
      <point x="32.66666666666667" y="371.3333333333333"/>
      <point x="32.66666666666667" y="290.00000000000006" type="curve" smooth="yes"/>
      <point x="32.66666666666667" y="270.33333333333337" type="line"/>
      <point x="32.66666666666667" y="196.33333333333334"/>
      <point x="67.66666666666667" y="130.0"/>
      <point x="131.66666666666666" y="130.0" type="curve" smooth="yes"/>
      <point x="570.3333333333333" y="130.0" type="line"/>
      <point x="576.3333333333333" y="158.33333333333334"/>
      <point x="583.6666666666666" y="195.66666666666666"/>
      <point x="583.6666666666666" y="237.0" type="curve" smooth="yes"/>
      <point x="583.6666666666666" y="287.0"/>
      <point x="568.6666666666666" y="315.33333333333337"/>
      <point x="522.9999999999999" y="315.33333333333337" type="curve"/>
      <point x="368.66666666666663" y="315.33333333333337" type="line" smooth="yes"/>
      <point x="274.0" y="315.33333333333337"/>
      <point x="223.00000000000003" y="308.33333333333326"/>
      <point x="165.33333333333331" y="285.0" type="curve"/>
      <point x="190.99999999999997" y="268.0" type="line"/>
      <point x="190.99999999999997" y="333.33333333333326" type="line"/>
      <point x="176.66666666666666" y="275.0" type="line"/>
      <point x="265.6666666666667" y="439.6666666666667"/>
      <point x="413.3333333333333" y="562.3333333333334"/>
      <point x="564.6666666666665" y="635.0" type="curve"/>
      <point x="564.6666666666665" y="639.6666666666667" type="line"/>
      <point x="524.0000000000001" y="689.6666666666666"/>
      <point x="455.0" y="716.6666666666666"/>
    </contour>
    <contour>
      <point x="379.99999999999994" y="434.6666666666667" type="curve"/>
      <point x="330.66666666666674" y="368.0"/>
      <point x="300.0" y="280.0"/>
      <point x="300.00000000000006" y="207.33333333333334" type="curve" smooth="yes"/>
      <point x="300.00000000000006" y="162.33333333333337"/>
      <point x="300.00000000000006" y="116.33333333333333"/>
      <point x="300.00000000000006" y="71.33333333333333" type="curve" smooth="yes"/>
      <point x="300.00000000000006" y="18.666666666666664"/>
      <point x="339.33333333333337" y="-7.333333333333334"/>
      <point x="431.6666666666667" y="-7.333333333333334" type="curve" smooth="yes"/>
      <point x="471.33333333333337" y="-7.333333333333334"/>
      <point x="499.99999999999994" y="-4.333333333333334"/>
      <point x="526.6666666666666" y="3.9999999999999987" type="curve"/>
      <point x="517.9999999999999" y="38.666666666666664"/>
      <point x="514.6666666666666" y="69.66666666666666"/>
      <point x="514.6666666666666" y="115.99999999999999" type="curve" smooth="yes"/>
      <point x="514.6666666666666" y="367.0" type="line"/>
      <point x="514.6666666666666" y="412.66666666666674"/>
      <point x="472.33333333333326" y="434.6666666666667"/>
      <point x="385.99999999999994" y="434.6666666666667" type="curve"/>
      <point x="384.0" y="434.6666666666667"/>
      <point x="382.0" y="434.6666666666667"/>
    </contour>
  </outline>
</glyph>
<glyph name="C" format="2">
  <advance width="600.0"/>
  <unicode hex="0043"/>
  <anchor x="299.66666666666674" y="711.0" name="top"/>
  <anchor x="336.6666666666667" y="0.0" name="bottom"/>
  <outline>
    <contour>
      <point x="333.33333333333337" y="-20.0" type="curve" smooth="yes"/>
      <point x="427.33333333333337" y="-20.0"/>
      <point x="489.6666666666667" y="1.666666666666666"/>
      <point x="524.6666666666666" y="36.66666666666667" type="curve"/>
      <point x="549.6666666666667" y="61.666666666666664"/>
      <point x="567.3333333333333" y="110.66666666666667"/>
      <point x="567.3333333333333" y="180.66666666666666" type="curve"/>
      <point x="567.3333333333333" y="208.33333333333334"/>
      <point x="564.6666666666666" y="232.66666666666669"/>
      <point x="560.3333333333334" y="250.0" type="curve"/>
      <point x="555.6666666666666" y="250.0" type="line"/>
      <point x="503.3333333333333" y="198.66666666666663"/>
      <point x="429.33333333333326" y="170.0"/>
      <point x="349.6666666666667" y="170.0" type="curve" smooth="yes"/>
      <point x="298.6666666666667" y="170.0"/>
      <point x="265.99999999999994" y="179.0"/>
      <point x="239.0" y="203.99999999999997" type="curve" smooth="yes"/>
      <point x="236.66666666666669" y="225.33333333333331"/>
      <point x="235.33333333333334" y="252.66666666666663"/>
      <point x="235.33333333333334" y="277.6666666666667" type="curve" smooth="yes"/>
      <point x="235.33333333333334" y="289.0" type="line" smooth="yes"/>
      <point x="235.33333333333334" y="455.33333333333337"/>
      <point x="288.00000000000006" y="536.6666666666666"/>
      <point x="346.3333333333333" y="536.6666666666666" type="curve"/>
      <point x="364.66666666666674" y="536.6666666666666"/>
      <point x="376.66666666666663" y="534.3333333333334"/>
      <point x="398.0" y="525.0" type="curve"/>
      <point x="393.0" y="583.6666666666665" type="line"/>
      <point x="371.6666666666667" y="533.3333333333335"/>
      <point x="358.33333333333337" y="476.66666666666663"/>
      <point x="358.33333333333337" y="430.0" type="curve"/>
      <point x="358.33333333333337" y="374.6666666666667"/>
      <point x="397.3333333333333" y="351.33333333333337"/>
      <point x="475.0" y="351.33333333333337" type="curve" smooth="yes"/>
      <point x="509.66666666666663" y="351.33333333333337"/>
      <point x="539.3333333333333" y="357.33333333333337"/>
      <point x="561.6666666666667" y="364.0" type="curve"/>
      <point x="561.6666666666667" y="392.66666666666674"/>
      <point x="561.6666666666667" y="423.66666666666674"/>
      <point x="561.6666666666667" y="454.3333333333334" type="curve"/>
      <point x="561.6666666666667" y="542.0"/>
      <point x="534.9999999999999" y="614.0"/>
      <point x="483.3333333333334" y="665.6666666666666" type="curve" smooth="yes"/>
      <point x="450.0" y="699.0"/>
      <point x="400.6666666666667" y="720.0"/>
      <point x="342.3333333333333" y="720.0" type="curve"/>
      <point x="176.0" y="720.0"/>
      <point x="32.0" y="585.6666666666667"/>
      <point x="32.0" y="300.6666666666667" type="curve" smooth="yes"/>
      <point x="32.0" y="286.66666666666663" type="line" smooth="yes"/>
      <point x="32.0" y="112.99999999999999"/>
      <point x="136.66666666666666" y="-20.0"/>
    </contour>
  </outline>
</glyph>
<glyph name="I" format="2">
  <advance width="600.0"/>
  <unicode hex="0049"/>
  <anchor x="294.0" y="711.3333333333334" name="top"/>
  <anchor x="300.0" y="-1.0" name="bottom"/>
  <anchor x="550.3333333333334" y="0.0" name="ogonek"/>
  <anchor x="299.3333333333333" y="770.0" name="hook"/>
  <outline>
    <contour>
      <point x="402.0" y="145.33333333333331" type="line"/>
      <point x="402.0" y="243.0"/>
      <point x="402.0" y="297.00000000000006"/>
      <point x="402.0" y="412.00000000000006" type="curve"/>
      <point x="402.0" y="453.0000000000001"/>
      <point x="395.3333333333333" y="481.6666666666667"/>
      <point x="369.3333333333333" y="504.0" type="curve" smooth="yes"/>
      <point x="390.6666666666667" y="554.6666666666667" type="line"/>
      <point x="198.00000000000003" y="554.6666666666667" type="line"/>
      <point x="198.00000000000003" y="457.0"/>
      <point x="198.00000000000003" y="403.00000000000006"/>
      <point x="198.00000000000003" y="288.0" type="curve" smooth="yes"/>
      <point x="198.00000000000003" y="247.0"/>
      <point x="204.66666666666669" y="218.33333333333331"/>
      <point x="230.66666666666669" y="196.0" type="curve"/>
      <point x="209.33333333333331" y="145.33333333333331" type="line"/>
    </contour>
    <contour>
      <point x="549.3333333333334" y="0.0" type="line"/>
      <point x="554.6666666666666" y="17.33333333333333"/>
      <point x="558.3333333333334" y="42.33333333333333"/>
      <point x="558.3333333333334" y="67.0" type="curve" smooth="yes"/>
      <point x="558.3333333333334" y="144.33333333333334"/>
      <point x="526.0000000000001" y="190.0"/>
      <point x="439.33333333333337" y="190.0" type="curve" smooth="yes"/>
      <point x="48.66666666666667" y="190.0" type="line"/>
      <point x="44.66666666666667" y="169.66666666666663"/>
      <point x="41.66666666666667" y="143.0"/>
      <point x="41.66666666666667" y="117.33333333333331" type="curve"/>
      <point x="41.66666666666667" y="57.66666666666666"/>
      <point x="48.0" y="0.0"/>
      <point x="134.33333333333331" y="0.0" type="curve" smooth="yes"/>
    </contour>
    <contour>
      <point x="48.0" y="700.0" type="line"/>
      <point x="44.33333333333334" y="681.6666666666666"/>
      <point x="41.66666666666667" y="657.0000000000001"/>
      <point x="41.66666666666667" y="634.0" type="curve"/>
      <point x="41.66666666666667" y="550.3333333333334"/>
      <point x="80.66666666666666" y="510.0"/>
      <point x="165.0" y="510.0" type="curve" smooth="yes"/>
      <point x="549.0" y="510.0" type="line"/>
      <point x="554.6666666666667" y="529.3333333333334"/>
      <point x="558.3333333333334" y="556.0"/>
      <point x="558.3333333333334" y="581.3333333333334" type="curve" smooth="yes"/>
      <point x="558.3333333333334" y="659.6666666666667"/>
      <point x="535.6666666666667" y="700.0"/>
      <point x="469.66666666666663" y="700.0" type="curve" smooth="yes"/>
    </contour>
  </outline>
</glyph>
<glyph name="J" format="2">
  <advance width="600.0"/>
  <unicode hex="004A"/>
  <anchor x="296.6666666666667" y="711.0" name="top"/>
  <outline>
    <contour>
      <point x="282.6666666666666" y="173.33333333333331" type="curve" smooth="yes"/>
      <point x="188.66666666666666" y="173.33333333333331"/>
      <point x="142.66666666666669" y="185.00000000000003"/>
      <point x="63.66666666666668" y="228.33333333333331" type="curve"/>
      <point x="57.66666666666667" y="228.33333333333331" type="line"/>
      <point x="49.0" y="201.66666666666669"/>
      <point x="44.66666666666667" y="173.33333333333331"/>
      <point x="44.66666666666667" y="138.0" type="curve"/>
      <point x="44.66666666666667" y="83.33333333333331"/>
      <point x="55.00000000000001" y="47.666666666666664"/>
      <point x="80.33333333333334" y="22.999999999999993" type="curve"/>
      <point x="111.00000000000003" y="-7.666666666666667"/>
      <point x="168.0" y="-20.0"/>
      <point x="253.6666666666667" y="-20.0" type="curve" smooth="yes"/>
      <point x="432.0" y="-20.0"/>
      <point x="544.3333333333333" y="90.0"/>
      <point x="544.3333333333334" y="223.3333333333333" type="curve"/>
      <point x="544.3333333333333" y="361.00000000000006"/>
      <point x="544.3333333333333" y="498.33333333333337"/>
      <point x="544.3333333333334" y="596.6666666666666" type="curve"/>
      <point x="544.3333333333334" y="685.0"/>
      <point x="506.41333333333324" y="710.0"/>
      <point x="363.33333333333337" y="710.0" type="curve" smooth="yes"/>
      <point x="284.22222222223337" y="710.0"/>
      <point x="152.4589858479667" y="705.4910556924666"/>
      <point x="74.0" y="700.0" type="curve"/>
      <point x="70.04209573960001" y="679.9321288230334"/>
      <point x="67.33333333333334" y="653.6666666666667"/>
      <point x="67.33333333333334" y="627.0" type="curve" smooth="yes"/>
      <point x="67.33333333333334" y="541.6666666666666"/>
      <point x="95.66666666666667" y="506.6666666666667"/>
      <point x="163.00000000000003" y="506.6666666666667" type="curve" smooth="yes"/>
      <point x="221.6666666666667" y="506.6666666666667"/>
      <point x="269.66666666666663" y="517.6666666666666"/>
      <point x="363.6666666666667" y="553.3333333333333" type="curve"/>
      <point x="315.0" y="551.0000000000001" type="line"/>
      <point x="356.33333333333326" y="524.3333333333334" type="line"/>
      <point x="336.0" y="567.6666666666666" type="line"/>
      <point x="336.0" y="449.0"/>
      <point x="336.0" y="341.66666666666663"/>
      <point x="336.0" y="236.66666666666663" type="curve"/>
      <point x="336.0" y="215.33333333333334"/>
      <point x="335.6666666666667" y="196.3333333333333"/>
      <point x="333.3333333333333" y="179.99999999999997" type="curve" smooth="yes"/>
      <point x="317.6666666666667" y="175.66666666666663"/>
      <point x="301.66666666666663" y="173.33333333333331"/>
    </contour>
  </outline>
</glyph>
<glyph name="K" format="2">
  <advance width="600.0"/>
  <unicode hex="004B"/>
  <anchor x="308.66666666666663" y="-1.0" name="bottom"/>
  <outline>
    <contour>
      <point x="404.99999999999994" y="368.0" type="curve"/>
      <point x="269.66666666666663" y="215.99999999999997" type="line"/>
      <point x="303.0" y="215.99999999999997" type="line"/>
      <point x="321.3333333333333" y="152.66666666666663"/>
      <point x="331.6666666666667" y="122.33333333333333"/>
      <point x="352.66666666666663" y="77.33333333333333" type="curve" smooth="yes"/>
      <point x="382.33333333333337" y="12.0"/>
      <point x="431.0" y="-20.0"/>
      <point x="483.66666666666663" y="-20.0" type="curve" smooth="yes"/>
      <point x="513.0" y="-20.0"/>
      <point x="533.6666666666666" y="-12.0"/>
      <point x="549.0" y="3.333333333333334" type="curve" smooth="yes"/>
      <point x="564.3333333333334" y="18.666666666666664"/>
      <point x="579.3333333333334" y="50.666666666666664"/>
      <point x="579.3333333333334" y="96.66666666666666" type="curve" smooth="yes"/>
      <point x="579.3333333333334" y="141.66666666666666"/>
      <point x="577.3333333333334" y="163.33333333333334"/>
      <point x="571.6666666666666" y="192.99999999999997" type="curve"/>
      <point x="565.6666666666667" y="192.99999999999997" type="line"/>
      <point x="557.6666666666669" y="186.0"/>
      <point x="547.3333333333334" y="183.0"/>
      <point x="534.0" y="183.0" type="curve" smooth="yes"/>
      <point x="512.3333333333333" y="183.0"/>
      <point x="499.0" y="191.33333333333334"/>
      <point x="486.3333333333333" y="215.33333333333334" type="curve" smooth="yes"/>
      <point x="459.3333333333333" y="266.0"/>
      <point x="431.99999999999994" y="317.3333333333333"/>
    </contour>
    <contour>
      <point x="393.6666666666667" y="710.0" type="curve"/>
      <point x="371.3333333333333" y="710.0" type="line"/>
      <point x="364.6666666666666" y="623.3333333333334"/>
      <point x="350.6666666666667" y="556.6666666666666"/>
      <point x="331.3333333333333" y="504.33333333333337" type="curve" smooth="yes"/>
      <point x="311.66666666666674" y="449.33333333333337"/>
      <point x="287.99999999999994" y="407.99999999999994"/>
      <point x="256.3333333333333" y="370.0" type="curve"/>
      <point x="197.0" y="370.0" type="line"/>
      <point x="196.33333333333334" y="176.33333333333334" type="line"/>
      <point x="322.6056291146666" y="204.3224012344667"/>
      <point x="477.48098858" y="334.25012183700005"/>
      <point x="537.3333333333334" y="475.3333333333334" type="curve" smooth="yes"/>
      <point x="561.6666666666667" y="531.6666666666667"/>
      <point x="572.3333333333334" y="580.0"/>
      <point x="572.3333333333334" y="628.0" type="curve" smooth="yes"/>
      <point x="572.3333333333334" y="685.0"/>
      <point x="522.6666666666667" y="710.0"/>
    </contour>
    <contour>
      <point x="36.000000000000014" y="700.0" type="curve"/>
      <point x="44.33333333333334" y="663.6666666666667"/>
      <point x="48.33333333333334" y="621.3333333333335"/>
      <point x="48.33333333333334" y="570.0000000000001" type="curve" smooth="yes"/>
      <point x="48.33333333333334" y="410.3333333333333"/>
      <point x="48.33333333333334" y="250.33333333333337"/>
      <point x="48.33333333333334" y="117.33333333333334" type="curve" smooth="yes"/>
      <point x="48.33333333333334" y="23.333333333333332"/>
      <point x="82.0" y="-7.333333333333334"/>
      <point x="173.33333333333334" y="-7.333333333333334" type="curve" smooth="yes"/>
      <point x="203.33333333333337" y="-7.333333333333334"/>
      <point x="225.66666666666666" y="-5.0"/>
      <point x="250.33333333333334" y="-8.881784197001252e-16" type="curve"/>
      <point x="250.33333333333334" y="199.33333333333334"/>
      <point x="250.33333333333334" y="399.0"/>
      <point x="250.33333333333334" y="598.3333333333333" type="curve" smooth="yes"/>
      <point x="250.33333333333334" y="674.6666666666666"/>
      <point x="214.33333333333334" y="709.3333333333334"/>
      <point x="122.99999999999999" y="709.3333333333334" type="curve"/>
      <point x="92.0" y="709.3333333333334"/>
      <point x="64.33333333333333" y="706.3333333333333"/>
    </contour>
  </outline>
</glyph>
<glyph name="L" format="2">
  <advance width="600.0"/>
  <unicode hex="004C"/>
  <anchor x="142.66666666666663" y="711.0" name="top"/>
  <anchor x="297.66666666666663" y="-1.0" name="bottom"/>
  <anchor x="452.66666666666663" y="425.00000000000006" name="dot"/>
  <anchor x="446.66666666666663" y="601.6666666666666" name="caronslovak"/>
  <anchor x="150.33333333333334" y="370.66666666666674" name="slash"/>
  <outline>
    <contour>
      <point x="157.66666666666669" y="0.0" type="curve" smooth="yes"/>
      <point x="536.3333333333334" y="0.0" type="line"/>
      <point x="549.4166666666667" y="85.79166666666666"/>
      <point x="529.5720164609334" y="196.66666666666666"/>
      <point x="464.3333333333333" y="196.66666666666666" type="curve" smooth="yes"/>
      <point x="248.33333333333337" y="196.66666666666666" type="line"/>
      <point x="248.33333333333337" y="333.3333333333333"/>
      <point x="248.33333333333337" y="472.66666666666663"/>
      <point x="248.33333333333337" y="602.6666666666666" type="curve" smooth="yes"/>
      <point x="248.33333333333337" y="691.6666666666666"/>
      <point x="223.66666666666669" y="710.0"/>
      <point x="123.33333333333333" y="710.0" type="curve"/>
      <point x="89.99999999999999" y="710.0"/>
      <point x="60.33333333333334" y="706.6666666666666"/>
      <point x="32.66666666666667" y="700.0" type="curve"/>
      <point x="41.00000000000001" y="662.6666666666666"/>
      <point x="45.00000000000001" y="620.6666666666666"/>
      <point x="45.00000000000001" y="569.9999999999999" type="curve"/>
      <point x="45.00000000000001" y="436.6666666666667"/>
      <point x="45.00000000000001" y="303.0"/>
      <point x="45.00000000000001" y="156.33333333333331" type="curve" smooth="yes"/>
      <point x="45.00000000000001" y="65.33333333333333"/>
      <point x="84.33333333333334" y="0.0"/>
    </contour>
    <contour>
      <point x="391.0" y="274.3333333333333" type="curve"/>
      <point x="391.0" y="164.42577468353332"/>
      <point x="382.6666666666667" y="94.66233766233333"/>
      <point x="382.66666666666663" y="33.333333333333336" type="curve"/>
      <point x="382.6666666666667" y="-11.421768707466669"/>
      <point x="430.4086956521667" y="-36.333333333333336"/>
      <point x="531.6666666666666" y="-36.333333333333336" type="curve"/>
      <point x="559.2540324754333" y="36.21262618579999"/>
      <point x="574.3333333333334" y="93.67320261436667"/>
      <point x="574.3333333333334" y="206.99999999999997" type="curve"/>
      <point x="574.3333333333334" y="268.3333333333333"/>
      <point x="552.1851851852" y="284.3333333333333"/>
      <point x="467.6666666666666" y="284.3333333333333" type="curve" smooth="yes"/>
      <point x="437.3333333333333" y="284.3333333333333"/>
      <point x="412.0" y="280.99999999999994"/>
    </contour>
  </outline>
</glyph>
<glyph name="O" format="2">
  <advance width="600.0"/>
  <unicode hex="004F"/>
  <anchor x="300.0" y="712.0" name="top"/>
  <anchor x="300.0" y="-1.0" name="bottom"/>
  <anchor x="423.66666666666663" y="693.3333333333334" name="horn"/>
  <anchor x="301.0" y="770.0" name="hook"/>
  <anchor x="268.66666666666663" y="713.3333333333334" name="tildeviet"/>
  <anchor x="498.6666666666666" y="74.66666666666667" name="ogonek"/>
  <outline>
    <contour>
      <point x="297.6666666666667" y="720.0" type="curve" smooth="yes"/>
      <point x="129.33333333333334" y="720.0"/>
      <point x="30.00000000000001" y="583.3333333333331"/>
      <point x="30.00000000000001" y="354.0" type="curve" smooth="yes"/>
      <point x="30.00000000000001" y="335.3333333333333" type="line" smooth="yes"/>
      <point x="30.00000000000001" y="100.33333333333334"/>
      <point x="116.33333333333334" y="-20.0"/>
      <point x="304.66666666666663" y="-20.0" type="curve" smooth="yes"/>
      <point x="470.66666666666663" y="-20.0"/>
      <point x="570.0" y="117.33333333333331"/>
      <point x="570.0" y="346.0" type="curve" smooth="yes"/>
      <point x="570.0" y="364.66666666666674" type="line" smooth="yes"/>
      <point x="570.0" y="600.3333333333333"/>
      <point x="483.6666666666667" y="720.0"/>
    </contour>
    <contour>
      <point x="228.0" y="317.0" type="curve" smooth="yes"/>
      <point x="228.0" y="325.99999999999994" type="line" smooth="yes"/>
      <point x="228.0" y="468.0"/>
      <point x="257.33333333333337" y="530.3333333333334"/>
      <point x="319.33333333333337" y="530.3333333333334" type="curve" smooth="yes"/>
      <point x="333.99999999999994" y="530.3333333333334"/>
      <point x="343.6666666666667" y="529.6666666666667"/>
      <point x="355.0" y="526.3333333333334" type="curve"/>
      <point x="365.6666666666667" y="498.0"/>
      <point x="373.3333333333333" y="452.33333333333337"/>
      <point x="373.3333333333333" y="382.3333333333333" type="curve" smooth="yes"/>
      <point x="373.3333333333333" y="369.33333333333337" type="line" smooth="yes"/>
      <point x="373.3333333333333" y="236.0"/>
      <point x="340.66666666666663" y="169.66666666666663"/>
      <point x="283.3333333333333" y="169.66666666666663" type="curve" smooth="yes"/>
      <point x="269.33333333333326" y="169.66666666666663"/>
      <point x="259.33333333333337" y="169.99999999999997"/>
      <point x="245.66666666666669" y="172.66666666666666" type="curve" smooth="yes"/>
      <point x="235.00000000000003" y="195.99999999999997"/>
      <point x="228.0" y="237.33333333333331"/>
    </contour>
  </outline>
</glyph>
<glyph name="R" format="2">
  <advance width="600.0"/>
  <unicode hex="0052"/>
  <anchor x="294.33333333333337" y="711.0" name="top"/>
  <anchor x="294.33333333333337" y="-1.0" name="bottom"/>
  <outline>
    <contour>
      <point x="400.3333333333333" y="333.3333333333333" type="curve"/>
      <point x="274.0" y="246.66666666666666" type="line"/>
      <point x="294.33333333333337" y="185.33333333333331"/>
      <point x="316.6666666666667" y="130.33333333333334"/>
      <point x="350.0" y="70.66666666666666" type="curve" smooth="yes"/>
      <point x="387.33333333333337" y="4.333333333333336"/>
      <point x="425.3333333333333" y="-20.0"/>
      <point x="483.00000000000006" y="-20.0" type="curve" smooth="yes"/>
      <point x="509.6666666666666" y="-20.0"/>
      <point x="529.6666666666667" y="-13.0"/>
      <point x="545.3333333333334" y="2.666666666666666" type="curve" smooth="yes"/>
      <point x="563.6666666666667" y="21.0"/>
      <point x="572.6666666666667" y="52.66666666666666"/>
      <point x="572.6666666666667" y="105.0" type="curve" smooth="yes"/>
      <point x="572.6666666666667" y="142.33333333333331"/>
      <point x="570.6666666666667" y="164.0"/>
      <point x="565.0000000000001" y="192.99999999999997" type="curve"/>
      <point x="558.9999999999999" y="192.99999999999997" type="line"/>
      <point x="549.6666666666667" y="185.99999999999997"/>
      <point x="537.0" y="183.33333333333331"/>
      <point x="522.0" y="183.33333333333331" type="curve" smooth="yes"/>
      <point x="498.3333333333333" y="183.33333333333331"/>
      <point x="480.33333333333337" y="191.3333333333333"/>
      <point x="463.00000000000006" y="218.0" type="curve"/>
      <point x="439.3333333333333" y="251.99999999999997"/>
      <point x="418.99999999999994" y="290.6666666666667"/>
    </contour>
    <contour>
      <point x="18.333333333333332" y="693.3333333333334" type="curve"/>
      <point x="12.333333333333334" y="670.6666666666666"/>
      <point x="8.333333333333334" y="641.6666666666667"/>
      <point x="8.333333333333334" y="600.9999999999999" type="curve"/>
      <point x="8.333333333333334" y="528.3333333333334"/>
      <point x="20.000000000000004" y="503.3333333333333"/>
      <point x="49.666666666666664" y="503.3333333333333" type="curve" smooth="yes"/>
      <point x="75.66666666666667" y="503.3333333333333"/>
      <point x="160.40425531913334" y="523.3333333333333"/>
      <point x="273.99999999999994" y="523.3333333333333" type="curve"/>
      <point x="307.21052631580005" y="523.3333333333333"/>
      <point x="331.3525600374" y="520.5637826610666"/>
      <point x="353.0" y="515.3333333333333" type="curve" smooth="yes"/>
      <point x="358.0" y="498.00000000000006"/>
      <point x="360.6666666666667" y="478.66666666666674"/>
      <point x="360.6666666666667" y="456.3333333333333" type="curve" smooth="yes"/>
      <point x="360.6666666666667" y="445.33333333333337" type="line" smooth="yes"/>
      <point x="360.6666666666667" y="367.66666666666663"/>
      <point x="333.99999999999994" y="336.00000000000006"/>
      <point x="288.0" y="336.00000000000006" type="curve"/>
      <point x="253.0" y="336.00000000000006"/>
      <point x="217.66666666666669" y="346.00000000000006"/>
      <point x="186.66666666666666" y="361.6666666666667" type="curve"/>
      <point x="203.33333333333334" y="214.99999999999997" type="line" smooth="yes"/>
      <point x="259.0" y="215.0" type="line"/>
      <point x="272.33333333333337" y="203.33333333333331"/>
      <point x="292.66666666666663" y="196.66666666666666"/>
      <point x="308.99999999999994" y="196.66666666666666" type="curve" smooth="yes"/>
      <point x="434.66666666666663" y="196.66666666666666"/>
      <point x="566.6666666666666" y="287.40880503143336"/>
      <point x="566.6666666666666" y="486.0" type="curve" smooth="yes"/>
      <point x="566.6666666666666" y="495.6666666666667" type="line" smooth="yes"/>
      <point x="566.6666666666666" y="597.8359788359667"/>
      <point x="477.66666666666663" y="713.3333333333334"/>
      <point x="307.3333333333333" y="713.3333333333334" type="curve"/>
      <point x="206.66666666666666" y="713.3333333333334"/>
      <point x="103.66666666666667" y="707.6666666666666"/>
    </contour>
    <contour>
      <point x="264.00000000000006" y="6.666666666666664" type="curve"/>
      <point x="255.66666666666669" y="42.33333333333333"/>
      <point x="252.33333333333334" y="83.66666666666666"/>
      <point x="252.33333333333334" y="132.0" type="curve"/>
      <point x="252.33333333333334" y="232.66666666666663"/>
      <point x="252.33333333333334" y="326.6666666666667"/>
      <point x="252.33333333333334" y="426.66666666666674" type="curve"/>
      <point x="252.33333333333334" y="467.1628787878667"/>
      <point x="246.69335863726667" y="493.65084920260006"/>
      <point x="219.66666666666669" y="516.3333333333334" type="curve" smooth="yes"/>
      <point x="240.99999999999997" y="572.3333333333333" type="line"/>
      <point x="55.0" y="565.6666666666666" type="line"/>
      <point x="55.0" y="412.0"/>
      <point x="55.0" y="258.6666666666667"/>
      <point x="55.0" y="105.0" type="curve" smooth="yes"/>
      <point x="55.0" y="25.333333333333332"/>
      <point x="95.0" y="-8.666666666666666"/>
      <point x="187.66666666666669" y="-8.666666666666666" type="curve" smooth="yes"/>
      <point x="217.66666666666669" y="-8.666666666666666"/>
      <point x="241.33333333333331" y="-4.666666666666666"/>
    </contour>
  </outline>
</glyph>
<glyph name="T" format="2">
  <advance width="600.0"/>
  <unicode hex="0054"/>
  <anchor x="298.6666666666667" y="711.0" name="top"/>
  <anchor x="310.0" y="3.666666666666668" name="bottom"/>
  <outline>
    <contour>
      <point x="30.666666666666664" y="700.0" type="line"/>
      <point x="24.333333333333336" y="682.3333333333334"/>
      <point x="20.666666666666668" y="658.9999999999999"/>
      <point x="20.666666666666668" y="633.6666666666667" type="curve" smooth="yes"/>
      <point x="20.666666666666668" y="540.6666666666666"/>
      <point x="53.0" y="503.3333333333333"/>
      <point x="147.0" y="503.3333333333333" type="curve" smooth="yes"/>
      <point x="566.0" y="503.3333333333333" type="line"/>
      <point x="572.6666666666666" y="522.9999999999999"/>
      <point x="577.3333333333333" y="549.0"/>
      <point x="577.3333333333333" y="574.6666666666667" type="curve" smooth="yes"/>
      <point x="577.3333333333333" y="663.6666666666667"/>
      <point x="554.6666666666667" y="700.0"/>
      <point x="483.33333333333337" y="700.0" type="curve"/>
    </contour>
    <contour>
      <point x="413.66666666666663" y="0.0" type="curve"/>
      <point x="405.3333333333333" y="35.666666666666664"/>
      <point x="402.0" y="77.0"/>
      <point x="402.0" y="125.33333333333333" type="curve"/>
      <point x="402.0" y="219.7777777778"/>
      <point x="402.0" y="313.6666666666667"/>
      <point x="402.0" y="408.33333333333326" type="curve"/>
      <point x="402.0" y="448.6666666666667"/>
      <point x="396.33333333333337" y="475.33333333333337"/>
      <point x="369.3333333333333" y="498.0" type="curve" smooth="yes"/>
      <point x="390.3333333333333" y="547.3333333333334" type="line"/>
      <point x="198.00000000000003" y="547.3333333333334" type="line"/>
      <point x="198.00000000000003" y="400.33333333333337"/>
      <point x="198.00000000000003" y="252.6455250176"/>
      <point x="198.00000000000003" y="110.33333333333331" type="curve" smooth="yes"/>
      <point x="198.00000000000003" y="24.0"/>
      <point x="234.66666666666669" y="-8.666666666666666"/>
      <point x="330.6666666666667" y="-8.666666666666666" type="curve" smooth="yes"/>
      <point x="360.6666666666667" y="-8.666666666666666"/>
      <point x="387.0" y="-6.0"/>
    </contour>
  </outline>
</glyph>
<glyph name="U" format="2">
  <advance width="600.0"/>
  <unicode hex="0055"/>
  <anchor x="300.0" y="711.3333333333334" name="top"/>
  <anchor x="299.6666666666667" y="-1.0" name="bottom"/>
  <anchor x="570.6666666666665" y="-0.6666666666666665" name="ogonek"/>
  <anchor x="299.6666666666667" y="711.0" name="ring"/>
  <anchor x="449.0" y="700.0" name="horn"/>
  <anchor x="300.0" y="770.0" name="hook"/>
  <anchor x="270.0" y="713.0" name="tildeviet"/>
  <outline>
    <contour>
      <point x="569.6666666666665" y="0.0" type="curve"/>
      <point x="559.9999999999998" y="36.0"/>
      <point x="555.3333333333331" y="76.66666666666666"/>
      <point x="555.3333333333331" y="127.0" type="curve" smooth="yes"/>
      <point x="555.3333333333331" y="290.0"/>
      <point x="555.3333333333331" y="453.6666666666667"/>
      <point x="555.3333333333331" y="597.0" type="curve" smooth="yes"/>
      <point x="555.3333333333331" y="674.3333333333334"/>
      <point x="528.3489096573333" y="708.0"/>
      <point x="427.6666666666667" y="708.0" type="curve" smooth="yes"/>
      <point x="401.6666666666667" y="708.0"/>
      <point x="366.3333333333333" y="705.6666666666666"/>
      <point x="344.0000000000001" y="700.0" type="curve"/>
      <point x="344.0000000000001" y="537.6666666666667"/>
      <point x="344.0000000000001" y="375.33333333333337"/>
      <point x="344.0000000000001" y="213.00000000000006" type="curve" smooth="yes"/>
      <point x="344.0000000000001" y="14.333333333333332"/>
      <point x="381.33333333333337" y="-9.333333333333334"/>
      <point x="488.6666666666667" y="-9.333333333333334" type="curve" smooth="yes"/>
      <point x="517.3333333333333" y="-9.333333333333334"/>
      <point x="544.6666666666665" y="-6.333333333333333"/>
    </contour>
    <contour>
      <point x="195.66666666666669" y="-12.666666666666666" type="curve" smooth="yes"/>
      <point x="245.33333333333331" y="-12.666666666666666"/>
      <point x="300.33333333333337" y="18.0"/>
      <point x="342.6666666666667" y="99.00000000000001" type="curve"/>
      <point x="369.6666666666667" y="99.00000000000001" type="line"/>
      <point x="369.66666666666674" y="266.33333333333337" type="line"/>
      <point x="333.3333333333333" y="197.66666666666666"/>
      <point x="296.33333333333337" y="184.0"/>
      <point x="254.66666666666669" y="184.0" type="curve" smooth="yes"/>
      <point x="243.66666666666663" y="184.0"/>
      <point x="233.6666666666667" y="186.66666666666669"/>
      <point x="225.33333333333334" y="192.33333333333334" type="curve" smooth="yes"/>
      <point x="241.33333333333337" y="333.3333333333333"/>
      <point x="251.33333333333334" y="467.3333333333333"/>
      <point x="251.33333333333334" y="579.3333333333334" type="curve" smooth="yes"/>
      <point x="251.33333333333334" y="678.0"/>
      <point x="211.66666666666666" y="710.0"/>
      <point x="120.33333333333336" y="710.0" type="curve" smooth="yes"/>
      <point x="88.33333333333336" y="710.0"/>
      <point x="53.33333333333334" y="708.0"/>
      <point x="23.333333333333336" y="703.3333333333334" type="curve"/>
      <point x="32.33333333333335" y="664.6666666666666"/>
      <point x="36.66666666666668" y="621.0"/>
      <point x="36.66666666666668" y="570.0" type="curve"/>
      <point x="36.66666666666668" y="438.99999999999994"/>
      <point x="36.66666666666668" y="305.3333333333333"/>
      <point x="36.66666666666668" y="174.33333333333334" type="curve" smooth="yes"/>
      <point x="36.66666666666668" y="64.99999999999999"/>
      <point x="126.33333333333333" y="-12.666666666666666"/>
    </contour>
  </outline>
</glyph>
<glyph name="V" format="2">
  <advance width="600.0"/>
  <unicode hex="0056"/>
  <outline>
    <contour>
      <point x="98.99999999999996" y="709.3333333333334" type="curve"/>
      <point x="74.33333333333333" y="709.3333333333334"/>
      <point x="52.00000000000001" y="706.3333333333333"/>
      <point x="29.66666666666668" y="701.3333333333334" type="curve"/>
      <point x="30.33333333333333" y="674.9999999999999"/>
      <point x="32.33333333333334" y="649.0"/>
      <point x="33.66666666666668" y="625.3333333333334" type="curve" smooth="yes"/>
      <point x="50.66447600433333" y="261.02917039826673"/>
      <point x="108.66666666666667" y="117.33333333333336"/>
      <point x="188.66666666666666" y="32.66666666666667" type="curve" smooth="yes"/>
      <point x="220.00000000000003" y="-1.0000000000000009"/>
      <point x="251.0" y="-10.0"/>
      <point x="300.33333333333326" y="-10.0" type="curve" smooth="yes"/>
      <point x="327.00000000000006" y="-10.0"/>
      <point x="354.99999999999994" y="-7.999999999999999"/>
      <point x="381.3333333333333" y="-2.6666666666666665" type="curve"/>
      <point x="481.33333333333337" y="80.33333333333334"/>
      <point x="551.3338776518667" y="255.01109572396663"/>
      <point x="565.0" y="602.0" type="curve"/>
      <point x="569.3333333333333" y="669.6666666666666"/>
      <point x="513.8828828828667" y="709.3333333333334"/>
      <point x="440.0" y="709.3333333333334" type="curve"/>
      <point x="415.08108108106666" y="709.3333333333334"/>
      <point x="390.53761459800006" y="706.7741895862665"/>
      <point x="365.0" y="701.3333333333334" type="curve"/>
      <point x="355.6850261976666" y="427.68741000273326"/>
      <point x="348.9942336702" y="282.73185137906665"/>
      <point x="299.6666666666667" y="163.99999999999994" type="curve"/>
      <point x="325.3333333333333" y="173.00000000000003" type="line"/>
      <point x="271.6666666666667" y="173.00000000000003" type="line"/>
      <point x="300.0" y="163.99999999999994" type="line"/>
      <point x="260.00000000000006" y="270.6666666666667"/>
      <point x="242.33333333333331" y="413.66666666666674"/>
      <point x="233.99999999999997" y="607.0" type="curve"/>
      <point x="230.99999999999994" y="676.6666666666666"/>
      <point x="182.66666666666663" y="709.3333333333334"/>
    </contour>
  </outline>
</glyph>
<glyph name="Y" format="2">
  <advance width="600.0"/>
  <unicode hex="0059"/>
  <anchor x="298.0" y="711.3333333333334" name="top"/>
  <anchor x="300.6666666666667" y="-145.99999999999997" name="dot"/>
  <anchor x="300.0" y="770.0" name="hook"/>
  <anchor x="300.0" y="-1.0" name="bottom"/>
  <outline>
    <contour>
      <point x="415.99999999999994" y="0.0" type="curve"/>
      <point x="406.66666666666663" y="36.33333333333333"/>
      <point x="402.66666666666663" y="78.66666666666666"/>
      <point x="402.66666666666663" y="130.0" type="curve"/>
      <point x="402.66666666666663" y="192.66666666666666"/>
      <point x="402.66666666666663" y="254.99999999999997"/>
      <point x="402.66666666666663" y="317.66666666666663" type="curve"/>
      <point x="198.66666666666666" y="317.66666666666663" type="line"/>
      <point x="198.66666666666666" y="245.66666666666666"/>
      <point x="198.66666666666666" y="172.66666666666666"/>
      <point x="198.66666666666666" y="105.33333333333333" type="curve" smooth="yes"/>
      <point x="198.66666666666666" y="22.333333333333336"/>
      <point x="228.66666666666669" y="-9.333333333333334"/>
      <point x="328.0" y="-9.333333333333334" type="curve" smooth="yes"/>
      <point x="359.00000000000006" y="-9.333333333333334"/>
      <point x="386.6666666666667" y="-6.333333333333333"/>
    </contour>
    <contour>
      <point x="28.00000000000001" y="702.0" type="curve"/>
      <point x="50.0" y="468.33333333333337"/>
      <point x="96.66666666666669" y="311.6666666666667"/>
      <point x="177.99999999999997" y="230.33333333333331" type="curve"/>
      <point x="217.00000000000003" y="191.33333333333331"/>
      <point x="259.00000000000006" y="183.33333333333337"/>
      <point x="376.66666666666663" y="183.33333333333337" type="curve"/>
      <point x="467.9999999999999" y="261.0"/>
      <point x="547.6666666666666" y="438.6666666666667"/>
      <point x="564.9999999999999" y="618.6666666666666" type="curve"/>
      <point x="570.9980603200665" y="681.6458151075333"/>
      <point x="532.6666666666667" y="709.3333333333334"/>
      <point x="438.00000000000006" y="709.3333333333334" type="curve"/>
      <point x="416.66666666666663" y="709.3333333333334"/>
      <point x="395.0" y="707.3333333333334"/>
      <point x="374.0" y="702.0" type="curve"/>
      <point x="363.0" y="539.6666666666667"/>
      <point x="347.0" y="429.66666666666674"/>
      <point x="289.6666666666667" y="349.3333333333333" type="curve"/>
      <point x="333.33333333333337" y="369.33333333333337" type="line"/>
      <point x="264.0" y="369.33333333333337" type="line"/>
      <point x="308.3333333333333" y="349.6666666666667" type="line"/>
      <point x="272.0" y="410.66666666666663"/>
      <point x="244.6666666666666" y="512.6666666666665"/>
      <point x="235.33333333333334" y="609.6666666666667" type="curve"/>
      <point x="227.0" y="691.3333333333333"/>
      <point x="196.0" y="709.3333333333334"/>
      <point x="91.99999999999999" y="709.3333333333334" type="curve" smooth="yes"/>
      <point x="70.6666666666667" y="709.3333333333334"/>
      <point x="48.999999999999986" y="707.3333333333334"/>
    </contour>
  </outline>
</glyph>
<glyph name="bracketleft" format="2">
  <advance width="600.0"/>
  <unicode hex="005B"/>
  <outline>
    <contour>
      <point x="518.3333333333334" y="-161.0" type="line"/>
      <point x="524.3333333333333" y="-140.66666666666666"/>
      <point x="527.0" y="-114.00000000000001"/>
      <point x="527.0" y="-83.0" type="curve" smooth="yes"/>
      <point x="527.0" y="-1.000000000000007"/>
      <point x="505.0" y="30.99999999999999"/>
      <point x="449.0" y="30.99999999999999" type="curve"/>
      <point x="375.0" y="30.99999999999999" type="line"/>
      <point x="375.0" y="210.0"/>
      <point x="375.0" y="389.6666666666667"/>
      <point x="375.0" y="568.6666666666667" type="curve"/>
      <point x="515.6666666666666" y="568.6666666666667" type="line"/>
      <point x="521.9999999999999" y="592.6666666666666"/>
      <point x="524.0" y="610.3333333333333"/>
      <point x="524.0" y="638.0" type="curve" smooth="yes"/>
      <point x="524.0" y="725.3333333333334"/>
      <point x="498.66666666666663" y="760.0"/>
      <point x="449.3333333333333" y="760.0" type="curve"/>
      <point x="253.66666666666669" y="760.0" type="line" smooth="yes"/>
      <point x="216.66666666666669" y="760.0"/>
      <point x="190.33333333333331" y="757.3333333333334"/>
      <point x="156.66666666666666" y="751.0" type="curve"/>
      <point x="167.0" y="714.3333333333334"/>
      <point x="172.33333333333334" y="677.3333333333333"/>
      <point x="172.33333333333334" y="636.0000000000001" type="curve" smooth="yes"/>
      <point x="172.33333333333334" y="430.0"/>
      <point x="172.33333333333334" y="213.33333333333334"/>
      <point x="172.33333333333334" y="2.3333333333333357" type="curve" smooth="yes"/>
      <point x="172.33333333333334" y="-70.0"/>
      <point x="239.66666666666666" y="-161.0"/>
      <point x="292.33333333333337" y="-161.0" type="curve" smooth="yes"/>
    </contour>
  </outline>
</glyph>
<glyph name="backslash" format="2">
  <advance width="600.0"/>
  <unicode hex="005C"/>
  <outline>
    <contour>
      <point x="14.00000000000001" y="751.6666666666667" type="curve"/>
      <point x="75.0" y="456.33333333333337"/>
      <point x="171.00000000000003" y="197.0"/>
      <point x="304.33333333333337" y="-28.666666666666686" type="curve" smooth="yes"/>
      <point x="346.00000000000006" y="-98.33333333333333"/>
      <point x="396.6666666666667" y="-133.0"/>
      <point x="462.33333333333337" y="-133.0" type="curve" smooth="yes"/>
      <point x="504.6666666666667" y="-133.0"/>
      <point x="534.6666666666665" y="-125.66666666666669"/>
      <point x="570.6666666666667" y="-104.33333333333333" type="curve"/>
      <point x="547.3333333333333" y="-80.66666666666667"/>
      <point x="527.3333333333334" y="-52.0"/>
      <point x="507.6666666666667" y="-15.000000000000007" type="curve"/>
      <point x="384.6666666666667" y="203.33333333333331"/>
      <point x="295.33333333333337" y="439.0"/>
      <point x="241.33333333333337" y="694.0" type="curve"/>
      <point x="230.33333333333334" y="743.3333333333333"/>
      <point x="183.66666666666669" y="773.3333333333334"/>
      <point x="102.6666666666667" y="773.3333333333334" type="curve" smooth="yes"/>
      <point x="71.66666666666669" y="773.3333333333334"/>
      <point x="48.00000000000001" y="767.0"/>
    </contour>
  </outline>
</glyph>
<glyph name="underscore" format="2">
  <advance width="600.0"/>
  <unicode hex="005F"/>
  <outline>
    <contour>
      <point x="46.0" y="-30.00000000000001" type="line"/>
      <point x="46.0" y="-37.33333333333333"/>
      <point x="46.0" y="-44.000000000000014"/>
      <point x="46.0" y="-52.33333333333333" type="curve" smooth="yes"/>
      <point x="46.0" y="-194.0"/>
      <point x="67.66666666666666" y="-219.33333333333331"/>
      <point x="187.66666666666666" y="-219.33333333333331" type="curve" smooth="yes"/>
      <point x="561.0" y="-219.33333333333331" type="line"/>
      <point x="566.9072625932666" y="-191.42394243079997"/>
      <point x="571.3333333333333" y="-160.93055555553335"/>
      <point x="571.3333333333333" y="-135.66666666666669" type="curve" smooth="yes"/>
      <point x="571.3333333333333" y="-52.201149425266685"/>
      <point x="548.9999999999999" y="-30.00000000000001"/>
      <point x="477.66666666666663" y="-30.00000000000001" type="curve" smooth="yes"/>
    </contour>
  </outline>
</glyph>
<glyph name="d" format="2">
  <advance width="600.0"/>
  <unicode hex="0064"/>
  <anchor x="575.6666666666667" y="711.0" name="caronslovak"/>
  <anchor x="290.0" y="-0.6666666666666665" name="bottom"/>
  <outline>
    <contour>
      <point x="215.33333333333334" y="558.6666666666667" type="curve" smooth="yes"/>
      <point x="110.33333333333334" y="558.6666666666667"/>
      <point x="28.66666666666667" y="473.0"/>
      <point x="28.66666666666667" y="204.00000000000003" type="curve" smooth="yes"/>
      <point x="28.66666666666667" y="191.33333333333334" type="line" smooth="yes"/>
      <point x="28.66666666666667" y="82.0"/>
      <point x="97.66666666666667" y="-10.666666666666666"/>
      <point x="187.0" y="-10.666666666666666" type="curve" smooth="yes"/>
      <point x="266.3333333333333" y="-10.666666666666666"/>
      <point x="331.4979677818667" y="50.32114002453334"/>
      <point x="349.6666666666667" y="123.99999999999999" type="curve"/>
      <point x="367.33333333333337" y="123.99999999999999" type="line"/>
      <point x="367.33333333333337" y="291.3333333333333" type="line"/>
      <point x="339.6666666666667" y="205.0"/>
      <point x="301.0" y="177.66666666666666"/>
      <point x="258.0" y="177.66666666666666" type="curve" smooth="yes"/>
      <point x="250.66666666666669" y="177.66666666666666"/>
      <point x="243.33333333333331" y="178.33333333333331"/>
      <point x="236.33333333333337" y="180.66666666666666" type="curve" smooth="yes"/>
      <point x="234.0" y="199.66666666666663"/>
      <point x="233.0" y="221.0"/>
      <point x="233.0" y="250.66666666666669" type="curve" smooth="yes"/>
      <point x="233.0" y="259.0" type="line" smooth="yes"/>
      <point x="233.0" y="365.6666666666667"/>
      <point x="261.66666666666663" y="394.0"/>
      <point x="305.0" y="394.0" type="curve" smooth="yes"/>
      <point x="331.33333333333337" y="394.0"/>
      <point x="352.66666666666663" y="387.3333333333333"/>
      <point x="369.33333333333337" y="375.3333333333333" type="curve"/>
      <point x="369.33333333333337" y="478.0" type="line"/>
      <point x="349.3333333333333" y="478.0" type="line"/>
      <point x="322.00000000000006" y="523.0"/>
      <point x="275.0" y="558.6666666666667"/>
    </contour>
    <contour>
      <point x="411.3333333333333" y="758.6666666666667" type="curve"/>
      <point x="386.33333333333337" y="758.6666666666667"/>
      <point x="359.33333333333337" y="754.3333333333333"/>
      <point x="338.33333333333337" y="750.0" type="curve"/>
      <point x="351.0" y="717.9999999999999"/>
      <point x="355.00000000000006" y="684.0000000000001"/>
      <point x="355.00000000000006" y="647.6666666666667" type="curve"/>
      <point x="355.00000000000006" y="498.33333333333337"/>
      <point x="355.00000000000006" y="324.0"/>
      <point x="355.00000000000006" y="147.0" type="curve"/>
      <point x="355.00000000000006" y="51.333333333333336"/>
      <point x="401.33333333333337" y="-7.666666666666666"/>
      <point x="503.0" y="-7.666666666666666" type="curve" smooth="yes"/>
      <point x="525.6666666666666" y="-7.666666666666666"/>
      <point x="546.0" y="-4.333333333333333"/>
      <point x="569.3333333333334" y="0.33333333333333337" type="curve"/>
      <point x="559.0" y="38.0"/>
      <point x="554.9999999999999" y="71.33333333333333"/>
      <point x="554.9999999999999" y="110.66666666666667" type="curve" smooth="yes"/>
      <point x="554.9999999999999" y="292.0"/>
      <point x="554.9999999999999" y="471.6666666666667"/>
      <point x="554.9999999999999" y="582.3333333333333" type="curve"/>
      <point x="554.9999999999999" y="717.3333333333333"/>
      <point x="500.9999999999999" y="758.6666666666667"/>
    </contour>
  </outline>
</glyph>
<glyph name="g" format="2">
  <advance width="600.0"/>
  <unicode hex="0067"/>
  <outline>
    <contour>
      <point x="374.6666666666667" y="508.6666666666667" type="line"/>
      <point x="464.0" y="504.3333333333333" type="line"/>
      <point x="464.0" y="532.0" type="line"/>
      <point x="515.0" y="553.3333333333333" type="line" smooth="yes"/>
      <point x="559.6666666666666" y="572.9999999999999"/>
      <point x="573.3333333333334" y="608.6666666666666"/>
      <point x="573.3333333333334" y="637.3333333333333" type="curve"/>
      <point x="573.3333333333334" y="642.3333333333334" type="line" smooth="yes"/>
      <point x="573.3333333333334" y="693.6666666666666"/>
      <point x="512.6666666666667" y="715.0"/>
      <point x="433.6666666666667" y="715.0" type="curve"/>
      <point x="410.6666666666667" y="715.0"/>
      <point x="391.00000000000006" y="713.3333333333334"/>
      <point x="372.0" y="710.0" type="curve"/>
      <point x="379.33333333333337" y="693.0"/>
      <point x="383.0" y="665.3333333333333"/>
      <point x="383.0" y="631.0" type="curve" smooth="yes"/>
      <point x="383.0" y="614.0"/>
      <point x="382.6666666666667" y="603.3333333333333"/>
      <point x="381.3333333333333" y="589.0000000000001" type="curve" smooth="yes"/>
    </contour>
    <contour>
      <point x="300.0" y="564.0" type="curve" smooth="yes"/>
      <point x="145.33333333333331" y="564.0"/>
      <point x="32.33333333333334" y="486.00000000000006"/>
      <point x="32.33333333333334" y="360.66666666666663" type="curve" smooth="yes"/>
      <point x="32.33333333333334" y="346.6666666666667" type="line" smooth="yes"/>
      <point x="32.33333333333334" y="224.66666666666666"/>
      <point x="131.66666666666669" y="152.66666666666669"/>
      <point x="288.3333333333333" y="153.33333333333337" type="curve" smooth="yes"/>
      <point x="443.0" y="153.33333333333337"/>
      <point x="556.0" y="228.66666666666669"/>
      <point x="556.0" y="350.0" type="curve" smooth="yes"/>
      <point x="556.0" y="364.0" type="line" smooth="yes"/>
      <point x="556.0" y="490.6666666666667"/>
      <point x="456.6666666666667" y="564.6666666666666"/>
    </contour>
    <contour>
      <point x="301.99999999999994" y="418.0" type="curve" smooth="yes"/>
      <point x="327.00000000000006" y="418.0"/>
      <point x="348.0" y="415.66666666666674"/>
      <point x="367.3333333333333" y="410.66666666666663" type="curve" smooth="yes"/>
      <point x="371.00000000000006" y="399.6666666666667"/>
      <point x="372.66666666666674" y="387.33333333333326"/>
      <point x="372.66666666666674" y="374.66666666666663" type="curve" smooth="yes"/>
      <point x="372.66666666666674" y="368.0" type="line" smooth="yes"/>
      <point x="372.66666666666674" y="315.66666666666663"/>
      <point x="349.0" y="292.66666666666663"/>
      <point x="289.66666666666663" y="292.66666666666663" type="curve" smooth="yes"/>
      <point x="264.66666666666663" y="292.66666666666663"/>
      <point x="243.66666666666663" y="295.3333333333333"/>
      <point x="224.33333333333334" y="301.0" type="curve" smooth="yes"/>
      <point x="220.66666666666666" y="312.0"/>
      <point x="219.00000000000003" y="323.66666666666663"/>
      <point x="219.00000000000003" y="336.0" type="curve" smooth="yes"/>
      <point x="219.00000000000003" y="342.66666666666663" type="line" smooth="yes"/>
      <point x="219.00000000000003" y="394.99999999999994"/>
      <point x="242.66666666666669" y="418.0"/>
    </contour>
    <contour>
      <point x="194.33333333333331" y="194.0" type="line"/>
      <point x="194.33333333333331" y="157.33333333333334" type="line"/>
      <point x="153.0" y="142.66666666666666"/>
      <point x="118.33333333333334" y="112.66666666666667"/>
      <point x="118.33333333333334" y="67.66666666666666" type="curve" smooth="yes"/>
      <point x="118.33333333333334" y="6.0"/>
      <point x="177.66666666666669" y="-35.333333333333336"/>
      <point x="262.3333333333333" y="-42.333333333333336" type="curve" smooth="yes"/>
      <point x="366.0" y="-50.666666666666664" type="line" smooth="yes"/>
      <point x="381.0" y="-51.66666666666667"/>
      <point x="390.33333333333337" y="-59.66666666666667"/>
      <point x="390.33333333333337" y="-76.66666666666667" type="curve" smooth="yes"/>
      <point x="390.33333333333337" y="-83.66666666666667" type="line" smooth="yes"/>
      <point x="390.33333333333337" y="-97.66666666666666"/>
      <point x="387.6666666666667" y="-110.00000000000003"/>
      <point x="379.6666666666667" y="-122.33333333333333" type="curve" smooth="yes"/>
      <point x="352.0" y="-127.66666666666667"/>
      <point x="319.6666666666667" y="-130.0"/>
      <point x="282.0" y="-130.0" type="curve"/>
      <point x="269.0" y="-130.0" type="line" smooth="yes"/>
      <point x="223.66666666666666" y="-130.0"/>
      <point x="206.0" y="-118.66666666666667"/>
      <point x="206.0" y="-87.33333333333334" type="curve" smooth="yes"/>
      <point x="206.0" y="-79.99999999999999" type="line" smooth="yes"/>
      <point x="206.0" y="-47.33333333333333"/>
      <point x="210.0" y="-31.333333333333336"/>
      <point x="240.0" y="-11.666666666666666" type="curve"/>
      <point x="142.0" y="23.333333333333332" type="line"/>
      <point x="142.0" y="4.440892098500626e-16" type="line"/>
      <point x="63.00000000000002" y="-6.9999999999999964"/>
      <point x="15.33333333333334" y="-49.333333333333336"/>
      <point x="15.33333333333334" y="-111.33333333333333" type="curve" smooth="yes"/>
      <point x="15.33333333333334" y="-117.33333333333333" type="line" smooth="yes"/>
      <point x="15.33333333333334" y="-196.66666666666669"/>
      <point x="102.66666666666667" y="-250.0"/>
      <point x="237.66666666666666" y="-250.0" type="curve" smooth="yes"/>
      <point x="248.66666666666669" y="-250.0" type="line" smooth="yes"/>
      <point x="469.0" y="-250.0"/>
      <point x="580.3333333333334" y="-169.66666666666663"/>
      <point x="580.3333333333334" y="-44.333333333333336" type="curve" smooth="yes"/>
      <point x="580.3333333333334" y="-31.000000000000004" type="line" smooth="yes"/>
      <point x="580.3333333333334" y="47.66666666666666"/>
      <point x="511.00000000000006" y="86.33333333333333"/>
      <point x="419.0" y="93.33333333333331" type="curve" smooth="yes"/>
      <point x="319.00000000000006" y="100.66666666666666" type="line" smooth="yes"/>
      <point x="288.0" y="103.33333333333331"/>
      <point x="278.99999999999994" y="112.0"/>
      <point x="278.99999999999994" y="127.66666666666669" type="curve" smooth="yes"/>
      <point x="278.99999999999994" y="143.66666666666666"/>
      <point x="282.6666666666667" y="155.0"/>
      <point x="290.33333333333337" y="166.0" type="curve"/>
    </contour>
  </outline>
</glyph>
<glyph name="h" format="2">
  <advance width="600.0"/>
  <unicode hex="0068"/>
  <anchor x="139.33333333333331" y="730.0" name="top"/>
  <anchor x="300.99999999999994" y="-0.6666666666666665" name="bottom"/>
  <outline>
    <contour>
      <point x="171.0" y="-5.666666666666666" type="curve" smooth="yes"/>
      <point x="196.0" y="-5.666666666666666"/>
      <point x="218.33333333333331" y="-4.333333333333333"/>
      <point x="241.66666666666666" y="-4.440892098500626e-16" type="curve"/>
      <point x="241.66666666666666" y="208.33333333333331"/>
      <point x="241.66666666666666" y="412.6666666666667"/>
      <point x="241.66666666666666" y="582.3333333333334" type="curve" smooth="yes"/>
      <point x="241.66666666666666" y="715.3333333333334"/>
      <point x="194.33333333333334" y="758.6666666666666"/>
      <point x="96.66666666666667" y="758.6666666666666" type="curve"/>
      <point x="73.66666666666666" y="758.6666666666666"/>
      <point x="50.000000000000014" y="755.0"/>
      <point x="28.33333333333334" y="750.0" type="curve"/>
      <point x="41.00000000000001" y="723.3333333333334"/>
      <point x="45.0" y="672.6666666666666"/>
      <point x="45.0" y="623.6666666666667" type="curve" smooth="yes"/>
      <point x="45.0" y="434.3333333333333"/>
      <point x="45.0" y="272.6666666666667"/>
      <point x="45.0" y="99.0" type="curve" smooth="yes"/>
      <point x="45.0" y="30.666666666666664"/>
      <point x="84.66666666666666" y="-5.666666666666666"/>
    </contour>
    <contour>
      <point x="230.66666666666666" y="228.66666666666666" type="line"/>
      <point x="258.3333333333333" y="333.66666666666663"/>
      <point x="305.0" y="364.33333333333337"/>
      <point x="347.0" y="364.33333333333337" type="curve" smooth="yes"/>
      <point x="358.66666666666674" y="364.33333333333337"/>
      <point x="370.0" y="361.66666666666663"/>
      <point x="377.3333333333333" y="357.0" type="curve" smooth="yes"/>
      <point x="354.6666666666667" y="257.33333333333337"/>
      <point x="339.6666666666667" y="167.66666666666666"/>
      <point x="339.6666666666667" y="121.66666666666666" type="curve" smooth="yes"/>
      <point x="339.6666666666667" y="29.333333333333332"/>
      <point x="387.0" y="-8.666666666666666"/>
      <point x="480.6666666666667" y="-8.666666666666666" type="curve" smooth="yes"/>
      <point x="515.0" y="-8.666666666666666"/>
      <point x="540.6666666666666" y="-5.999999999999999"/>
      <point x="571.3333333333333" y="0.0" type="curve"/>
      <point x="558.0" y="44.333333333333336"/>
      <point x="552.9999999999999" y="87.66666666666669"/>
      <point x="552.9999999999999" y="146.33333333333334" type="curve" smooth="yes"/>
      <point x="552.9999999999999" y="219.33333333333334"/>
      <point x="552.9999999999999" y="292.3333333333333"/>
      <point x="552.9999999999999" y="365.3333333333333" type="curve" smooth="yes"/>
      <point x="552.9999999999999" y="456.3333333333333"/>
      <point x="489.3333333333333" y="560.0"/>
      <point x="427.99999999999994" y="560.0" type="curve"/>
      <point x="354.3333333333333" y="560.0"/>
      <point x="280.66666666666663" y="499.3333333333333"/>
      <point x="248.00000000000003" y="411.66666666666663" type="curve"/>
      <point x="222.0" y="411.66666666666663" type="line"/>
    </contour>
  </outline>
</glyph>
<glyph name="n" format="2">
  <advance width="600.0"/>
  <unicode hex="006E"/>
  <anchor x="300.0" y="557.6666666666666" name="top"/>
  <anchor x="301.0" y="-1.0" name="bottom"/>
  <anchor x="85.66666666666667" y="701.0" name="caronslovak"/>
  <outline>
    <contour>
      <point x="571.3333333333333" y="0.0" type="curve"/>
      <point x="558.0" y="44.333333333333336"/>
      <point x="552.9999999999999" y="87.66666666666669"/>
      <point x="552.9999999999999" y="146.33333333333334" type="curve" smooth="yes"/>
      <point x="552.9999999999999" y="219.33333333333334"/>
      <point x="552.9999999999999" y="292.3333333333333"/>
      <point x="552.9999999999999" y="365.3333333333333" type="curve" smooth="yes"/>
      <point x="552.9999999999999" y="456.3333333333333"/>
      <point x="489.3333333333333" y="560.0"/>
      <point x="428.0" y="560.0" type="curve"/>
      <point x="354.3333333333333" y="560.0"/>
      <point x="280.6666666666667" y="499.3333333333333"/>
      <point x="248.00000000000003" y="411.66666666666663" type="curve"/>
      <point x="222.0" y="411.66666666666663" type="line"/>
      <point x="230.66666666666666" y="228.66666666666666" type="line"/>
      <point x="258.3333333333333" y="333.66666666666663"/>
      <point x="305.0" y="364.33333333333337"/>
      <point x="347.0" y="364.33333333333337" type="curve" smooth="yes"/>
      <point x="358.66666666666674" y="364.33333333333337"/>
      <point x="370.0" y="361.66666666666663"/>
      <point x="377.3333333333333" y="357.0" type="curve" smooth="yes"/>
      <point x="354.6666666666667" y="257.33333333333337"/>
      <point x="339.6666666666667" y="167.66666666666666"/>
      <point x="339.6666666666667" y="121.66666666666666" type="curve" smooth="yes"/>
      <point x="339.6666666666667" y="29.333333333333332"/>
      <point x="387.0" y="-8.666666666666666"/>
      <point x="480.6666666666667" y="-8.666666666666666" type="curve" smooth="yes"/>
      <point x="515.0" y="-8.666666666666666"/>
      <point x="540.6666666666666" y="-5.999999999999999"/>
    </contour>
    <contour>
      <point x="242.0" y="-4.440892098500626e-16" type="curve"/>
      <point x="242.0" y="133.33333333333334"/>
      <point x="242.0" y="277.6666666666667"/>
      <point x="242.0" y="419.0" type="curve" smooth="yes"/>
      <point x="242.0" y="515.3333333333334"/>
      <point x="196.33333333333331" y="555.3333333333333"/>
      <point x="110.33333333333331" y="555.3333333333333" type="curve"/>
      <point x="82.66666666666667" y="555.3333333333333"/>
      <point x="55.00000000000001" y="552.3333333333334"/>
      <point x="26.66666666666667" y="546.6666666666666" type="curve"/>
      <point x="39.333333333333336" y="513.3333333333334"/>
      <point x="45.333333333333336" y="469.3333333333333"/>
      <point x="45.333333333333336" y="420.33333333333326" type="curve" smooth="yes"/>
      <point x="45.333333333333336" y="309.33333333333326"/>
      <point x="45.333333333333336" y="198.66666666666666"/>
      <point x="45.333333333333336" y="91.0" type="curve" smooth="yes"/>
      <point x="45.333333333333336" y="22.666666666666664"/>
      <point x="75.33333333333334" y="-5.666666666666666"/>
      <point x="170.66666666666669" y="-5.666666666666666" type="curve" smooth="yes"/>
      <point x="195.66666666666666" y="-5.666666666666666"/>
      <point x="218.66666666666666" y="-4.333333333333333"/>
    </contour>
  </outline>
</glyph>
<glyph name="q" format="2">
  <advance width="600.0"/>
  <unicode hex="0071"/>
  <outline>
    <contour>
      <point x="386.00000000000006" y="547.6666666666666" type="curve"/>
      <point x="370.6666666666667" y="512.6666666666666"/>
      <point x="355.00000000000006" y="451.0"/>
      <point x="355.00000000000006" y="406.3333333333333" type="curve"/>
      <point x="355.00000000000006" y="256.66666666666663"/>
      <point x="355.00000000000006" y="107.33333333333334"/>
      <point x="355.00000000000006" y="-42.33333333333334" type="curve"/>
      <point x="355.00000000000006" y="-134.66666666666666"/>
      <point x="398.6666666666667" y="-197.0"/>
      <point x="484.33333333333337" y="-197.0" type="curve" smooth="yes"/>
      <point x="509.3333333333333" y="-197.0"/>
      <point x="531.6666666666667" y="-195.66666666666669"/>
      <point x="555.0" y="-191.33333333333334" type="curve"/>
      <point x="554.9999999999999" y="-153.0"/>
      <point x="554.9999999999999" y="-115.0"/>
      <point x="554.9999999999999" y="-77.33333333333331" type="curve" smooth="yes"/>
      <point x="554.9999999999999" y="79.66666666666666"/>
      <point x="554.9999999999999" y="225.66666666666669"/>
      <point x="554.9999999999999" y="385.00000000000006" type="curve"/>
      <point x="554.9999999999999" y="515.3333333333333"/>
      <point x="523.6666666666666" y="555.3333333333333"/>
      <point x="455.99999999999994" y="555.3333333333333" type="curve"/>
      <point x="429.0" y="555.3333333333333"/>
      <point x="406.6666666666667" y="551.6666666666666"/>
    </contour>
    <contour>
      <point x="378.6666666666667" y="124.0" type="line"/>
      <point x="378.6666666666667" y="322.6666666666667" type="line"/>
      <point x="350.66666666666663" y="214.33333333333331"/>
      <point x="307.8901098901" y="177.66666666666666"/>
      <point x="258.0" y="177.66666666666666" type="curve" smooth="yes"/>
      <point x="250.66666666666669" y="177.66666666666666"/>
      <point x="244.0" y="178.33333333333331"/>
      <point x="238.33333333333337" y="180.66666666666666" type="curve" smooth="yes"/>
      <point x="234.33333333333331" y="194.66666666666666"/>
      <point x="233.0" y="209.33333333333334"/>
      <point x="233.0" y="236.0" type="curve" smooth="yes"/>
      <point x="233.0" y="244.33333333333334" type="line" smooth="yes"/>
      <point x="233.0" y="351.00000000000006"/>
      <point x="252.99999999999997" y="394.0"/>
      <point x="305.0" y="394.0" type="curve" smooth="yes"/>
      <point x="335.3333333333333" y="394.0"/>
      <point x="358.66666666666674" y="385.99999999999994"/>
      <point x="378.6666666666667" y="372.0" type="curve"/>
      <point x="378.6666666666667" y="477.33333333333337" type="line"/>
      <point x="358.66666666666663" y="477.33333333333337" type="line"/>
      <point x="333.94324883533335" y="522.5993145381334"/>
      <point x="283.5579057094667" y="558.6666666666667"/>
      <point x="223.33333333333337" y="558.6666666666667" type="curve" smooth="yes"/>
      <point x="109.0" y="558.6666666666667"/>
      <point x="28.66666666666667" y="473.6666666666667"/>
      <point x="28.66666666666667" y="204.00000000000003" type="curve" smooth="yes"/>
      <point x="28.66666666666667" y="191.33333333333334" type="line" smooth="yes"/>
      <point x="28.66666666666667" y="81.33333333333333"/>
      <point x="98.33333333333334" y="-10.666666666666666"/>
      <point x="185.0" y="-10.666666666666666" type="curve" smooth="yes"/>
      <point x="255.8725300634" y="-10.666666666666666"/>
      <point x="321.0" y="38.00000000000001"/>
      <point x="349.0" y="123.99999999999997" type="curve"/>
    </contour>
  </outline>
</glyph>
<glyph name="z" format="2">
  <advance width="600.0"/>
  <unicode hex="007A"/>
  <anchor x="301.3333333333333" y="557.6666666666666" name="top"/>
  <anchor x="300.33333333333337" y="-0.6666666666666665" name="bottom"/>
  <outline>
    <contour>
      <point x="40.333333333333336" y="546.6666666666666" type="line"/>
      <point x="35.66666666666667" y="528.0"/>
      <point x="34.66666666666667" y="507.66666666666663"/>
      <point x="34.66666666666667" y="482.6666666666667" type="curve" smooth="yes"/>
      <point x="34.66666666666667" y="382.6666666666667"/>
      <point x="64.33333333333333" y="351.3333333333333"/>
      <point x="105.33333333333333" y="351.3333333333333" type="curve" smooth="yes"/>
      <point x="324.33333333333337" y="351.3333333333333" type="line"/>
      <point x="325.66666666666674" y="345.0" type="line"/>
      <point x="307.99999999999994" y="336.33333333333337"/>
      <point x="293.0" y="326.3333333333333"/>
      <point x="275.66666666666663" y="313.0" type="curve" smooth="yes"/>
      <point x="202.33333333333337" y="254.99999999999997"/>
      <point x="119.66666666666669" y="203.0"/>
      <point x="34.66666666666667" y="153.33333333333331" type="curve"/>
      <point x="34.66666666666667" y="132.33333333333331" type="line" smooth="yes"/>
      <point x="34.66666666666667" y="33.333333333333336"/>
      <point x="65.66666666666667" y="0.0"/>
      <point x="104.33333333333333" y="0.0" type="curve" smooth="yes"/>
      <point x="561.0" y="0.0" type="line"/>
      <point x="566.3333333333334" y="22.33333333333334"/>
      <point x="568.0000000000001" y="52.666666666666664"/>
      <point x="568.0000000000001" y="82.99999999999997" type="curve" smooth="yes"/>
      <point x="568.0000000000001" y="158.99999999999997"/>
      <point x="551.0000000000001" y="195.3333333333333"/>
      <point x="493.0000000000001" y="195.3333333333333" type="curve"/>
      <point x="313.9999999999999" y="195.3333333333333" type="line"/>
      <point x="313.33333333333326" y="201.66666666666666" type="line"/>
      <point x="336.66666666666663" y="211.66666666666663"/>
      <point x="359.99999999999994" y="222.99999999999994"/>
      <point x="381.99999999999994" y="237.33333333333337" type="curve" smooth="yes"/>
      <point x="481.33333333333326" y="298.3333333333333"/>
      <point x="563.3333333333334" y="371.0"/>
      <point x="563.3333333333335" y="400.33333333333337" type="curve"/>
      <point x="563.3333333333335" y="408.33333333333337" type="line" smooth="yes"/>
      <point x="563.3333333333335" y="471.99999999999994"/>
      <point x="524.3333333333334" y="546.6666666666666"/>
      <point x="472.00000000000006" y="546.6666666666666" type="curve"/>
    </contour>
  </outline>
</glyph>
<glyph name="bar" format="2">
  <advance width="600.0"/>
  <unicode hex="007C"/>
  <outline>
    <contour>
      <point x="181.66666666666669" y="757.3333333333334" type="curve"/>
      <point x="192.00000000000003" y="720.6666666666666"/>
      <point x="197.33333333333334" y="683.0"/>
      <point x="197.33333333333334" y="641.6666666666667" type="curve" smooth="yes"/>
      <point x="197.33333333333334" y="401.3333333333333"/>
      <point x="197.33333333333334" y="160.0"/>
      <point x="197.33333333333334" y="-80.33333333333331" type="curve" smooth="yes"/>
      <point x="197.33333333333334" y="-136.0"/>
      <point x="252.33333333333334" y="-165.33333333333331"/>
      <point x="354.33333333333337" y="-165.33333333333331" type="curve" smooth="yes"/>
      <point x="377.3333333333333" y="-165.33333333333331"/>
      <point x="391.33333333333326" y="-164.33333333333331"/>
      <point x="402.66666666666663" y="-161.66666666666663" type="curve"/>
      <point x="402.66666666666663" y="110.0"/>
      <point x="402.66666666666663" y="383.0"/>
      <point x="402.66666666666663" y="654.6666666666666" type="curve" smooth="yes"/>
      <point x="402.66666666666663" y="730.0"/>
      <point x="364.66666666666663" y="765.6666666666666"/>
      <point x="269.33333333333326" y="765.6666666666666" type="curve" smooth="yes"/>
      <point x="236.33333333333337" y="765.6666666666666"/>
      <point x="211.33333333333337" y="763.6666666666667"/>
    </contour>
  </outline>
</glyph>
<glyph name="asciitilde" format="2">
  <advance width="600.0"/>
  <unicode hex="007E"/>
  <outline>
    <contour>
      <point x="419.0" y="348.33333333333326" type="curve" smooth="yes"/>
      <point x="332.0" y="348.33333333333326"/>
      <point x="252.0" y="473.3333333333333"/>
      <point x="164.0" y="473.3333333333333" type="curve" smooth="yes"/>
      <point x="120.66666666666667" y="473.3333333333333"/>
      <point x="86.66666666666667" y="452.0"/>
      <point x="68.0" y="394.0" type="curve" smooth="yes"/>
      <point x="53.0" y="363.66666666666663"/>
      <point x="47.0" y="316.0"/>
      <point x="47.0" y="281.3333333333333" type="curve" smooth="yes"/>
      <point x="47.0" y="244.66666666666669"/>
      <point x="50.33333333333333" y="218.0"/>
      <point x="58.666666666666664" y="192.66666666666669" type="curve"/>
      <point x="64.66666666666667" y="192.66666666666669" type="line"/>
      <point x="102.0" y="235.66666666666669"/>
      <point x="129.33333333333334" y="251.66666666666666"/>
      <point x="181.0" y="251.66666666666666" type="curve" smooth="yes"/>
      <point x="268.0" y="251.66666666666666"/>
      <point x="348.0" y="126.66666666666664"/>
      <point x="436.0" y="126.66666666666664" type="curve" smooth="yes"/>
      <point x="479.3333333333333" y="126.66666666666664"/>
      <point x="513.3333333333334" y="148.66666666666669"/>
      <point x="531.6666666666666" y="206.33333333333334" type="curve" smooth="yes"/>
      <point x="547.6666666666666" y="237.66666666666666"/>
      <point x="553.0" y="283.3333333333333"/>
      <point x="553.0" y="317.66666666666663" type="curve" smooth="yes"/>
      <point x="553.0" y="355.3333333333334"/>
      <point x="549.6666666666667" y="382.0"/>
      <point x="541.3333333333334" y="407.33333333333326" type="curve"/>
      <point x="535.3333333333334" y="407.33333333333326" type="line"/>
      <point x="498.0" y="364.3333333333333"/>
      <point x="470.6666666666667" y="348.33333333333326"/>
    </contour>
  </outline>
</glyph>
<glyph name="brokenbar" format="2">
  <advance width="600.0"/>
  <unicode hex="00A6"/>
  <outline>
    <contour>
      <point x="181.66666666666669" y="757.3333333333334" type="curve"/>
      <point x="192.0" y="720.6666666666666"/>
      <point x="197.33333333333334" y="683.0"/>
      <point x="197.33333333333334" y="641.6666666666667" type="curve" smooth="yes"/>
      <point x="197.33333333333334" y="450.3333333333333" type="line" smooth="yes"/>
      <point x="197.33333333333334" y="394.0"/>
      <point x="247.66666666666663" y="365.33333333333337"/>
      <point x="354.3333333333333" y="365.33333333333337" type="curve" smooth="yes"/>
      <point x="377.3333333333333" y="365.33333333333337"/>
      <point x="392.66666666666674" y="366.3333333333333"/>
      <point x="402.6666666666667" y="369.0" type="curve"/>
      <point x="402.6666666666667" y="691.6666666666667" type="line" smooth="yes"/>
      <point x="402.6666666666667" y="718.0"/>
      <point x="398.0" y="727.3333333333334"/>
      <point x="387.66666666666663" y="738.3333333333334" type="curve" smooth="yes"/>
      <point x="367.0" y="758.3333333333333"/>
      <point x="334.6666666666667" y="765.6666666666666"/>
      <point x="269.33333333333337" y="765.6666666666666" type="curve" smooth="yes"/>
      <point x="236.33333333333334" y="765.6666666666666"/>
      <point x="211.33333333333337" y="763.6666666666667"/>
    </contour>
    <contour>
      <point x="197.33333333333334" y="227.33333333333334" type="curve"/>
      <point x="197.33333333333334" y="-79.66666666666666" type="line"/>
      <point x="197.33333333333334" y="-136.0"/>
      <point x="247.66666666666663" y="-164.66666666666669"/>
      <point x="354.3333333333333" y="-164.66666666666669" type="curve" smooth="yes"/>
      <point x="377.3333333333333" y="-164.66666666666669"/>
      <point x="392.66666666666674" y="-163.66666666666666"/>
      <point x="402.6666666666667" y="-161.0" type="curve"/>
      <point x="402.6666666666667" y="161.66666666666666" type="line" smooth="yes"/>
      <point x="402.6666666666667" y="215.66666666666669"/>
      <point x="372.6666666666667" y="235.66666666666666"/>
      <point x="282.3333333333333" y="235.66666666666666" type="curve"/>
      <point x="251.66666666666669" y="235.66666666666666"/>
      <point x="227.33333333333337" y="233.66666666666669"/>
    </contour>
  </outline>
</glyph>
<glyph name="twosuperior" format="2">
  <advance width="600.0"/>
  <unicode hex="00B2"/>
  <outline>
    <contour>
      <point x="439.00000000000006" y="372.0" type="curve"/>
      <point x="442.0" y="388.0"/>
      <point x="444.0" y="404.6666666666667"/>
      <point x="444.0" y="423.0" type="curve" smooth="yes"/>
      <point x="444.0" y="468.3333333333333"/>
      <point x="426.6666666666667" y="484.6666666666667"/>
      <point x="375.33333333333337" y="484.6666666666667" type="curve"/>
      <point x="336.99999999999994" y="484.6666666666667" type="line" smooth="yes"/>
      <point x="293.6666666666667" y="484.6666666666667"/>
      <point x="269.3333333333333" y="478.6666666666667"/>
      <point x="235.66666666666666" y="457.66666666666663" type="curve"/>
      <point x="276.6666666666667" y="466.33333333333337" type="line"/>
      <point x="241.00000000000003" y="473.6666666666667" type="line"/>
      <point x="247.0" y="450.6666666666667" type="line"/>
      <point x="255.66666666666666" y="489.66666666666663"/>
      <point x="269.33333333333337" y="501.3333333333333"/>
      <point x="351.66666666666663" y="530.6666666666667" type="curve" smooth="yes"/>
      <point x="417.33333333333337" y="553.6666666666666"/>
      <point x="440.66666666666663" y="582.3333333333334"/>
      <point x="440.66666666666663" y="641.3333333333334" type="curve" smooth="yes"/>
      <point x="440.66666666666663" y="648.0" type="line" smooth="yes"/>
      <point x="440.66666666666663" y="706.6666666666667"/>
      <point x="396.66666666666663" y="754.0"/>
      <point x="291.33333333333337" y="754.0" type="curve" smooth="yes"/>
      <point x="236.33333333333334" y="754.0"/>
      <point x="198.00000000000003" y="744.0"/>
      <point x="180.0" y="726.0" type="curve" smooth="yes"/>
      <point x="165.00000000000003" y="711.0"/>
      <point x="158.66666666666663" y="685.6666666666667"/>
      <point x="158.66666666666663" y="659.0" type="curve" smooth="yes"/>
      <point x="158.66666666666663" y="643.9999999999999"/>
      <point x="160.66666666666666" y="620.6666666666667"/>
      <point x="165.66666666666666" y="609.6666666666666" type="curve"/>
      <point x="171.66666666666666" y="609.6666666666666" type="line"/>
      <point x="195.33333333333331" y="626.6666666666665"/>
      <point x="232.33333333333334" y="636.6666666666666"/>
      <point x="269.0" y="636.6666666666666" type="curve" smooth="yes"/>
      <point x="291.6666666666667" y="636.6666666666666"/>
      <point x="306.3333333333333" y="635.6666666666666"/>
      <point x="319.66666666666674" y="632.6666666666666" type="curve" smooth="yes"/>
      <point x="323.66666666666674" y="629.6666666666666"/>
      <point x="324.66666666666663" y="625.6666666666666"/>
      <point x="324.66666666666663" y="620.6666666666667" type="curve" smooth="yes"/>
      <point x="324.66666666666663" y="607.6666666666666"/>
      <point x="313.33333333333337" y="598.3333333333334"/>
      <point x="256.3333333333333" y="578.0" type="curve" smooth="yes"/>
      <point x="172.33333333333331" y="549.3333333333333"/>
      <point x="150.66666666666666" y="500.66666666666663"/>
      <point x="150.66666666666666" y="438.6666666666667" type="curve" smooth="yes"/>
      <point x="150.66666666666666" y="435.66666666666663" type="line" smooth="yes"/>
      <point x="150.66666666666666" y="397.0"/>
      <point x="165.33333333333331" y="372.0"/>
      <point x="194.0" y="372.0" type="curve" smooth="yes"/>
      <point x="224.0" y="372.0"/>
      <point x="421.0" y="372.0"/>
    </contour>
  </outline>
</glyph>
<glyph name="ordmasculine" format="2">
  <advance width="600.0"/>
  <unicode hex="00BA"/>
  <outline>
    <contour>
      <point x="301.33333333333337" y="762.0000000000001" type="curve" smooth="yes"/>
      <point x="164.33333333333334" y="762.0000000000001"/>
      <point x="80.66666666666669" y="667.6666666666667"/>
      <point x="80.66666666666669" y="514.0" type="curve" smooth="yes"/>
      <point x="80.66666666666669" y="501.33333333333337" type="line" smooth="yes"/>
      <point x="80.66666666666669" y="355.33333333333337"/>
      <point x="171.33333333333334" y="282.0"/>
      <point x="298.99999999999994" y="282.0" type="curve" smooth="yes"/>
      <point x="435.3333333333333" y="282.0"/>
      <point x="519.3333333333333" y="364.33333333333337"/>
      <point x="519.3333333333333" y="500.6666666666667" type="curve" smooth="yes"/>
      <point x="519.3333333333333" y="513.3333333333333" type="line" smooth="yes"/>
      <point x="519.3333333333333" y="678.6666666666667"/>
      <point x="428.0" y="762.0000000000001"/>
    </contour>
    <contour>
      <point x="300.33333333333337" y="621.0000000000001" type="curve" smooth="yes"/>
      <point x="314.3333333333333" y="620.9999999999999"/>
      <point x="324.0" y="620.0"/>
      <point x="333.6666666666667" y="617.0000000000001" type="curve"/>
      <point x="347.3333333333333" y="598.3333333333333"/>
      <point x="352.0" y="567.3333333333334"/>
      <point x="352.0" y="515.0" type="curve" smooth="yes"/>
      <point x="352.0" y="504.3333333333333" type="line" smooth="yes"/>
      <point x="352.0" y="446.0"/>
      <point x="334.66666666666674" y="424.0"/>
      <point x="296.3333333333333" y="424.0" type="curve" smooth="yes"/>
      <point x="281.0" y="424.0"/>
      <point x="270.0" y="425.99999999999994"/>
      <point x="258.66666666666663" y="429.3333333333333" type="curve"/>
      <point x="250.33333333333334" y="443.6666666666667"/>
      <point x="247.0" y="465.3333333333333"/>
      <point x="247.0" y="497.3333333333333" type="curve" smooth="yes"/>
      <point x="247.0" y="507.3333333333333" type="line" smooth="yes"/>
      <point x="247.0" y="589.3333333333333"/>
      <point x="264.0" y="621.0000000000001"/>
    </contour>
  </outline>
</glyph>
<glyph name="AE" format="2">
  <advance width="600.0"/>
  <unicode hex="00C6"/>
  <anchor x="347.66666666666663" y="711.0" name="top"/>
  <outline>
    <contour>
      <point x="177.99999999999997" y="2.999999999999999" type="curve"/>
      <point x="188.33333333333331" y="279.66666666666674"/>
      <point x="209.99999999999997" y="431.66666666666663"/>
      <point x="261.66666666666663" y="564.3333333333334" type="curve"/>
      <point x="220.66666666666669" y="536.6666666666667" type="line"/>
      <point x="573.9999999999999" y="536.6666666666667" type="line"/>
      <point x="579.0" y="550.0"/>
      <point x="582.3333333333331" y="571.6666666666666"/>
      <point x="582.3333333333331" y="592.3333333333334" type="curve" smooth="yes"/>
      <point x="582.3333333333331" y="669.6666666666666"/>
      <point x="545.6666666666666" y="705.0"/>
      <point x="461.33333333333326" y="705.0" type="curve"/>
      <point x="325.99999999999994" y="705.0" type="line"/>
      <point x="241.66666666666669" y="705.0"/>
      <point x="185.33333333333337" y="697.6666666666667"/>
      <point x="145.00000000000003" y="682.3333333333333" type="curve"/>
      <point x="61.66666666666668" y="516.9999999999999"/>
      <point x="19.666666666666668" y="317.33333333333326"/>
      <point x="19.66666666666667" y="62.0" type="curve" smooth="yes"/>
      <point x="19.666666666666664" y="13.666666666666664"/>
      <point x="58.666666666666664" y="-5.0"/>
      <point x="118.0" y="-5.0" type="curve" smooth="yes"/>
      <point x="143.33333333333334" y="-5.0"/>
      <point x="157.99999999999997" y="-3.3333333333333344"/>
    </contour>
    <contour>
      <point x="267.3333333333333" y="558.0" type="line"/>
      <point x="289.6666666666666" y="383.0"/>
      <point x="297.3333333333333" y="200.99999999999994"/>
      <point x="297.3333333333333" y="65.33333333333333" type="curve" smooth="yes"/>
      <point x="297.3333333333333" y="19.0"/>
      <point x="329.6666666666667" y="0.0"/>
      <point x="406.66666666666663" y="0.0" type="curve" smooth="yes"/>
      <point x="581.0" y="0.0" type="line"/>
      <point x="585.0" y="15.000000000000002"/>
      <point x="586.9999999999999" y="35.000000000000014"/>
      <point x="586.9999999999999" y="58.0" type="curve" smooth="yes"/>
      <point x="586.9999999999999" y="134.33333333333331"/>
      <point x="561.9999999999999" y="163.33333333333331"/>
      <point x="495.0" y="163.33333333333331" type="curve" smooth="yes"/>
      <point x="457.99999999999994" y="163.33333333333331" type="line"/>
      <point x="456.0" y="272.3333333333333"/>
      <point x="448.0" y="361.66666666666674"/>
      <point x="439.6666666666667" y="441.66666666666663" type="curve" smooth="yes"/>
      <point x="433.9999999999999" y="497.99999999999994"/>
      <point x="426.6666666666667" y="518.6666666666666"/>
      <point x="407.0" y="530.6666666666666" type="curve"/>
      <point x="426.0" y="575.0" type="line"/>
    </contour>
    <contour>
      <point x="1.6666666666666696" y="310.00000000000006" type="line"/>
      <point x="1.6666666666666696" y="285.0" type="line"/>
      <point x="1.6666666666666696" y="203.33333333333331"/>
      <point x="16.66666666666667" y="163.33333333333331"/>
      <point x="47.66666666666666" y="163.33333333333331" type="curve"/>
      <point x="326.3333333333334" y="163.33333333333331" type="line"/>
      <point x="326.3333333333334" y="289.3333333333333" type="line"/>
      <point x="286.66666666666674" y="273.0" type="line"/>
      <point x="268.6666666666667" y="297.0"/>
      <point x="238.0" y="310.00000000000006"/>
      <point x="201.33333333333337" y="310.00000000000006" type="curve"/>
    </contour>
    <contour>
      <point x="384.0" y="391.0" type="line"/>
      <point x="384.0" y="246.6666666666667" type="line"/>
      <point x="551.9999999999999" y="246.6666666666667" type="line"/>
      <point x="555.6666666666665" y="262.0"/>
      <point x="556.9999999999999" y="281.66666666666663"/>
      <point x="556.9999999999999" y="303.0" type="curve" smooth="yes"/>
      <point x="556.9999999999999" y="358.6666666666667"/>
      <point x="530.3333333333333" y="391.0"/>
      <point x="481.99999999999994" y="391.0" type="curve"/>
    </contour>
  </outline>
</glyph>
<glyph name="multiply" format="2">
  <advance width="600.0"/>
  <unicode hex="00D7"/>
  <outline>
    <contour>
      <point x="192.99999999999997" y="525.3333333333333" type="curve" smooth="yes"/>
      <point x="172.66666666666666" y="525.3333333333333"/>
      <point x="152.33333333333331" y="514.6666666666666"/>
      <point x="126.0" y="490.33333333333326" type="curve" smooth="yes"/>
      <point x="99.66666666666669" y="466.33333333333337"/>
      <point x="80.66666666666667" y="439.66666666666674"/>
      <point x="71.66666666666666" y="415.0" type="curve"/>
      <point x="155.66666666666666" y="316.0"/>
      <point x="257.6666666666667" y="214.33333333333334"/>
      <point x="354.66666666666674" y="130.33333333333334" type="curve" smooth="yes"/>
      <point x="389.6666666666667" y="100.33333333333334"/>
      <point x="403.0" y="95.33333333333333"/>
      <point x="424.33333333333337" y="95.33333333333333" type="curve" smooth="yes"/>
      <point x="455.6666666666667" y="95.33333333333333"/>
      <point x="486.6666666666667" y="118.66666666666667"/>
      <point x="540.3333333333334" y="172.33333333333331" type="curve" smooth="yes"/>
      <point x="545.3333333333333" y="177.33333333333331"/>
      <point x="549.3333333333334" y="181.33333333333334"/>
      <point x="553.3333333333334" y="185.33333333333334" type="curve"/>
      <point x="442.3333333333333" y="273.3333333333333"/>
      <point x="337.0" y="379.66666666666663"/>
      <point x="244.0" y="495.3333333333332" type="curve" smooth="yes"/>
      <point x="227.66666666666666" y="515.6666666666665"/>
      <point x="211.0" y="525.3333333333333"/>
    </contour>
    <contour>
      <point x="58.66666666666667" y="185.33333333333331" type="curve"/>
      <point x="62.66666666666666" y="181.33333333333331"/>
      <point x="66.6666666666667" y="177.33333333333331"/>
      <point x="71.66666666666669" y="172.33333333333331" type="curve" smooth="yes"/>
      <point x="125.33333333333334" y="118.66666666666667"/>
      <point x="153.66666666666669" y="95.33333333333333"/>
      <point x="185.0" y="95.33333333333333" type="curve" smooth="yes"/>
      <point x="208.0" y="95.33333333333333"/>
      <point x="225.33333333333334" y="103.33333333333333"/>
      <point x="260.0" y="133.66666666666666" type="curve" smooth="yes"/>
      <point x="361.6666666666667" y="222.66666666666663"/>
      <point x="459.33333333333337" y="313.66666666666663"/>
      <point x="541.6666666666666" y="415.0" type="curve"/>
      <point x="533.3333333333333" y="438.0"/>
      <point x="512.3333333333334" y="467.33333333333326"/>
      <point x="487.33333333333337" y="490.33333333333326" type="curve" smooth="yes"/>
      <point x="461.6666666666667" y="514.6666666666666"/>
      <point x="441.33333333333337" y="525.3333333333333"/>
      <point x="420.33333333333337" y="525.3333333333333" type="curve" smooth="yes"/>
      <point x="402.33333333333337" y="525.3333333333333"/>
      <point x="385.66666666666674" y="515.6666666666665"/>
      <point x="369.33333333333337" y="495.3333333333332" type="curve" smooth="yes"/>
      <point x="275.66666666666663" y="382.3333333333333"/>
      <point x="176.66666666666666" y="274.33333333333337"/>
    </contour>
  </outline>
</glyph>
<glyph name="Oslash" format="2">
  <advance width="600.0"/>
  <unicode hex="00D8"/>
  <anchor x="286.6666666666667" y="738.0" name="top"/>
  <outline>
    <contour>
      <point x="536.6666666666666" y="767.0" type="curve"/>
      <point x="515.3333333333334" y="776.0"/>
      <point x="493.0" y="783.3333333333334"/>
      <point x="453.66666666666674" y="783.3333333333334" type="curve" smooth="yes"/>
      <point x="392.00000000000006" y="783.3333333333334"/>
      <point x="363.33333333333337" y="768.3333333333333"/>
      <point x="357.3333333333334" y="732.0" type="curve" smooth="yes"/>
      <point x="351.99999999999994" y="691.6666666666665"/>
      <point x="346.3333333333334" y="656.3333333333334"/>
      <point x="340.6666666666667" y="625.0" type="curve" smooth="yes"/>
      <point x="335.66666666666674" y="598.3333333333334"/>
      <point x="330.6666666666667" y="573.0000000000001"/>
      <point x="324.3333333333335" y="548.9999999999999" type="curve" smooth="yes"/>
      <point x="312.00000000000006" y="502.6666666666667"/>
      <point x="297.66666666666663" y="456.33333333333326"/>
      <point x="283.33333333333326" y="418.0" type="curve" smooth="yes"/>
      <point x="258.33333333333337" y="351.3333333333333"/>
      <point x="241.33333333333337" y="304.66666666666663"/>
      <point x="224.33333333333334" y="246.99999999999997" type="curve"/>
      <point x="265.66666666666663" y="292.33333333333337" type="line"/>
      <point x="201.66666666666669" y="292.33333333333337" type="line"/>
      <point x="119.0" y="80.66666666666667" type="line"/>
      <point x="96.33333333333334" y="27.666666666666664"/>
      <point x="61.333333333333336" y="-24.333333333333332"/>
      <point x="27.999999999999993" y="-56.33333333333333" type="curve"/>
      <point x="53.66666666666665" y="-73.33333333333333"/>
      <point x="83.0" y="-85.0"/>
      <point x="142.33333333333331" y="-85.0" type="curve" smooth="yes"/>
      <point x="192.33333333333337" y="-85.0"/>
      <point x="225.0" y="-63.0"/>
      <point x="248.66666666666663" y="-6.333333333333343" type="curve"/>
      <point x="262.99999999999994" y="21.33333333333332"/>
      <point x="266.0" y="58.66666666666666"/>
      <point x="263.0" y="96.33333333333333" type="curve" smooth="yes"/>
      <point x="255.0" y="119.3333333333333"/>
      <point x="241.66666666666666" y="140.99999999999997"/>
      <point x="226.00000000000006" y="156.66666666666666" type="curve" smooth="yes"/>
      <point x="262.0" y="187.99999999999997"/>
      <point x="295.6666666666667" y="233.0"/>
      <point x="321.33333333333337" y="279.6666666666667" type="curve" smooth="yes"/>
      <point x="340.66666666666663" y="312.66666666666674"/>
      <point x="355.33333333333337" y="357.0000000000001"/>
      <point x="361.00000000000006" y="399.0000000000001" type="curve"/>
      <point x="337.33333333333337" y="389.0" type="line"/>
      <point x="402.00000000000006" y="389.0" type="line"/>
      <point x="428.00000000000006" y="465.33333333333337" type="line"/>
      <point x="463.3333333333334" y="540.6666666666666"/>
      <point x="496.99999999999994" y="633.0"/>
    </contour>
    <component base="O"/>
  </outline>
</glyph>
<glyph name="germandbls" format="2">
  <advance width="600.0"/>
  <unicode hex="00DF"/>
  <outline>
    <contour>
      <point x="311.0" y="770.0" type="curve" smooth="yes"/>
      <point x="138.33333333333334" y="770.0"/>
      <point x="44.66666666666668" y="670.3333333333333"/>
      <point x="44.66666666666668" y="538.0000000000001" type="curve" smooth="yes"/>
      <point x="44.66666666666668" y="402.07004334933333"/>
      <point x="44.66666666666668" y="265.6666666666667"/>
      <point x="44.66666666666668" y="128.66666666666666" type="curve" smooth="yes"/>
      <point x="44.66666666666668" y="82.0"/>
      <point x="39.66666666666667" y="37.33333333333333"/>
      <point x="30.00000000000001" y="-0.666666666666667" type="curve" smooth="yes"/>
      <point x="54.333333333333336" y="-6.333333333333333"/>
      <point x="86.00000000000001" y="-9.666666666666666"/>
      <point x="108.99999999999997" y="-9.666666666666666" type="curve"/>
      <point x="193.0" y="-9.666666666666668"/>
      <point x="241.33333333333331" y="30.999999999999996"/>
      <point x="241.33333333333331" y="97.66666666666667" type="curve"/>
      <point x="241.33333333333331" y="234.33333333333334"/>
      <point x="241.33333333333331" y="373.2444444444333"/>
      <point x="241.33333333333331" y="510.0" type="curve"/>
      <point x="241.33333333333331" y="541.0"/>
      <point x="242.0" y="561.0"/>
      <point x="245.66666666666666" y="582.0" type="curve" smooth="yes"/>
      <point x="266.6666666666667" y="588.0"/>
      <point x="294.66666666666663" y="591.6666666666667"/>
      <point x="318.33333333333337" y="591.6666666666667" type="curve" smooth="yes"/>
      <point x="348.3333333333333" y="591.6666666666667"/>
      <point x="369.6666666666667" y="588.0"/>
      <point x="390.0" y="580.6666666666666" type="curve"/>
      <point x="381.00000000000006" y="565.0000000000001"/>
      <point x="370.33333333333337" y="550.0"/>
      <point x="351.6666666666667" y="526.9999999999999" type="curve" smooth="yes"/>
      <point x="328.33333333333337" y="498.3333333333333" type="line" smooth="yes"/>
      <point x="303.66666666666663" y="468.0"/>
      <point x="290.0" y="431.33333333333337"/>
      <point x="290.0" y="395.6666666666667" type="curve" smooth="yes"/>
      <point x="290.0" y="384.66666666666663" type="line" smooth="yes"/>
      <point x="290.0" y="339.0"/>
      <point x="307.3333333333333" y="304.0"/>
      <point x="345.33333333333337" y="274.3333333333333" type="curve" smooth="yes"/>
      <point x="370.3333333333333" y="255.33333333333334" type="line" smooth="yes"/>
      <point x="402.6666666666667" y="231.0"/>
      <point x="412.33333333333337" y="215.33333333333334"/>
      <point x="412.33333333333337" y="194.33333333333334" type="curve"/>
      <point x="412.33333333333337" y="189.33333333333331"/>
      <point x="411.99999999999994" y="185.33333333333334"/>
      <point x="411.00000000000006" y="180.99999999999997" type="curve" smooth="yes"/>
      <point x="403.0" y="176.66666666666666"/>
      <point x="392.3333333333333" y="174.66666666666666"/>
      <point x="378.0" y="174.66666666666666" type="curve" smooth="yes"/>
      <point x="349.6666666666667" y="174.66666666666666"/>
      <point x="329.66666666666663" y="179.33333333333331"/>
      <point x="306.3333333333333" y="191.0" type="curve"/>
      <point x="300.33333333333337" y="191.0" type="line"/>
      <point x="295.0" y="174.99999999999997"/>
      <point x="292.0" y="146.0"/>
      <point x="292.0" y="120.33333333333331" type="curve" smooth="yes"/>
      <point x="292.0" y="60.0"/>
      <point x="304.0" y="28.0"/>
      <point x="319.99999999999994" y="12.000000000000004" type="curve" smooth="yes"/>
      <point x="335.0" y="-2.9999999999999982"/>
      <point x="361.99999999999994" y="-12.000000000000002"/>
      <point x="408.0" y="-12.000000000000002" type="curve" smooth="yes"/>
      <point x="517.3333333333334" y="-12.000000000000002"/>
      <point x="579.0" y="58.0"/>
      <point x="579.0" y="163.33333333333331" type="curve" smooth="yes"/>
      <point x="579.0" y="175.33333333333331" type="line" smooth="yes"/>
      <point x="579.0" y="243.66666666666669"/>
      <point x="554.6666666666666" y="287.33333333333337"/>
      <point x="500.00000000000006" y="331.6666666666667" type="curve" smooth="yes"/>
      <point x="478.0" y="349.66666666666663" type="line" smooth="yes"/>
      <point x="469.33333333333337" y="356.3333333333333"/>
      <point x="463.00000000000006" y="361.33333333333326"/>
      <point x="461.00000000000006" y="368.3333333333333" type="curve" smooth="yes"/>
      <point x="463.6666666666667" y="377.3333333333333"/>
      <point x="472.53645275239995" y="388.99056955013333"/>
      <point x="489.33333333333326" y="409.00000000000006" type="curve" smooth="yes"/>
      <point x="510.99999999999994" y="435.0" type="line" smooth="yes"/>
      <point x="541.0" y="473.0"/>
      <point x="558.3333333333334" y="505.33333333333337"/>
      <point x="558.3333333333334" y="575.0" type="curve" smooth="yes"/>
      <point x="558.3333333333334" y="588.0" type="line" smooth="yes"/>
      <point x="558.3333333333334" y="672.6666666666667"/>
      <point x="481.0" y="770.0"/>
    </contour>
  </outline>
</glyph>
<glyph name="dcroat" format="2">
  <advance width="600.0"/>
  <unicode hex="0111"/>
  <outline>
    <contour>
      <point x="128.33333333333334" y="690.0" type="line"/>
      <point x="128.33333333333334" y="686.0"/>
      <point x="128.33333333333334" y="682.0"/>
      <point x="128.33333333333334" y="677.0" type="curve" smooth="yes"/>
      <point x="128.33333333333334" y="606.0"/>
      <point x="140.33333333333337" y="593.0"/>
      <point x="173.33333333333337" y="593.0" type="curve" smooth="yes"/>
      <point x="587.6666666666666" y="593.0" type="line"/>
      <point x="589.6666666666666" y="607.0"/>
      <point x="591.6666666666666" y="623.0"/>
      <point x="591.6666666666666" y="636.0" type="curve" smooth="yes"/>
      <point x="591.6666666666666" y="676.0"/>
      <point x="584.6666666666666" y="690.0"/>
      <point x="561.6666666666666" y="690.0" type="curve"/>
    </contour>
    <component base="d"/>
  </outline>
</glyph>
<glyph name="IJ" format="2">
  <advance width="600.0"/>
  <unicode hex="0132"/>
  <outline>
    <contour>
      <point x="37.33333333333334" y="701.0" type="curve"/>
      <point x="45.66666666666667" y="663.6666666666667"/>
      <point x="49.66666666666667" y="621.3333333333334"/>
      <point x="49.66666666666667" y="570.0" type="curve" smooth="yes"/>
      <point x="49.66666666666667" y="501.9456214689334"/>
      <point x="49.66666666666667" y="435.0543785310666"/>
      <point x="49.66666666666667" y="367.0" type="curve" smooth="yes"/>
      <point x="49.66666666666667" y="274.3333333333333"/>
      <point x="84.66666666666667" y="242.33333333333331"/>
      <point x="184.0" y="242.33333333333331" type="curve" smooth="yes"/>
      <point x="207.0" y="242.33333333333331"/>
      <point x="226.33333333333331" y="244.00000000000003"/>
      <point x="245.66666666666669" y="247.99999999999997" type="curve"/>
      <point x="245.66666666666669" y="365.0836047773999"/>
      <point x="245.66666666666669" y="481.2497285559333"/>
      <point x="245.66666666666669" y="598.3333333333333" type="curve" smooth="yes"/>
      <point x="245.66666666666669" y="677.3333333333333"/>
      <point x="208.0" y="710.0"/>
      <point x="117.00000000000001" y="710.0" type="curve"/>
      <point x="88.66666666666667" y="710.0"/>
      <point x="61.0" y="706.6666666666666"/>
    </contour>
    <contour>
      <point x="267.6666666666667" y="173.33333333333331" type="curve" smooth="yes"/>
      <point x="203.34285714286668" y="173.33333333333331"/>
      <point x="147.9747071741" y="184.7946396617"/>
      <point x="82.0" y="218.33333333333334" type="curve"/>
      <point x="76.0" y="218.33333333333334" type="line"/>
      <point x="67.33333333333334" y="193.0"/>
      <point x="63.0" y="165.33333333333331"/>
      <point x="63.0" y="131.33333333333331" type="curve"/>
      <point x="63.0" y="77.33333333333333"/>
      <point x="73.33333333333334" y="47.0"/>
      <point x="98.66666666666667" y="23.0" type="curve"/>
      <point x="126.2924606819" y="-3.2924606819"/>
      <point x="187.23004694836666" y="-20.0"/>
      <point x="272.0" y="-20.0" type="curve" smooth="yes"/>
      <point x="460.33333333333337" y="-20.0"/>
      <point x="562.6666666666667" y="82.66666666666667"/>
      <point x="562.6666666666666" y="223.33333333333331" type="curve"/>
      <point x="562.6666666666666" y="361.0"/>
      <point x="562.6666666666666" y="498.3333333333333"/>
      <point x="562.6666666666666" y="596.6666666666666" type="curve"/>
      <point x="562.6666666666666" y="681.6666666666666"/>
      <point x="526.0" y="708.6666666666667"/>
      <point x="406.33333333333337" y="708.6666666666667" type="curve"/>
      <point x="362.3852459016333" y="708.6666666666667"/>
      <point x="317.00000000000006" y="705.3333333333334"/>
      <point x="286.3333333333333" y="700.0" type="curve"/>
      <point x="280.99999999999994" y="677.3333333333334"/>
      <point x="279.0" y="653.6666666666667"/>
      <point x="279.0" y="621.0" type="curve" smooth="yes"/>
      <point x="279.0" y="551.3333333333333"/>
      <point x="292.3333333333333" y="518.6666666666666"/>
      <point x="321.3333333333333" y="518.6666666666666" type="curve" smooth="yes"/>
      <point x="345.66666666666663" y="518.6666666666666"/>
      <point x="371.3333333333333" y="530.0"/>
      <point x="399.3333333333333" y="551.3333333333333" type="curve"/>
      <point x="338.33333333333337" y="540.6666666666666" type="line"/>
      <point x="380.0" y="517.0000000000001" type="line"/>
      <point x="366.3333333333333" y="567.6666666666666" type="line"/>
      <point x="366.3333333333333" y="449.6666666666667"/>
      <point x="366.3333333333333" y="345.66666666666663"/>
      <point x="366.3333333333333" y="241.33333333333331" type="curve"/>
      <point x="366.3333333333333" y="220.66666666666663"/>
      <point x="366.0" y="202.33333333333331"/>
      <point x="364.3333333333333" y="184.66666666666663" type="curve" smooth="yes"/>
      <point x="337.99999999999994" y="177.66666666666666"/>
      <point x="303.3333333333333" y="173.33333333333331"/>
    </contour>
  </outline>
</glyph>
<glyph name="lcaron" format="2">
  <advance width="600.0"/>
  <unicode hex="013E"/>
  <outline>
    <contour>
      <point x="482.33333333333326" y="537.9999999999999" type="curve" smooth="yes"/>
      <point x="509.0" y="537.9999999999999"/>
      <point x="526.3333333333333" y="542.3333333333333"/>
      <point x="542.0" y="558.0" type="curve" smooth="yes"/>
      <point x="578.0000000000001" y="593.9999999999999"/>
      <point x="597.0" y="645.3333333333333"/>
      <point x="597.0000000000001" y="702.0" type="curve" smooth="yes"/>
      <point x="597.0" y="738.0"/>
      <point x="570.6666666666666" y="755.0"/>
      <point x="513.6666666666666" y="755.0" type="curve" smooth="yes"/>
      <point x="488.00000000000006" y="755.0"/>
      <point x="469.6666666666667" y="752.3333333333333"/>
      <point x="445.33333333333337" y="744.6666666666666" type="curve"/>
      <point x="445.33333333333326" y="653.6666666666666"/>
      <point x="442.33333333333337" y="621.6666666666667"/>
      <point x="429.3333333333333" y="549.9999999999999" type="curve"/>
      <point x="443.0" y="543.9999999999999"/>
      <point x="458.6666666666667" y="537.9999999999999"/>
    </contour>
    <component base="l.mono"/>
  </outline>
</glyph>
<glyph name="Ldot" format="2">
  <advance width="600.0"/>
  <unicode hex="013F"/>
  <outline>
    <contour>
      <point x="348.0" y="511.0" type="curve"/>
      <point x="348.0" y="398.0" type="line" smooth="yes"/>
      <point x="348.0" y="339.99999999999994"/>
      <point x="388.33333333333337" y="331.33333333333326"/>
      <point x="439.3333333333333" y="331.33333333333326" type="curve" smooth="yes"/>
      <point x="470.33333333333337" y="331.33333333333326"/>
      <point x="510.33333333333326" y="334.66666666666663"/>
      <point x="544.0" y="340.0" type="curve"/>
      <point x="544.0" y="453.0" type="line" smooth="yes"/>
      <point x="544.0" y="511.0"/>
      <point x="504.3333333333333" y="519.6666666666667"/>
      <point x="452.6666666666667" y="519.6666666666667" type="curve"/>
      <point x="421.66666666666663" y="519.6666666666667"/>
      <point x="381.6666666666667" y="516.3333333333334"/>
    </contour>
    <component base="L"/>
  </outline>
</glyph>
<glyph name="Schwa" format="2">
  <advance width="600.0"/>
  <unicode hex="018F"/>
  <outline>
    <contour>
      <point x="272.0" y="717.3333333333334" type="curve" smooth="yes"/>
      <point x="176.99999999999997" y="717.3333333333334"/>
      <point x="119.33333333333333" y="706.0000000000001"/>
      <point x="85.33333333333333" y="679.3333333333333" type="curve" smooth="yes"/>
      <point x="57.33333333333334" y="656.6666666666666"/>
      <point x="46.00000000000001" y="624.0"/>
      <point x="46.00000000000001" y="576.6666666666665" type="curve" smooth="yes"/>
      <point x="46.00000000000001" y="556.0"/>
      <point x="48.333333333333336" y="536.9999999999999"/>
      <point x="53.33333333333334" y="515.3333333333333" type="curve"/>
      <point x="58.66666666666667" y="515.3333333333333" type="line"/>
      <point x="119.66666666666666" y="540.0"/>
      <point x="194.80952380953335" y="554.6666666666666"/>
      <point x="266.6666666666667" y="554.6666666666666" type="curve" smooth="yes"/>
      <point x="295.6666666666667" y="554.6666666666666"/>
      <point x="316.0" y="552.6666666666666"/>
      <point x="336.0" y="546.6666666666667" type="curve" smooth="yes"/>
      <point x="357.6666666666667" y="506.6666666666667"/>
      <point x="372.0" y="450.00000000000006"/>
      <point x="372.0" y="338.0" type="curve"/>
      <point x="372.0" y="332.3333333333333" type="line" smooth="yes"/>
      <point x="372.0" y="190.33333333333331"/>
      <point x="346.6666666666667" y="146.99999999999997"/>
      <point x="268.3333333333333" y="146.99999999999997" type="curve" smooth="yes"/>
      <point x="252.33333333333334" y="146.99999999999997"/>
      <point x="238.33333333333331" y="148.33333333333331"/>
      <point x="223.99999999999997" y="151.0" type="curve" smooth="yes"/>
      <point x="219.33333333333331" y="172.0"/>
      <point x="216.66666666666666" y="203.0"/>
      <point x="216.66666666666666" y="239.66666666666666" type="curve"/>
      <point x="216.66666666666666" y="318.0" type="line"/>
      <point x="274.3333333333333" y="318.0"/>
      <point x="331.0" y="318.0"/>
      <point x="388.66666666666674" y="318.0" type="curve"/>
      <point x="388.6666666666667" y="405.0" type="line"/>
      <point x="365.00000000000006" y="393.66666666666663" type="line"/>
      <point x="336.0" y="425.6666666666667"/>
      <point x="288.6666666666667" y="443.99999999999994"/>
      <point x="235.0" y="443.99999999999994" type="curve"/>
      <point x="135.0" y="443.99999999999994" type="line" smooth="yes"/>
      <point x="54.666666666666664" y="443.99999999999994"/>
      <point x="33.333333333333336" y="420.66666666666663"/>
      <point x="33.333333333333336" y="333.66666666666663" type="curve" smooth="yes"/>
      <point x="33.333333333333336" y="219.66666666666666" type="line" smooth="yes"/>
      <point x="33.333333333333336" y="76.33333333333333"/>
      <point x="131.66666666666669" y="-17.333333333333332"/>
      <point x="279.33333333333337" y="-17.333333333333332" type="curve" smooth="yes"/>
      <point x="456.66666666666663" y="-17.333333333333332"/>
      <point x="563.3333333333334" y="117.66666666666669"/>
      <point x="563.3333333333334" y="341.33333333333337" type="curve" smooth="yes"/>
      <point x="563.3333333333334" y="349.0" type="line" smooth="yes"/>
      <point x="563.3333333333334" y="573.3333333333334"/>
      <point x="454.99999999999994" y="716.6666666666667"/>
    </contour>
  </outline>
</glyph>
<glyph name="Dzcaron" format="2">
  <advance width="600.0"/>
  <unicode hex="01C5"/>
  <outline>
    <contour>
      <point x="136.33333333333331" y="713.3333333333334" type="curve"/>
      <point x="87.0" y="713.3333333333334"/>
      <point x="40.0" y="706.0"/>
      <point x="2.333333333333333" y="693.3333333333334" type="curve"/>
      <point x="-3.000000000000001" y="670.9999999999999"/>
      <point x="-6.666666666666667" y="642.0"/>
      <point x="-6.666666666666667" y="601.0" type="curve"/>
      <point x="-6.666666666666667" y="519.6666666666667"/>
      <point x="4.999999999999999" y="503.3333333333335"/>
      <point x="26.333333333333336" y="503.3333333333335" type="curve" smooth="yes"/>
      <point x="52.0" y="503.3333333333335"/>
      <point x="104.66666666666664" y="523.3333333333334"/>
      <point x="142.33333333333334" y="523.3333333333334" type="curve" smooth="yes"/>
      <point x="160.33333333333334" y="523.3333333333334"/>
      <point x="174.0" y="522.0000000000001"/>
      <point x="189.66666666666669" y="519.0" type="curve" smooth="yes"/>
      <point x="196.0" y="494.33333333333326"/>
      <point x="198.33333333333337" y="458.66666666666674"/>
      <point x="198.33333333333337" y="416.33333333333326" type="curve" smooth="yes"/>
      <point x="198.33333333333337" y="396.3333333333334" type="line" smooth="yes"/>
      <point x="198.33333333333337" y="201.3333333333333"/>
      <point x="183.33333333333334" y="178.33333333333331"/>
      <point x="161.66666666666666" y="178.33333333333331" type="curve" smooth="yes"/>
      <point x="157.66666666666669" y="178.33333333333331"/>
      <point x="154.3333333333333" y="178.6666666666666"/>
      <point x="152.66666666666666" y="178.99999999999994" type="curve"/>
      <point x="152.66666666666666" y="261.66666666666663"/>
      <point x="152.66666666666666" y="345.00000000000006"/>
      <point x="152.66666666666666" y="427.6666666666667" type="curve" smooth="yes"/>
      <point x="152.66666666666666" y="469.3333333333333"/>
      <point x="147.66666666666666" y="492.6666666666667"/>
      <point x="122.0" y="516.3333333333334" type="curve"/>
      <point x="141.66666666666669" y="565.0" type="line"/>
      <point x="21.000000000000007" y="679.6666666666666" type="line"/>
      <point x="21.000000000000007" y="527.0"/>
      <point x="21.000000000000007" y="252.66666666666669"/>
      <point x="21.000000000000007" y="89.0" type="curve"/>
      <point x="21.000000000000007" y="52.33333333333333"/>
      <point x="27.33333333333334" y="36.00000000000001"/>
      <point x="44.0" y="19.333333333333336" type="curve" smooth="yes"/>
      <point x="63.666666666666664" y="-1.3333333333333321"/>
      <point x="85.66666666666664" y="-10.0"/>
      <point x="123.00000000000003" y="-10.0" type="curve" smooth="yes"/>
      <point x="232.00000000000003" y="-10.0"/>
      <point x="322.99999999999994" y="88.99999999999997"/>
      <point x="322.99999999999994" y="392.6666666666667" type="curve" smooth="yes"/>
      <point x="322.99999999999994" y="472.6666666666665" type="line" smooth="yes"/>
      <point x="322.99999999999994" y="627.9999999999999"/>
      <point x="272.6666666666667" y="712.6666666666667"/>
    </contour>
    <contour>
      <point x="340.6666666666667" y="546.6666666666666" type="line"/>
      <point x="337.66666666666663" y="528.0"/>
      <point x="335.3333333333333" y="507.66666666666663"/>
      <point x="335.3333333333333" y="482.6666666666667" type="curve" smooth="yes"/>
      <point x="335.3333333333333" y="382.6666666666667"/>
      <point x="352.6666666666667" y="351.3333333333333"/>
      <point x="390.0000000000001" y="351.3333333333333" type="curve" smooth="yes"/>
      <point x="462.33333333333337" y="351.3333333333333" type="line"/>
      <point x="463.0" y="345.0" type="line"/>
      <point x="452.33333333333326" y="329.00000000000006"/>
      <point x="444.66666666666674" y="315.6666666666667"/>
      <point x="433.3333333333333" y="297.99999999999994" type="curve" smooth="yes"/>
      <point x="403.66666666666663" y="246.33333333333334"/>
      <point x="370.3333333333333" y="198.0"/>
      <point x="335.3333333333333" y="153.33333333333331" type="curve"/>
      <point x="335.3333333333333" y="132.33333333333331" type="line" smooth="yes"/>
      <point x="335.3333333333333" y="26.666666666666668"/>
      <point x="354.6666666666667" y="0.0"/>
      <point x="400.6666666666667" y="0.0" type="curve" smooth="yes"/>
      <point x="593.3333333333333" y="0.0" type="line"/>
      <point x="597.3333333333334" y="22.33333333333334"/>
      <point x="600.0" y="52.666666666666664"/>
      <point x="600.0" y="82.99999999999997" type="curve" smooth="yes"/>
      <point x="600.0" y="169.66666666666663"/>
      <point x="587.3333333333334" y="195.3333333333333"/>
      <point x="546.3333333333334" y="195.3333333333333" type="curve"/>
      <point x="467.00000000000006" y="195.3333333333333" type="line"/>
      <point x="466.3333333333333" y="201.66666666666666" type="line"/>
      <point x="477.3333333333334" y="212.0"/>
      <point x="490.0000000000001" y="223.99999999999994"/>
      <point x="500.66666666666663" y="237.66666666666666" type="curve" smooth="yes"/>
      <point x="562.6666666666666" y="309.6666666666667"/>
      <point x="598.0" y="374.99999999999994"/>
      <point x="598.0" y="411.00000000000006" type="curve"/>
      <point x="598.0" y="419.0" type="line" smooth="yes"/>
      <point x="598.0" y="489.99999999999994"/>
      <point x="574.6666666666669" y="546.6666666666666"/>
      <point x="526.0000000000001" y="546.6666666666666" type="curve"/>
    </contour>
    <contour>
      <point x="508.33333333333337" y="622.3333333333334" type="curve"/>
      <point x="540.3333333333334" y="651.3333333333335"/>
      <point x="573.0" y="695.6666666666667"/>
      <point x="593.6666666666666" y="739.0" type="curve" smooth="yes"/>
      <point x="605.3333333333333" y="763.3333333333335"/>
      <point x="614.6666666666667" y="788.3333333333333"/>
      <point x="614.6666666666667" y="809.3333333333333" type="curve" smooth="yes"/>
      <point x="614.6666666666667" y="834.3333333333334"/>
      <point x="580.3333333333334" y="845.0"/>
      <point x="527.6666666666667" y="845.0" type="curve" smooth="yes"/>
      <point x="511.66666666666663" y="845.0" type="line"/>
      <point x="502.6666666666667" y="812.3333333333334"/>
      <point x="485.66666666666663" y="768.0"/>
      <point x="462.99999999999994" y="731.3333333333333" type="curve"/>
      <point x="491.3333333333333" y="749.3333333333333" type="line"/>
      <point x="448.33333333333337" y="749.3333333333333" type="line"/>
      <point x="475.0" y="733.3333333333334" type="line"/>
      <point x="456.0" y="759.6666666666666"/>
      <point x="445.3333333333333" y="783.3333333333333"/>
      <point x="435.99999999999994" y="806.9999999999999" type="curve" smooth="yes"/>
      <point x="423.99999999999994" y="836.6666666666667"/>
      <point x="411.3333333333333" y="845.0"/>
      <point x="384.3333333333333" y="845.0" type="curve" smooth="yes"/>
      <point x="360.3333333333333" y="845.0"/>
      <point x="334.33333333333337" y="837.0"/>
      <point x="316.66666666666674" y="823.0" type="curve"/>
      <point x="333.3333333333333" y="758.3333333333333"/>
      <point x="365.66666666666663" y="700.0"/>
      <point x="397.66666666666663" y="662.6666666666666" type="curve" smooth="yes"/>
      <point x="426.66666666666663" y="629.3333333333334"/>
      <point x="440.6666666666666" y="622.3333333333334"/>
      <point x="468.6666666666667" y="622.3333333333334" type="curve" smooth="yes"/>
      <point x="484.00000000000006" y="622.3333333333334"/>
      <point x="498.6666666666667" y="622.3333333333334"/>
    </contour>
  </outline>
</glyph>
<glyph name="dzcaron" format="2">
  <advance width="600.0"/>
  <unicode hex="01C6"/>
  <outline>
    <contour>
      <point x="107.66666666666669" y="558.6666666666667" type="curve" smooth="yes"/>
      <point x="54.33333333333333" y="558.6666666666667"/>
      <point x="3.3333333333333357" y="481.0"/>
      <point x="3.3333333333333357" y="215.3333333333333" type="curve" smooth="yes"/>
      <point x="3.3333333333333357" y="195.66666666666669" type="line" smooth="yes"/>
      <point x="3.3333333333333357" y="72.00000000000001"/>
      <point x="53.666666666666686" y="-10.666666666666666"/>
      <point x="103.00000000000003" y="-10.666666666666666" type="curve" smooth="yes"/>
      <point x="146.66666666666666" y="-10.666666666666666"/>
      <point x="174.66666666666663" y="33.333333333333336"/>
      <point x="187.33333333333331" y="114.0" type="curve"/>
      <point x="199.99999999999997" y="114.0" type="line"/>
      <point x="199.99999999999997" y="291.33333333333326" type="line"/>
      <point x="187.33333333333331" y="200.0"/>
      <point x="167.66666666666669" y="177.66666666666666"/>
      <point x="154.99999999999994" y="177.66666666666666" type="curve" smooth="yes"/>
      <point x="152.66666666666666" y="177.66666666666666"/>
      <point x="151.33333333333331" y="177.66666666666663"/>
      <point x="149.33333333333331" y="177.66666666666669" type="curve" smooth="yes"/>
      <point x="147.66666666666666" y="196.66666666666663"/>
      <point x="147.0" y="221.0"/>
      <point x="147.0" y="250.6666666666666" type="curve" smooth="yes"/>
      <point x="147.0" y="258.99999999999994" type="line" smooth="yes"/>
      <point x="147.0" y="378.66666666666674"/>
      <point x="149.0" y="394.0"/>
      <point x="167.66666666666663" y="394.0" type="curve" smooth="yes"/>
      <point x="179.33333333333337" y="394.0"/>
      <point x="191.33333333333331" y="389.0"/>
      <point x="201.33333333333331" y="380.0" type="curve"/>
      <point x="201.33333333333331" y="478.0" type="line"/>
      <point x="186.66666666666669" y="478.0" type="line"/>
      <point x="170.33333333333334" y="532.3333333333333"/>
      <point x="150.0" y="558.6666666666667"/>
    </contour>
    <contour>
      <point x="241.66666666666663" y="758.6666666666667" type="curve"/>
      <point x="214.33333333333337" y="758.6666666666667"/>
      <point x="191.99999999999994" y="754.3333333333333"/>
      <point x="179.66666666666666" y="750.0" type="curve"/>
      <point x="188.66666666666663" y="717.9999999999999"/>
      <point x="192.66666666666666" y="684.0000000000001"/>
      <point x="192.66666666666666" y="647.6666666666667" type="curve"/>
      <point x="192.66666666666666" y="498.33333333333337"/>
      <point x="192.66666666666666" y="324.0"/>
      <point x="192.66666666666666" y="137.33333333333334" type="curve"/>
      <point x="192.66666666666666" y="40.0"/>
      <point x="222.33333333333331" y="-7.666666666666666"/>
      <point x="285.33333333333326" y="-7.666666666666666" type="curve" smooth="yes"/>
      <point x="307.6666666666667" y="-7.666666666666666"/>
      <point x="330.66666666666663" y="-5.0"/>
      <point x="345.66666666666663" y="0.33333333333333337" type="curve"/>
      <point x="334.3333333333333" y="35.333333333333336"/>
      <point x="330.6666666666667" y="71.33333333333333"/>
      <point x="330.6666666666667" y="110.66666666666667" type="curve" smooth="yes"/>
      <point x="330.6666666666667" y="292.0"/>
      <point x="330.6666666666667" y="471.6666666666667"/>
      <point x="330.6666666666667" y="596.3333333333333" type="curve"/>
      <point x="330.6666666666667" y="717.3333333333333"/>
      <point x="300.3333333333333" y="758.6666666666667"/>
    </contour>
    <contour>
      <point x="354.00000000000006" y="546.6666666666666" type="line"/>
      <point x="351.0" y="528.0"/>
      <point x="348.6666666666667" y="507.66666666666663"/>
      <point x="348.6666666666667" y="482.6666666666667" type="curve" smooth="yes"/>
      <point x="348.6666666666667" y="382.6666666666667"/>
      <point x="365.3333333333334" y="351.3333333333333"/>
      <point x="402.66666666666663" y="351.3333333333333" type="curve" smooth="yes"/>
      <point x="469.66666666666663" y="351.3333333333333" type="line"/>
      <point x="470.3333333333333" y="345.0" type="line"/>
      <point x="460.66666666666663" y="331.3333333333333"/>
      <point x="451.00000000000006" y="317.0"/>
      <point x="440.33333333333337" y="297.3333333333333" type="curve" smooth="yes"/>
      <point x="416.66666666666674" y="251.33333333333334"/>
      <point x="388.66666666666663" y="204.0"/>
      <point x="348.6666666666667" y="153.33333333333331" type="curve"/>
      <point x="348.6666666666667" y="132.33333333333331" type="line" smooth="yes"/>
      <point x="348.6666666666667" y="26.666666666666668"/>
      <point x="368.0" y="0.0"/>
      <point x="414.0" y="0.0" type="curve" smooth="yes"/>
      <point x="593.3333333333334" y="0.0" type="line"/>
      <point x="597.3333333333333" y="22.33333333333334"/>
      <point x="600.0" y="52.666666666666664"/>
      <point x="600.0" y="82.99999999999997" type="curve" smooth="yes"/>
      <point x="600.0" y="169.66666666666663"/>
      <point x="587.3333333333333" y="195.3333333333333"/>
      <point x="546.3333333333334" y="195.3333333333333" type="curve"/>
      <point x="465.0000000000001" y="195.3333333333333" type="line"/>
      <point x="464.3333333333334" y="201.66666666666666" type="line"/>
      <point x="475.6666666666668" y="211.66666666666666"/>
      <point x="487.0000000000001" y="221.0"/>
      <point x="497.6666666666666" y="233.66666666666669" type="curve" smooth="yes"/>
      <point x="561.9999999999999" y="307.33333333333337"/>
      <point x="597.9999999999999" y="374.3333333333334"/>
      <point x="598.0" y="411.00000000000006" type="curve"/>
      <point x="598.0" y="419.0" type="line" smooth="yes"/>
      <point x="598.0" y="489.99999999999994"/>
      <point x="574.6666666666667" y="546.6666666666666"/>
      <point x="526.0" y="546.6666666666666" type="curve"/>
    </contour>
    <contour>
      <point x="508.3333333333332" y="622.3333333333334" type="curve"/>
      <point x="540.3333333333333" y="651.3333333333335"/>
      <point x="573.0" y="695.6666666666667"/>
      <point x="593.6666666666665" y="739.0" type="curve" smooth="yes"/>
      <point x="605.3333333333333" y="763.3333333333335"/>
      <point x="614.6666666666667" y="788.3333333333333"/>
      <point x="614.6666666666667" y="809.3333333333333" type="curve" smooth="yes"/>
      <point x="614.6666666666667" y="834.3333333333334"/>
      <point x="580.3333333333333" y="845.0"/>
      <point x="527.6666666666667" y="845.0" type="curve" smooth="yes"/>
      <point x="511.6666666666666" y="845.0" type="line"/>
      <point x="502.6666666666666" y="812.3333333333334"/>
      <point x="485.66666666666674" y="768.0"/>
      <point x="463.00000000000006" y="731.3333333333333" type="curve"/>
      <point x="491.3333333333333" y="749.3333333333333" type="line"/>
      <point x="448.3333333333333" y="749.3333333333333" type="line"/>
      <point x="475.00000000000006" y="733.3333333333334" type="line"/>
      <point x="456.0" y="759.6666666666666"/>
      <point x="445.33333333333337" y="783.3333333333333"/>
      <point x="436.0" y="806.9999999999999" type="curve" smooth="yes"/>
      <point x="423.99999999999994" y="836.6666666666667"/>
      <point x="411.33333333333326" y="845.0"/>
      <point x="384.3333333333333" y="845.0" type="curve" smooth="yes"/>
      <point x="360.3333333333333" y="845.0"/>
      <point x="334.33333333333326" y="837.0"/>
      <point x="316.66666666666663" y="823.0" type="curve"/>
      <point x="333.33333333333337" y="758.3333333333333"/>
      <point x="365.66666666666663" y="700.0"/>
      <point x="397.6666666666667" y="662.6666666666666" type="curve" smooth="yes"/>
      <point x="426.6666666666667" y="629.3333333333334"/>
      <point x="440.66666666666674" y="622.3333333333334"/>
      <point x="468.66666666666663" y="622.3333333333334" type="curve" smooth="yes"/>
      <point x="483.99999999999994" y="622.3333333333334"/>
      <point x="498.66666666666663" y="622.3333333333334"/>
    </contour>
  </outline>
</glyph>
<glyph name="LJ" format="2">
  <advance width="600.0"/>
  <unicode hex="01C7"/>
  <outline>
    <contour>
      <point x="125.0" y="0.0" type="curve" smooth="yes"/>
      <point x="354.3333333333333" y="0.0" type="line"/>
      <point x="367.3333333333333" y="86.0"/>
      <point x="347.33333333333337" y="196.66666666666666"/>
      <point x="282.33333333333337" y="196.66666666666666" type="curve" smooth="yes"/>
      <point x="175.66666666666666" y="196.66666666666666" type="line"/>
      <point x="175.66666666666666" y="305.66666666666663"/>
      <point x="175.66666666666666" y="502.66666666666674"/>
      <point x="175.66666666666666" y="602.6666666666667" type="curve"/>
      <point x="175.66666666666666" y="690.0"/>
      <point x="151.33333333333334" y="710.0"/>
      <point x="88.33333333333333" y="710.0" type="curve" smooth="yes"/>
      <point x="55.0" y="710.0"/>
      <point x="28.66666666666667" y="706.6666666666667"/>
      <point x="2.6666666666666696" y="700.0" type="curve"/>
      <point x="9.000000000000002" y="662.0000000000001"/>
      <point x="12.333333333333336" y="620.6666666666666"/>
      <point x="12.333333333333336" y="569.9999999999999" type="curve" smooth="yes"/>
      <point x="12.333333333333336" y="466.6666666666667"/>
      <point x="12.333333333333336" y="275.3333333333333"/>
      <point x="12.333333333333336" y="156.33333333333331" type="curve" smooth="yes"/>
      <point x="12.333333333333336" y="65.33333333333333"/>
      <point x="51.666666666666664" y="0.0"/>
    </contour>
    <contour>
      <point x="264.0" y="274.3333333333333" type="curve"/>
      <point x="262.66666666666663" y="181.33333333333334"/>
      <point x="261.3333333333333" y="103.33333333333333"/>
      <point x="261.3333333333333" y="48.00000000000001" type="curve" smooth="yes"/>
      <point x="261.3333333333333" y="-2.666666666666667"/>
      <point x="286.66666666666674" y="-26.333333333333336"/>
      <point x="372.0" y="-26.333333333333332" type="curve"/>
      <point x="387.66666666666663" y="34.33333333333333"/>
      <point x="399.66666666666663" y="110.66666666666666"/>
      <point x="399.66666666666663" y="207.0" type="curve" smooth="yes"/>
      <point x="399.66666666666663" y="268.33333333333326"/>
      <point x="382.6666666666667" y="284.3333333333333"/>
      <point x="346.66666666666663" y="284.3333333333333" type="curve" smooth="yes"/>
      <point x="316.33333333333337" y="284.3333333333333"/>
      <point x="285.0" y="280.99999999999994"/>
    </contour>
    <contour>
      <point x="310.66666666666663" y="-93.33333333333334" type="curve"/>
      <point x="330.33333333333337" y="-121.0"/>
      <point x="368.66666666666663" y="-135.66666666666669"/>
      <point x="418.33333333333326" y="-135.66666666666669" type="curve" smooth="yes"/>
      <point x="460.66666666666663" y="-135.66666666666669"/>
      <point x="500.9999999999999" y="-125.33333333333333"/>
      <point x="539.3333333333334" y="-94.66666666666664" type="curve" smooth="yes"/>
      <point x="581.0000000000001" y="-61.33333333333332"/>
      <point x="600.0" y="-3.666666666666666"/>
      <point x="600.0" y="122.66666666666667" type="curve" smooth="yes"/>
      <point x="600.0" y="281.0"/>
      <point x="600.0" y="498.3333333333333"/>
      <point x="600.0" y="596.6666666666666" type="curve"/>
      <point x="600.0" y="671.6666666666666"/>
      <point x="549.9999999999999" y="710.0"/>
      <point x="457.33333333333326" y="710.0" type="curve" smooth="yes"/>
      <point x="410.0" y="710.0"/>
      <point x="362.3333333333333" y="705.6666666666666"/>
      <point x="317.99999999999994" y="700.0" type="curve"/>
      <point x="314.0" y="680.0000000000001"/>
      <point x="311.3333333333333" y="653.6666666666667"/>
      <point x="311.3333333333333" y="627.0" type="curve" smooth="yes"/>
      <point x="311.3333333333333" y="541.6666666666666"/>
      <point x="332.66666666666663" y="506.6666666666667"/>
      <point x="365.3333333333333" y="506.6666666666667" type="curve" smooth="yes"/>
      <point x="393.3333333333333" y="506.6666666666667"/>
      <point x="417.6666666666667" y="518.6666666666666"/>
      <point x="449.33333333333337" y="553.3333333333333" type="curve"/>
      <point x="422.3333333333333" y="551.3333333333334" type="line"/>
      <point x="463.66666666666674" y="524.3333333333334" type="line"/>
      <point x="443.3333333333333" y="567.6666666666666" type="line"/>
      <point x="443.3333333333333" y="449.0"/>
      <point x="443.3333333333333" y="261.6666666666667"/>
      <point x="443.3333333333333" y="135.0" type="curve" smooth="yes"/>
      <point x="443.3333333333333" y="-3.3333333333333286"/>
      <point x="406.00000000000006" y="-55.33333333333332"/>
    </contour>
  </outline>
</glyph>
<glyph name="NJ" format="2">
  <advance width="600.0"/>
  <unicode hex="01CA"/>
  <outline>
    <contour>
      <point x="157.66666666666666" y="-2.220446049250313e-16" type="curve"/>
      <point x="157.66666666666666" y="22.66666666666667"/>
      <point x="157.66666666666666" y="44.333333333333336"/>
      <point x="157.66666666666666" y="66.33333333333334" type="curve"/>
      <point x="157.66666666666666" y="158.99999999999997"/>
      <point x="144.66666666666663" y="260.33333333333337"/>
      <point x="115.99999999999997" y="409.33333333333337" type="curve"/>
      <point x="100.66666666666667" y="394.00000000000006" type="line"/>
      <point x="142.66666666666666" y="394.00000000000006" type="line"/>
      <point x="122.33333333333333" y="408.33333333333337" type="line"/>
      <point x="162.99999999999997" y="212.33333333333334"/>
      <point x="204.0" y="85.0"/>
      <point x="238.33333333333331" y="34.00000000000001" type="curve" smooth="yes"/>
      <point x="258.33333333333337" y="2.9999999999999996"/>
      <point x="281.6666666666667" y="-7.333333333333334"/>
      <point x="330.6666666666667" y="-7.333333333333334" type="curve" smooth="yes"/>
      <point x="346.0" y="-7.333333333333334"/>
      <point x="362.3333333333333" y="-4.666666666666668"/>
      <point x="378.33333333333337" y="0.0" type="curve"/>
      <point x="374.0" y="23.000000000000004"/>
      <point x="372.0" y="47.66666666666667"/>
      <point x="372.0" y="71.33333333333334" type="curve"/>
      <point x="372.0" y="252.0"/>
      <point x="372.0" y="432.0"/>
      <point x="372.0" y="623.3333333333333" type="curve"/>
      <point x="372.0" y="679.6666666666667"/>
      <point x="349.33333333333337" y="709.3333333333334"/>
      <point x="288.66666666666663" y="709.3333333333334" type="curve"/>
      <point x="258.00000000000006" y="709.3333333333334"/>
      <point x="233.00000000000003" y="705.6666666666666"/>
      <point x="216.33333333333337" y="700.0" type="curve"/>
      <point x="216.33333333333337" y="672.0"/>
      <point x="216.33333333333337" y="633.0"/>
      <point x="216.33333333333337" y="596.0" type="curve"/>
      <point x="216.33333333333337" y="486.00000000000006"/>
      <point x="228.33333333333337" y="386.0"/>
      <point x="256.6666666666667" y="261.33333333333337" type="curve"/>
      <point x="276.3333333333333" y="274.3333333333333" type="line"/>
      <point x="234.66666666666666" y="274.3333333333333" type="line"/>
      <point x="254.33333333333334" y="255.66666666666669" type="line"/>
      <point x="218.0" y="356.00000000000006"/>
      <point x="195.3333333333333" y="471.3333333333333"/>
      <point x="174.66666666666669" y="614.3333333333333" type="curve" smooth="yes"/>
      <point x="164.66666666666666" y="685.6666666666665"/>
      <point x="141.33333333333331" y="709.3333333333334"/>
      <point x="80.00000000000001" y="709.3333333333334" type="curve" smooth="yes"/>
      <point x="45.999999999999986" y="709.3333333333334"/>
      <point x="22.33333333333333" y="707.0"/>
      <point x="-7.333333333333331" y="700.0" type="curve"/>
      <point x="-0.33333333333332993" y="662.6666666666666"/>
      <point x="3.3333333333333357" y="621.3333333333333"/>
      <point x="3.3333333333333357" y="570.0000000000001" type="curve"/>
      <point x="3.3333333333333357" y="415.6666666666667"/>
      <point x="3.3333333333333357" y="260.0"/>
      <point x="3.3333333333333357" y="105.66666666666667" type="curve"/>
      <point x="3.3333333333333357" y="22.333333333333336"/>
      <point x="22.66666666666668" y="-6.333333333333334"/>
      <point x="94.66666666666667" y="-6.333333333333334" type="curve"/>
      <point x="114.33333333333331" y="-6.333333333333334"/>
      <point x="142.66666666666666" y="-4.0"/>
    </contour>
    <contour>
      <point x="310.66666666666663" y="-93.33333333333334" type="curve"/>
      <point x="330.33333333333337" y="-121.0"/>
      <point x="368.66666666666663" y="-135.66666666666669"/>
      <point x="418.3333333333333" y="-135.66666666666669" type="curve" smooth="yes"/>
      <point x="460.66666666666663" y="-135.66666666666669"/>
      <point x="500.9999999999999" y="-125.33333333333331"/>
      <point x="539.3333333333333" y="-94.66666666666664" type="curve" smooth="yes"/>
      <point x="581.0000000000001" y="-61.33333333333332"/>
      <point x="600.0" y="-3.6666666666666607"/>
      <point x="600.0" y="122.66666666666666" type="curve" smooth="yes"/>
      <point x="600.0" y="281.0"/>
      <point x="600.0" y="498.3333333333333"/>
      <point x="600.0" y="596.6666666666666" type="curve" smooth="yes"/>
      <point x="600.0" y="671.6666666666666"/>
      <point x="550.0000000000001" y="710.0"/>
      <point x="476.0000000000001" y="710.0" type="curve" smooth="yes"/>
      <point x="423.99999999999994" y="710.0"/>
      <point x="387.0" y="705.6666666666666"/>
      <point x="351.3333333333333" y="700.0" type="curve"/>
      <point x="348.0" y="679.3333333333335"/>
      <point x="341.33333333333337" y="653.6666666666667"/>
      <point x="341.33333333333337" y="603.6666666666666" type="curve" smooth="yes"/>
      <point x="341.33333333333337" y="536.3333333333333"/>
      <point x="358.00000000000006" y="518.6666666666666"/>
      <point x="383.3333333333333" y="518.6666666666666" type="curve" smooth="yes"/>
      <point x="404.6666666666667" y="518.6666666666666"/>
      <point x="428.33333333333326" y="530.0"/>
      <point x="449.3333333333333" y="553.3333333333333" type="curve"/>
      <point x="422.3333333333333" y="551.3333333333334" type="line"/>
      <point x="463.66666666666663" y="524.3333333333334" type="line"/>
      <point x="443.3333333333333" y="567.6666666666666" type="line"/>
      <point x="443.3333333333333" y="449.0"/>
      <point x="443.3333333333333" y="261.6666666666667"/>
      <point x="443.3333333333333" y="135.0" type="curve" smooth="yes"/>
      <point x="443.3333333333333" y="-3.3333333333333286"/>
      <point x="406.00000000000006" y="-55.33333333333333"/>
    </contour>
  </outline>
</glyph>
<glyph name="Nj" format="2">
  <advance width="600.0"/>
  <unicode hex="01CB"/>
  <outline>
    <contour>
      <point x="152.33333333333331" y="-2.220446049250313e-16" type="curve"/>
      <point x="152.33333333333331" y="22.66666666666667"/>
      <point x="152.33333333333331" y="38.333333333333336"/>
      <point x="152.33333333333331" y="60.33333333333335" type="curve"/>
      <point x="152.33333333333331" y="128.99999999999997"/>
      <point x="138.66666666666663" y="233.00000000000006"/>
      <point x="107.33333333333331" y="409.33333333333337" type="curve"/>
      <point x="92.66666666666669" y="394.00000000000006" type="line"/>
      <point x="132.66666666666666" y="394.00000000000006" type="line"/>
      <point x="113.0" y="408.33333333333337" type="line"/>
      <point x="151.0" y="212.33333333333334"/>
      <point x="188.66666666666666" y="85.0"/>
      <point x="220.33333333333331" y="34.00000000000001" type="curve" smooth="yes"/>
      <point x="239.00000000000009" y="2.9999999999999996"/>
      <point x="261.0" y="-7.333333333333334"/>
      <point x="306.6666666666667" y="-7.333333333333334" type="curve" smooth="yes"/>
      <point x="321.3333333333333" y="-7.333333333333334"/>
      <point x="336.33333333333326" y="-4.666666666666668"/>
      <point x="351.66666666666663" y="0.0" type="curve"/>
      <point x="347.3333333333333" y="23.000000000000004"/>
      <point x="345.3333333333333" y="47.66666666666667"/>
      <point x="345.3333333333333" y="71.33333333333334" type="curve"/>
      <point x="345.3333333333333" y="252.0"/>
      <point x="345.3333333333333" y="432.0"/>
      <point x="345.3333333333333" y="623.3333333333333" type="curve"/>
      <point x="345.3333333333333" y="679.6666666666667"/>
      <point x="324.66666666666674" y="709.3333333333334"/>
      <point x="268.0" y="709.3333333333334" type="curve"/>
      <point x="240.00000000000006" y="709.3333333333334"/>
      <point x="209.66666666666669" y="705.6666666666666"/>
      <point x="194.33333333333331" y="700.0" type="curve"/>
      <point x="194.33333333333331" y="672.0"/>
      <point x="194.33333333333331" y="646.3333333333333"/>
      <point x="194.33333333333331" y="609.3333333333334" type="curve"/>
      <point x="194.33333333333331" y="499.33333333333337"/>
      <point x="212.33333333333337" y="386.0"/>
      <point x="238.66666666666674" y="261.33333333333337" type="curve"/>
      <point x="257.6666666666667" y="274.3333333333333" type="line"/>
      <point x="217.33333333333331" y="274.3333333333333" type="line"/>
      <point x="236.33333333333331" y="255.66666666666669" type="line"/>
      <point x="202.66666666666663" y="356.00000000000006"/>
      <point x="181.33333333333331" y="471.33333333333337"/>
      <point x="162.00000000000006" y="614.3333333333333" type="curve" smooth="yes"/>
      <point x="152.66666666666669" y="685.6666666666665"/>
      <point x="131.33333333333331" y="709.3333333333334"/>
      <point x="74.00000000000001" y="709.3333333333334" type="curve" smooth="yes"/>
      <point x="41.99999999999999" y="709.3333333333334"/>
      <point x="20.333333333333332" y="707.0"/>
      <point x="-7.333333333333331" y="700.0" type="curve"/>
      <point x="-0.9999999999999969" y="662.6666666666666"/>
      <point x="2.6666666666666696" y="621.3333333333333"/>
      <point x="2.6666666666666696" y="570.0000000000001" type="curve"/>
      <point x="2.6666666666666696" y="415.6666666666667"/>
      <point x="2.6666666666666696" y="260.0"/>
      <point x="2.6666666666666696" y="105.66666666666667" type="curve"/>
      <point x="2.6666666666666696" y="22.333333333333336"/>
      <point x="20.66666666666668" y="-6.333333333333334"/>
      <point x="87.33333333333334" y="-6.333333333333334" type="curve"/>
      <point x="105.66666666666666" y="-6.333333333333334"/>
      <point x="138.66666666666666" y="-4.0"/>
    </contour>
    <contour>
      <point x="484.6666666666668" y="556.6666666666666" type="curve" smooth="yes"/>
      <point x="446.0" y="556.6666666666666"/>
      <point x="409.0" y="553.3333333333333"/>
      <point x="369.33333333333337" y="546.6666666666666" type="curve"/>
      <point x="364.00000000000006" y="526.3333333333333"/>
      <point x="360.0" y="495.00000000000006"/>
      <point x="360.0" y="457.3333333333333" type="curve" smooth="yes"/>
      <point x="360.0" y="380.3333333333334"/>
      <point x="369.00000000000006" y="361.66666666666663"/>
      <point x="387.33333333333337" y="361.66666666666663" type="curve" smooth="yes"/>
      <point x="400.0" y="361.66666666666663"/>
      <point x="414.66666666666663" y="366.66666666666663"/>
      <point x="432.66666666666674" y="382.0" type="curve"/>
      <point x="438.6666666666667" y="377.33333333333337" type="line"/>
      <point x="438.6666666666667" y="267.0"/>
      <point x="438.6666666666667" y="160.33333333333331"/>
      <point x="438.6666666666667" y="49.99999999999997" type="curve" smooth="yes"/>
      <point x="438.6666666666667" y="6.999999999999989"/>
      <point x="438.3333333333333" y="-40.66666666666668"/>
      <point x="436.66666666666674" y="-65.66666666666669" type="curve"/>
      <point x="424.33333333333337" y="-68.33333333333334"/>
      <point x="408.9999999999999" y="-70.0"/>
      <point x="389.99999999999994" y="-70.0" type="curve" smooth="yes"/>
      <point x="355.00000000000006" y="-70.0"/>
      <point x="330.6666666666667" y="-66.33333333333333"/>
      <point x="299.6666666666666" y="-57.333333333333336" type="curve"/>
      <point x="293.66666666666663" y="-57.333333333333336" type="line"/>
      <point x="288.6666666666666" y="-82.0"/>
      <point x="286.99999999999994" y="-101.33333333333336"/>
      <point x="286.99999999999994" y="-128.00000000000003" type="curve" smooth="yes"/>
      <point x="286.99999999999994" y="-172.66666666666669"/>
      <point x="297.66666666666663" y="-200.00000000000003"/>
      <point x="317.66666666666663" y="-220.0" type="curve" smooth="yes"/>
      <point x="335.99999999999994" y="-238.33333333333334"/>
      <point x="367.33333333333337" y="-250.00000000000003"/>
      <point x="415.00000000000006" y="-250.00000000000003" type="curve" smooth="yes"/>
      <point x="531.3333333333333" y="-250.00000000000003"/>
      <point x="596.6666666666666" y="-133.00000000000003"/>
      <point x="596.6666666666666" y="9.99999999999999" type="curve" smooth="yes"/>
      <point x="596.6666666666666" y="188.00000000000003"/>
      <point x="596.6666666666666" y="305.0"/>
      <point x="596.6666666666666" y="474.99999999999994" type="curve" smooth="yes"/>
      <point x="596.6666666666666" y="516.3333333333334"/>
      <point x="553.9999999999999" y="556.6666666666666"/>
    </contour>
    <contour>
      <point x="385.3333333333334" y="781.0" type="curve"/>
      <point x="385.3333333333334" y="705.0" type="line" smooth="yes"/>
      <point x="385.3333333333334" y="647.0"/>
      <point x="439.33333333333337" y="623.0"/>
      <point x="519.9999999999999" y="623.0" type="curve" smooth="yes"/>
      <point x="553.9999999999999" y="623.0"/>
      <point x="584.9999999999999" y="629.0"/>
      <point x="618.6666666666665" y="640.6666666666666" type="curve"/>
      <point x="618.6666666666665" y="716.6666666666667" type="line" smooth="yes"/>
      <point x="618.6666666666665" y="774.6666666666666"/>
      <point x="568.9999999999998" y="793.3333333333333"/>
      <point x="490.6666666666667" y="793.3333333333333" type="curve" smooth="yes"/>
      <point x="455.66666666666674" y="793.3333333333333"/>
      <point x="419.00000000000006" y="788.3333333333333"/>
    </contour>
  </outline>
</glyph>
<glyph name="nj" format="2">
  <advance width="600.0"/>
  <unicode hex="01CC"/>
  <outline>
    <contour>
      <point x="484.6666666666666" y="556.6666666666666" type="curve" smooth="yes"/>
      <point x="446.0" y="556.6666666666666"/>
      <point x="408.33333333333337" y="553.6666666666666"/>
      <point x="365.6666666666666" y="546.6666666666666" type="curve"/>
      <point x="360.33333333333326" y="526.3333333333333"/>
      <point x="356.33333333333326" y="495.00000000000006"/>
      <point x="356.33333333333326" y="457.3333333333333" type="curve" smooth="yes"/>
      <point x="356.33333333333326" y="380.3333333333334"/>
      <point x="369.00000000000006" y="361.66666666666663"/>
      <point x="387.33333333333326" y="361.66666666666663" type="curve" smooth="yes"/>
      <point x="400.00000000000006" y="361.66666666666663"/>
      <point x="414.66666666666663" y="366.66666666666663"/>
      <point x="432.6666666666667" y="382.0" type="curve"/>
      <point x="438.66666666666663" y="377.33333333333337" type="line"/>
      <point x="438.66666666666663" y="267.0"/>
      <point x="438.66666666666663" y="160.33333333333331"/>
      <point x="438.66666666666663" y="49.99999999999997" type="curve" smooth="yes"/>
      <point x="438.66666666666663" y="6.999999999999989"/>
      <point x="438.3333333333333" y="-40.66666666666668"/>
      <point x="436.66666666666674" y="-65.66666666666669" type="curve"/>
      <point x="424.33333333333337" y="-68.33333333333334"/>
      <point x="409.0" y="-70.0"/>
      <point x="389.99999999999994" y="-70.0" type="curve" smooth="yes"/>
      <point x="354.99999999999994" y="-70.0"/>
      <point x="330.6666666666667" y="-66.33333333333333"/>
      <point x="299.6666666666667" y="-57.333333333333336" type="curve"/>
      <point x="293.6666666666667" y="-57.333333333333336" type="line"/>
      <point x="288.6666666666667" y="-82.0"/>
      <point x="287.0" y="-101.33333333333336"/>
      <point x="287.0" y="-128.00000000000003" type="curve" smooth="yes"/>
      <point x="287.0" y="-172.66666666666669"/>
      <point x="297.6666666666667" y="-200.00000000000003"/>
      <point x="317.66666666666674" y="-220.0" type="curve" smooth="yes"/>
      <point x="336.00000000000006" y="-238.33333333333334"/>
      <point x="367.3333333333333" y="-250.00000000000003"/>
      <point x="415.0" y="-250.00000000000003" type="curve" smooth="yes"/>
      <point x="531.3333333333335" y="-250.00000000000003"/>
      <point x="596.6666666666666" y="-133.00000000000003"/>
      <point x="596.6666666666666" y="9.99999999999999" type="curve" smooth="yes"/>
      <point x="596.6666666666666" y="188.00000000000003"/>
      <point x="596.6666666666666" y="305.0"/>
      <point x="596.6666666666666" y="474.99999999999994" type="curve" smooth="yes"/>
      <point x="596.6666666666666" y="516.3333333333334"/>
      <point x="554.0" y="556.6666666666666"/>
    </contour>
    <contour>
      <point x="385.3333333333333" y="781.0" type="curve"/>
      <point x="385.3333333333333" y="705.0" type="line" smooth="yes"/>
      <point x="385.3333333333333" y="647.0"/>
      <point x="439.3333333333334" y="623.0"/>
      <point x="520.0" y="623.0" type="curve" smooth="yes"/>
      <point x="554.0" y="623.0"/>
      <point x="585.0" y="629.0"/>
      <point x="618.6666666666667" y="640.6666666666666" type="curve"/>
      <point x="618.6666666666667" y="716.6666666666667" type="line" smooth="yes"/>
      <point x="618.6666666666667" y="774.6666666666666"/>
      <point x="569.0000000000001" y="793.3333333333333"/>
      <point x="490.6666666666667" y="793.3333333333333" type="curve" smooth="yes"/>
      <point x="455.6666666666667" y="793.3333333333333"/>
      <point x="419.0" y="788.3333333333333"/>
    </contour>
    <contour>
      <point x="362.66666666666663" y="0.0" type="curve"/>
      <point x="353.3333333333333" y="44.333333333333336"/>
      <point x="350.3333333333333" y="87.66666666666669"/>
      <point x="350.3333333333333" y="146.33333333333334" type="curve" smooth="yes"/>
      <point x="350.3333333333333" y="219.33333333333334"/>
      <point x="350.3333333333333" y="292.3333333333333"/>
      <point x="350.3333333333333" y="365.3333333333333" type="curve" smooth="yes"/>
      <point x="350.3333333333333" y="450.33333333333337"/>
      <point x="316.0" y="560.0"/>
      <point x="261.0" y="560.0" type="curve"/>
      <point x="215.66666666666663" y="560.0"/>
      <point x="184.0" y="517.3333333333333"/>
      <point x="158.0" y="425.0" type="curve"/>
      <point x="137.00000000000003" y="425.0" type="line"/>
      <point x="143.00000000000003" y="228.66666666666666" type="line"/>
      <point x="161.99999999999997" y="341.33333333333337"/>
      <point x="177.66666666666669" y="364.33333333333337"/>
      <point x="203.0" y="364.33333333333337" type="curve" smooth="yes"/>
      <point x="208.99999999999997" y="364.33333333333337"/>
      <point x="213.99999999999997" y="363.66666666666663"/>
      <point x="218.00000000000003" y="361.66666666666663" type="curve" smooth="yes"/>
      <point x="202.33333333333334" y="262.0"/>
      <point x="192.33333333333334" y="181.0"/>
      <point x="192.33333333333334" y="121.66666666666666" type="curve" smooth="yes"/>
      <point x="192.33333333333334" y="23.333333333333336"/>
      <point x="237.33333333333337" y="-8.666666666666666"/>
      <point x="301.33333333333337" y="-8.666666666666666" type="curve" smooth="yes"/>
      <point x="325.0" y="-8.666666666666666"/>
      <point x="341.6666666666667" y="-5.999999999999999"/>
    </contour>
    <contour>
      <point x="151.0" y="-4.440892098500626e-16" type="curve"/>
      <point x="151.0" y="133.33333333333334"/>
      <point x="151.0" y="277.6666666666667"/>
      <point x="151.0" y="419.0" type="curve" smooth="yes"/>
      <point x="151.0" y="515.3333333333334"/>
      <point x="112.66666666666666" y="555.3333333333333"/>
      <point x="46.999999999999986" y="555.3333333333333" type="curve"/>
      <point x="27.33333333333335" y="555.3333333333333"/>
      <point x="9.666666666666675" y="552.3333333333334"/>
      <point x="-9.333333333333321" y="546.6666666666666" type="curve"/>
      <point x="-0.6666666666666501" y="513.3333333333334"/>
      <point x="3.6666666666666785" y="469.3333333333333"/>
      <point x="3.6666666666666785" y="420.33333333333326" type="curve" smooth="yes"/>
      <point x="3.6666666666666785" y="309.33333333333326"/>
      <point x="3.6666666666666785" y="198.66666666666666"/>
      <point x="3.6666666666666785" y="98.0" type="curve" smooth="yes"/>
      <point x="3.6666666666666785" y="22.666666666666664"/>
      <point x="31.33333333333335" y="-5.666666666666666"/>
      <point x="96.33333333333336" y="-5.666666666666666" type="curve" smooth="yes"/>
      <point x="113.33333333333334" y="-5.666666666666666"/>
      <point x="135.33333333333337" y="-4.333333333333333"/>
    </contour>
  </outline>
</glyph>
<glyph name="nhookleft" format="2">
  <advance width="600.0"/>
  <unicode hex="0272"/>
  <outline>
    <contour>
      <point x="7.66666666666667" y="-51.666666666666664" type="curve" smooth="yes"/>
      <point x="-9.666666666666664" y="-51.666666666666664"/>
      <point x="-21.999999999999993" y="-48.0"/>
      <point x="-39.66666666666667" y="-41.0" type="curve"/>
      <point x="-43.666666666666664" y="-41.0" type="line"/>
      <point x="-48.0" y="-65.00000000000001"/>
      <point x="-49.666666666666664" y="-87.33333333333331"/>
      <point x="-49.666666666666664" y="-110.66666666666666" type="curve" smooth="yes"/>
      <point x="-49.666666666666664" y="-164.30330330333334"/>
      <point x="-39.793355844666664" y="-199.873310822"/>
      <point x="-18.666666666666664" y="-221.0" type="curve" smooth="yes"/>
      <point x="-8.0" y="-231.66666666666666"/>
      <point x="5.666666666666666" y="-237.66666666666669"/>
      <point x="28.333333333333336" y="-237.66666666666669" type="curve" smooth="yes"/>
      <point x="34.333333333333336" y="-237.66666666666669" type="line" smooth="yes"/>
      <point x="152.12068965516664" y="-237.66666666666669"/>
      <point x="244.66666666666666" y="-142.66666666666666"/>
      <point x="244.66666666666666" y="-10.0" type="curve" smooth="yes"/>
      <point x="244.66666666666666" y="10.0" type="line" smooth="yes"/>
      <point x="244.66666666666666" y="31.333333333333332"/>
      <point x="127.44047619046665" y="95.66666666666666"/>
      <point x="46.333333333333336" y="95.66666666666666" type="curve"/>
      <point x="46.333333333333336" y="5.333333333333339" type="line" smooth="yes"/>
      <point x="46.333333333333336" y="-32.88888888886667"/>
      <point x="33.00000000000001" y="-51.666666666666664"/>
    </contour>
    <component base="n"/>
  </outline>
</glyph>
<glyph name="ringhalfleftmod" format="2">
  <advance width="600.0"/>
  <unicode hex="02BF"/>
  <outline>
    <contour>
      <point x="359.66666666666663" y="592.0" type="curve" smooth="yes"/>
      <point x="375.33333333333337" y="592.0"/>
      <point x="382.0" y="599.6666666666666"/>
      <point x="382.0" y="617.3333333333333" type="curve" smooth="yes"/>
      <point x="382.0" y="642.3333333333333"/>
      <point x="378.33333333333326" y="665.6666666666667"/>
      <point x="368.0" y="698.6666666666667" type="curve"/>
      <point x="352.66666666666663" y="698.6666666666667"/>
      <point x="339.0" y="701.3333333333334"/>
      <point x="326.66666666666663" y="711.0" type="curve"/>
      <point x="325.0" y="718.0"/>
      <point x="323.9999999999999" y="725.0"/>
      <point x="323.9999999999999" y="733.0000000000001" type="curve" smooth="yes"/>
      <point x="323.9999999999999" y="740.0" type="line" smooth="yes"/>
      <point x="323.9999999999999" y="771.6666666666666"/>
      <point x="341.66666666666663" y="790.9999999999999"/>
      <point x="373.0" y="790.9999999999999" type="curve" smooth="yes"/>
      <point x="383.0" y="790.9999999999999"/>
      <point x="386.0" y="796.3333333333334"/>
      <point x="386.0" y="811.6666666666666" type="curve" smooth="yes"/>
      <point x="386.0" y="830.3333333333334"/>
      <point x="382.66666666666663" y="849.0"/>
      <point x="373.0" y="868.0" type="curve"/>
      <point x="272.33333333333337" y="868.0"/>
      <point x="210.33333333333337" y="803.3333333333334"/>
      <point x="210.33333333333337" y="723.0" type="curve" smooth="yes"/>
      <point x="210.33333333333337" y="715.9999999999999" type="line" smooth="yes"/>
      <point x="210.33333333333337" y="642.0000000000001"/>
      <point x="269.0" y="592.0"/>
    </contour>
  </outline>
</glyph>
<glyph name="verticallinemod" format="2">
  <advance width="600.0"/>
  <unicode hex="02C8"/>
  <outline>
    <contour>
      <point x="406.0" y="450.0" type="curve"/>
      <point x="406.0" y="686.0" type="line" smooth="yes"/>
      <point x="406.0" y="741.0"/>
      <point x="379.3333333333333" y="757.3333333333334"/>
      <point x="296.3333333333333" y="757.3333333333334" type="curve" smooth="yes"/>
      <point x="254.66666666666669" y="757.3333333333334"/>
      <point x="215.33333333333334" y="754.0"/>
      <point x="183.33333333333331" y="750.0" type="curve"/>
      <point x="187.33333333333331" y="734.0"/>
      <point x="193.33333333333331" y="701.6666666666666"/>
      <point x="193.33333333333331" y="657.6666666666666" type="curve" smooth="yes"/>
      <point x="193.33333333333331" y="509.6666666666667" type="line" smooth="yes"/>
      <point x="193.33333333333331" y="451.0"/>
      <point x="222.33333333333331" y="440.0"/>
      <point x="306.99999999999994" y="440.0" type="curve" smooth="yes"/>
      <point x="342.99999999999994" y="440.0"/>
      <point x="377.6666666666666" y="442.6666666666667"/>
    </contour>
  </outline>
</glyph>
<glyph name="dieresiscomb" format="2">
  <unicode hex="0308"/>
  <anchor x="0.0" y="549.0" name="_top"/>
  <anchor x="0.0" y="744.0" name="top"/>
  <outline>
    <contour>
      <point x="-201.33333333333331" y="764.3333333333334" type="curve"/>
      <point x="-201.33333333333331" y="660.0" type="line" smooth="yes"/>
      <point x="-201.33333333333331" y="616.0"/>
      <point x="-152.33333333333331" y="609.0"/>
      <point x="-110.33333333333333" y="609.0" type="curve" smooth="yes"/>
      <point x="-87.33333333333333" y="609.0"/>
      <point x="-57.0" y="609.6666666666666"/>
      <point x="-32.0" y="615.6666666666667" type="curve"/>
      <point x="-32.0" y="721.0" type="line" smooth="yes"/>
      <point x="-32.0" y="765.0"/>
      <point x="-80.99999999999999" y="770.0"/>
      <point x="-124.0" y="770.0" type="curve" smooth="yes"/>
      <point x="-146.0" y="770.0"/>
      <point x="-175.66666666666666" y="768.3333333333334"/>
    </contour>
    <contour>
      <point x="32.0" y="764.3333333333334" type="curve"/>
      <point x="32.0" y="660.0" type="line" smooth="yes"/>
      <point x="32.0" y="616.0"/>
      <point x="81.0" y="609.0"/>
      <point x="123.0" y="609.0" type="curve" smooth="yes"/>
      <point x="146.0" y="609.0"/>
      <point x="176.33333333333331" y="609.6666666666666"/>
      <point x="201.33333333333331" y="615.6666666666667" type="curve"/>
      <point x="201.33333333333331" y="721.0" type="line" smooth="yes"/>
      <point x="201.33333333333331" y="765.0"/>
      <point x="152.33333333333331" y="770.0"/>
      <point x="109.33333333333331" y="770.0" type="curve" smooth="yes"/>
      <point x="87.33333333333333" y="770.0"/>
      <point x="57.666666666666664" y="768.3333333333334"/>
    </contour>
  </outline>
</glyph>
<glyph name="quoteleft" format="2">
  <advance width="600.0"/>
  <unicode hex="2018"/>
  <outline>
    <contour>
      <point x="320.0" y="754.6666666666667" type="curve" smooth="yes"/>
      <point x="289.6666666666667" y="754.6666666666667"/>
      <point x="273.0" y="747.3333333333334"/>
      <point x="253.33333333333337" y="724.3333333333334" type="curve" smooth="yes"/>
      <point x="215.99999999999997" y="681.0"/>
      <point x="187.33333333333331" y="581.3333333333334"/>
      <point x="187.33333333333331" y="516.0" type="curve" smooth="yes"/>
      <point x="187.33333333333331" y="451.33333333333337"/>
      <point x="217.66666666666666" y="432.6666666666667"/>
      <point x="314.6666666666667" y="432.6666666666667" type="curve" smooth="yes"/>
      <point x="344.33333333333337" y="432.6666666666667"/>
      <point x="364.0" y="434.6666666666667"/>
      <point x="401.00000000000006" y="439.0" type="curve"/>
      <point x="402.33333333333337" y="553.3333333333334"/>
      <point x="421.6666666666667" y="643.0000000000001"/>
      <point x="458.6666666666667" y="722.3333333333333" type="curve"/>
      <point x="414.00000000000006" y="746.0"/>
      <point x="366.66666666666674" y="754.6666666666667"/>
    </contour>
  </outline>
</glyph>
<glyph name="ellipsis" format="2">
  <advance width="600.0"/>
  <unicode hex="2026"/>
  <outline>
    <contour>
      <point x="169.33333333333331" y="-7.666666666666665" type="curve"/>
      <point x="169.33333333333331" y="153.33333333333331" type="line" smooth="yes"/>
      <point x="169.33333333333331" y="216.33333333333331"/>
      <point x="128.87499999999997" y="225.33333333333331"/>
      <point x="84.0" y="225.33333333333331" type="curve"/>
      <point x="66.9658119658" y="225.33333333333331"/>
      <point x="44.925466735300006" y="222.33474134429997"/>
      <point x="26.0" y="219.33333333333331" type="curve"/>
      <point x="26.0" y="58.333333333333336" type="line" smooth="yes"/>
      <point x="26.0" y="-4.666666666666667"/>
      <point x="66.45833333333333" y="-13.666666666666668"/>
      <point x="111.33333333333334" y="-13.666666666666668" type="curve" smooth="yes"/>
      <point x="128.36752136753333" y="-13.666666666666668"/>
      <point x="150.40786659803337" y="-10.668074677633332"/>
    </contour>
    <contour>
      <point x="371.66666666666663" y="-7.666666666666665" type="curve"/>
      <point x="371.66666666666663" y="153.33333333333331" type="line" smooth="yes"/>
      <point x="371.66666666666663" y="216.33333333333331"/>
      <point x="329.4375" y="225.33333333333331"/>
      <point x="286.3333333333333" y="225.33333333333331" type="curve"/>
      <point x="269.2991452991334" y="225.33333333333331"/>
      <point x="247.25880006863335" y="222.33474134429997"/>
      <point x="228.33333333333331" y="219.33333333333331" type="curve"/>
      <point x="228.33333333333331" y="58.333333333333336" type="line" smooth="yes"/>
      <point x="228.33333333333331" y="-4.666666666666667"/>
      <point x="268.7916666666667" y="-13.666666666666668"/>
      <point x="313.6666666666667" y="-13.666666666666668" type="curve" smooth="yes"/>
      <point x="330.7008547008666" y="-13.666666666666668"/>
      <point x="352.7411999313667" y="-10.668074677633332"/>
    </contour>
    <contour>
      <point x="574.0" y="-7.666666666666665" type="curve"/>
      <point x="574.0" y="153.33333333333331" type="line" smooth="yes"/>
      <point x="574.0" y="216.33333333333331"/>
      <point x="532.6666666666667" y="225.33333333333331"/>
      <point x="489.6666666666667" y="225.33333333333331" type="curve"/>
      <point x="472.6666666666667" y="225.33333333333331"/>
      <point x="450.6666666666667" y="222.33333333333331"/>
      <point x="431.66666666666663" y="219.33333333333331" type="curve"/>
      <point x="431.66666666666663" y="58.333333333333336" type="line" smooth="yes"/>
      <point x="431.66666666666663" y="-4.666666666666667"/>
      <point x="473.0" y="-13.666666666666668"/>
      <point x="516.0" y="-13.666666666666668" type="curve" smooth="yes"/>
      <point x="532.9999999999999" y="-13.666666666666668"/>
      <point x="555.0" y="-10.666666666666664"/>
    </contour>
  </outline>
</glyph>
<glyph name="second" format="2">
  <advance width="600.0"/>
  <unicode hex="2033"/>
  <outline>
    <contour>
      <point x="105.00000000000006" y="432.6666666666667" type="curve" smooth="yes"/>
      <point x="147.6666666666667" y="432.6666666666667"/>
      <point x="181.33333333333326" y="441.00000000000006"/>
      <point x="207.6666666666667" y="462.0" type="curve" smooth="yes"/>
      <point x="280.6666666666667" y="518.9999999999999"/>
      <point x="319.00000000000006" y="626.6666666666666"/>
      <point x="319.00000000000006" y="693.6666666666666" type="curve" smooth="yes"/>
      <point x="319.0" y="739.6666666666666"/>
      <point x="295.00000000000006" y="759.3333333333334"/>
      <point x="243.66666666666674" y="759.3333333333334" type="curve" smooth="yes"/>
      <point x="195.66666666666669" y="759.3333333333334"/>
      <point x="168.66666666666669" y="756.0"/>
      <point x="135.66666666666669" y="749.0" type="curve"/>
      <point x="118.99999999999999" y="640.6666666666666"/>
      <point x="87.33333333333333" y="533.0"/>
      <point x="24.666666666666675" y="451.0" type="curve"/>
      <point x="49.66666666666667" y="437.0"/>
      <point x="71.33333333333334" y="432.6666666666667"/>
    </contour>
    <contour>
      <point x="343.6666666666666" y="432.6666666666667" type="curve" smooth="yes"/>
      <point x="386.33333333333326" y="432.6666666666667"/>
      <point x="420.0" y="441.00000000000006"/>
      <point x="446.99999999999994" y="462.0" type="curve" smooth="yes"/>
      <point x="519.9999999999999" y="518.9999999999999"/>
      <point x="557.6666666666666" y="626.6666666666666"/>
      <point x="557.6666666666666" y="693.6666666666666" type="curve" smooth="yes"/>
      <point x="557.6666666666667" y="739.6666666666666"/>
      <point x="533.6666666666666" y="759.3333333333334"/>
      <point x="482.99999999999994" y="759.3333333333334" type="curve" smooth="yes"/>
      <point x="434.99999999999994" y="759.3333333333334"/>
      <point x="407.33333333333326" y="756.0"/>
      <point x="374.33333333333326" y="749.0" type="curve"/>
      <point x="360.3333333333333" y="639.6666666666666"/>
      <point x="328.66666666666674" y="532.0"/>
      <point x="263.3333333333333" y="451.0" type="curve"/>
      <point x="288.3333333333333" y="437.0"/>
      <point x="309.9999999999999" y="432.6666666666667"/>
    </contour>
  </outline>
</glyph>
<glyph name="indianrupee" format="2">
  <advance width="600.0"/>
  <unicode hex="20B9"/>
  <outline>
    <contour>
      <point x="412.3333333333333" y="568.3333333333335" type="line"/>
      <point x="492.33333333333337" y="564.3333333333335"/>
      <point x="531.0" y="556.3333333333335"/>
      <point x="577.0" y="540.3333333333335" type="curve"/>
      <point x="586.0" y="564.6666666666667"/>
      <point x="592.0" y="588.3333333333334"/>
      <point x="592.0" y="626.3333333333334" type="curve" smooth="yes"/>
      <point x="592.0" y="677.6666666666666"/>
      <point x="577.0" y="697.3333333333333"/>
      <point x="519.6666666666667" y="707.0" type="curve"/>
      <point x="463.6666666666667" y="716.6666666666666"/>
      <point x="392.33333333333337" y="720.0"/>
      <point x="291.3333333333333" y="720.0" type="curve" smooth="yes"/>
      <point x="188.33333333333334" y="720.0"/>
      <point x="99.0" y="713.0"/>
      <point x="24.999999999999996" y="700.0" type="curve"/>
      <point x="19.0" y="677.3333333333334"/>
      <point x="14.999999999999998" y="653.6666666666666"/>
      <point x="14.999999999999998" y="620.9999999999999" type="curve" smooth="yes"/>
      <point x="14.999999999999998" y="563.0"/>
      <point x="26.666666666666668" y="541.3333333333333"/>
      <point x="65.66666666666666" y="541.3333333333333" type="curve" smooth="yes"/>
      <point x="107.66666666666666" y="541.3333333333333"/>
      <point x="163.66666666666666" y="554.0"/>
      <point x="222.0" y="554.0" type="curve" smooth="yes"/>
      <point x="267.0" y="554.0"/>
      <point x="300.6666666666667" y="552.3333333333333"/>
      <point x="329.6666666666667" y="546.9999999999999" type="curve"/>
      <point x="352.00000000000006" y="529.0"/>
      <point x="363.0" y="508.00000000000006"/>
      <point x="363.0" y="466.99999999999994" type="curve" smooth="yes"/>
      <point x="363.0" y="456.0" type="line" smooth="yes"/>
      <point x="363.0" y="357.3333333333333"/>
      <point x="325.3333333333333" y="322.3333333333333"/>
      <point x="217.0" y="322.3333333333333" type="curve" smooth="yes"/>
      <point x="148.00000000000003" y="322.3333333333333"/>
      <point x="88.0" y="327.99999999999994"/>
      <point x="27.333333333333336" y="340.99999999999994" type="curve"/>
      <point x="21.333333333333336" y="317.66666666666663"/>
      <point x="17.66666666666667" y="293.33333333333337"/>
      <point x="17.66666666666667" y="264.33333333333337" type="curve" smooth="yes"/>
      <point x="17.66666666666667" y="218.0"/>
      <point x="27.333333333333336" y="195.66666666666669"/>
      <point x="59.33333333333333" y="181.0" type="curve" smooth="yes"/>
      <point x="94.66666666666669" y="165.0"/>
      <point x="134.33333333333331" y="160.33333333333331"/>
      <point x="212.66666666666666" y="160.33333333333331" type="curve" smooth="yes"/>
      <point x="418.3333333333333" y="160.33333333333331"/>
      <point x="533.3333333333333" y="255.33333333333334"/>
      <point x="533.3333333333333" y="427.3333333333333" type="curve" smooth="yes"/>
      <point x="533.3333333333333" y="437.33333333333337" type="line" smooth="yes"/>
      <point x="533.3333333333333" y="510.33333333333326"/>
      <point x="515.6666666666666" y="546.3333333333334"/>
      <point x="452.33333333333337" y="568.6666666666667" type="curve"/>
      <point x="479.3333333333333" y="523.3333333333334" type="line"/>
      <point x="479.3333333333333" y="592.3333333333333" type="line"/>
    </contour>
    <contour>
      <point x="354.6666666666667" y="326.6666666666667" type="curve"/>
      <point x="258.33333333333337" y="262.0" type="line"/>
      <point x="286.33333333333337" y="166.33333333333334"/>
      <point x="318.6666666666667" y="99.33333333333333"/>
      <point x="359.6666666666667" y="49.0" type="curve" smooth="yes"/>
      <point x="395.3333333333333" y="3.3333333333333344"/>
      <point x="438.3333333333333" y="-20.0"/>
      <point x="487.33333333333326" y="-20.0" type="curve" smooth="yes"/>
      <point x="519.3333333333333" y="-20.0"/>
      <point x="538.0" y="-13.666666666666668"/>
      <point x="553.6666666666667" y="1.9999999999999991" type="curve" smooth="yes"/>
      <point x="572.0" y="20.333333333333332"/>
      <point x="579.3333333333334" y="52.666666666666664"/>
      <point x="579.3333333333334" y="105.0" type="curve" smooth="yes"/>
      <point x="579.3333333333334" y="139.66666666666666"/>
      <point x="576.6666666666667" y="163.33333333333331"/>
      <point x="569.0" y="189.66666666666663" type="curve"/>
      <point x="563.0" y="189.66666666666663" type="line"/>
      <point x="550.3333333333333" y="185.33333333333331"/>
      <point x="541.6666666666666" y="183.33333333333331"/>
      <point x="525.3333333333333" y="183.33333333333331" type="curve" smooth="yes"/>
      <point x="511.66666666666663" y="183.33333333333331"/>
      <point x="496.6666666666667" y="186.99999999999997"/>
      <point x="481.3333333333333" y="196.0" type="curve" smooth="yes"/>
      <point x="449.6666666666667" y="213.66666666666663"/>
      <point x="409.3333333333333" y="250.66666666666669"/>
    </contour>
    <contour>
      <point x="24.333333333333332" y="503.3333333333333" type="line"/>
      <point x="19.666666666666664" y="485.0"/>
      <point x="18.000000000000004" y="470.0"/>
      <point x="18.000000000000004" y="442.66666666666663" type="curve" smooth="yes"/>
      <point x="18.000000000000004" y="392.99999999999994"/>
      <point x="32.0" y="376.3333333333333"/>
      <point x="81.0" y="376.3333333333333" type="curve" smooth="yes"/>
      <point x="581.3333333333334" y="376.3333333333333" type="line"/>
      <point x="587.6666666666666" y="397.33333333333326"/>
      <point x="592.0" y="415.99999999999994"/>
      <point x="592.0" y="443.66666666666663" type="curve" smooth="yes"/>
      <point x="592.0" y="485.66666666666663"/>
      <point x="576.0" y="503.3333333333333"/>
      <point x="532.0" y="503.3333333333333" type="curve"/>
    </contour>
  </outline>
</glyph>
<glyph name="radical" format="2">
  <advance width="600.0"/>
  <unicode hex="221A"/>
  <outline>
    <contour>
      <point x="15.666666666666668" y="473.3333333333333" type="curve"/>
      <point x="10.666666666666666" y="440.33333333333337"/>
      <point x="8.666666666666666" y="407.33333333333337"/>
      <point x="8.666666666666666" y="372.3333333333333" type="curve" smooth="yes"/>
      <point x="8.666666666666666" y="310.0"/>
      <point x="22.333333333333336" y="290.0"/>
      <point x="49.333333333333336" y="290.0" type="curve" smooth="yes"/>
      <point x="61.66666666666667" y="290.0"/>
      <point x="72.66666666666666" y="292.33333333333337"/>
      <point x="90.0" y="300.0" type="curve"/>
      <point x="95.0" y="297.0" type="line"/>
      <point x="106.33333333333333" y="178.0"/>
      <point x="130.33333333333337" y="108.66666666666666"/>
      <point x="177.33333333333334" y="43.666666666666664" type="curve" smooth="yes"/>
      <point x="208.33333333333334" y="0.6666666666666659"/>
      <point x="240.0" y="-13.333333333333332"/>
      <point x="304.66666666666663" y="-13.333333333333332" type="curve" smooth="yes"/>
      <point x="333.3333333333333" y="-13.333333333333332"/>
      <point x="360.0" y="-10.333333333333332"/>
      <point x="384.0" y="-4.0" type="curve"/>
      <point x="474.66666666666663" y="79.33333333333333"/>
      <point x="544.0" y="283.0"/>
      <point x="578.0" y="612.0" type="curve" smooth="yes"/>
      <point x="585.0" y="679.0"/>
      <point x="526.6666666666666" y="710.0"/>
      <point x="447.0" y="710.0" type="curve" smooth="yes"/>
      <point x="424.33333333333337" y="710.0"/>
      <point x="403.6666666666667" y="706.6666666666667"/>
      <point x="391.0" y="703.3333333333334" type="curve"/>
      <point x="375.0022283478667" y="410.37413995373333"/>
      <point x="343.27852247673326" y="260.1365772102"/>
      <point x="281.66666666666663" y="146.99999999999997" type="curve"/>
      <point x="324.0" y="178.0" type="line"/>
      <point x="257.99999999999994" y="178.0" type="line" smooth="yes"/>
      <point x="304.0" y="146.0" type="line"/>
      <point x="270.66666666666663" y="210.0"/>
      <point x="253.0" y="294.66666666666663"/>
      <point x="240.00000000000003" y="436.3333333333333" type="curve" smooth="yes"/>
      <point x="237.33333333333334" y="467.66666666666663"/>
      <point x="204.66666666666663" y="486.6666666666667"/>
      <point x="130.99999999999997" y="486.6666666666667" type="curve" smooth="yes"/>
      <point x="75.0" y="486.6666666666667"/>
      <point x="46.99999999999999" y="481.00000000000006"/>
    </contour>
  </outline>
</glyph>
<glyph name="f_f_i" format="2">
  <advance width="1200.0"/>
  <unicode hex="FB03"/>
  <outline>
    <contour>
      <point x="335.6666666666666" y="95.66666666666666" type="curve"/>
      <point x="335.6666666666666" y="207.66666666666666"/>
      <point x="335.6666666666666" y="426.0"/>
      <point x="335.6666666666666" y="498.66666666666663" type="curve" smooth="yes"/>
      <point x="324.6666666666666" y="526.6666666666667"/>
      <point x="317.33333333333326" y="556.6666666666666"/>
      <point x="316.0" y="584.6666666666667" type="curve" smooth="yes"/>
      <point x="331.33333333333326" y="587.6666666666667"/>
      <point x="347.3333333333333" y="589.3333333333334"/>
      <point x="374.0" y="589.3333333333334" type="curve" smooth="yes"/>
      <point x="417.0000000000001" y="589.3333333333334"/>
      <point x="458.6666666666667" y="581.3333333333334"/>
      <point x="494.66666666666663" y="567.0" type="curve"/>
      <point x="500.66666666666663" y="567.0" type="line"/>
      <point x="506.3333333333333" y="593.3333333333333"/>
      <point x="507.66666666666663" y="613.3333333333334"/>
      <point x="507.66666666666663" y="641.3333333333334" type="curve"/>
      <point x="507.66666666666663" y="687.3333333333333"/>
      <point x="501.0" y="719.0"/>
      <point x="481.0" y="739.0" type="curve" smooth="yes"/>
      <point x="461.6666666666665" y="758.3333333333333"/>
      <point x="437.66666666666663" y="770.0"/>
      <point x="388.99999999999994" y="770.0" type="curve" smooth="yes"/>
      <point x="228.33333333333331" y="770.0"/>
      <point x="139.0" y="660.3333333333333"/>
      <point x="139.0" y="560.0" type="curve" smooth="yes"/>
      <point x="139.0" y="414.6666666666667"/>
      <point x="139.0" y="223.33333333333331"/>
      <point x="139.0" y="116.0" type="curve"/>
      <point x="139.0" y="69.33333333333334"/>
      <point x="133.33333333333334" y="36.666666666666664"/>
      <point x="119.66666666666669" y="0.0" type="curve"/>
      <point x="145.33333333333334" y="-6.333333333333333"/>
      <point x="173.66666666666669" y="-10.0"/>
      <point x="202.66666666666663" y="-10.0" type="curve"/>
      <point x="301.3333333333333" y="-10.0"/>
      <point x="335.6666666666666" y="28.0"/>
    </contour>
    <contour>
      <point x="728.6666666666667" y="95.66666666666666" type="curve"/>
      <point x="728.6666666666667" y="207.66666666666666"/>
      <point x="728.6666666666667" y="426.0"/>
      <point x="728.6666666666667" y="498.66666666666663" type="curve" smooth="yes"/>
      <point x="717.6666666666667" y="526.6666666666667"/>
      <point x="710.3333333333333" y="556.6666666666666"/>
      <point x="709.0" y="584.6666666666667" type="curve" smooth="yes"/>
      <point x="719.0" y="587.0"/>
      <point x="737.3333333333335" y="589.3333333333334"/>
      <point x="752.6666666666666" y="589.3333333333334" type="curve" smooth="yes"/>
      <point x="784.9999999999999" y="589.3333333333334"/>
      <point x="820.9999999999999" y="581.9999999999999"/>
      <point x="861.0" y="567.0" type="curve"/>
      <point x="867.0" y="567.0" type="line"/>
      <point x="872.6666666666667" y="593.3333333333333"/>
      <point x="875.3333333333334" y="613.3333333333334"/>
      <point x="875.3333333333334" y="641.3333333333334" type="curve"/>
      <point x="875.3333333333334" y="687.3333333333333"/>
      <point x="867.3333333333334" y="715.6666666666667"/>
      <point x="850.6666666666667" y="739.0" type="curve" smooth="yes"/>
      <point x="836.0000000000001" y="758.9999999999999"/>
      <point x="809.3333333333334" y="770.0"/>
      <point x="762.6666666666666" y="770.0" type="curve" smooth="yes"/>
      <point x="636.6666666666667" y="770.0"/>
      <point x="532.0000000000001" y="674.3333333333333"/>
      <point x="532.0000000000001" y="560.0" type="curve" smooth="yes"/>
      <point x="532.0000000000001" y="414.6666666666667"/>
      <point x="532.0000000000001" y="223.33333333333331"/>
      <point x="532.0000000000001" y="116.0" type="curve"/>
      <point x="532.0000000000001" y="69.33333333333334"/>
      <point x="526.3333333333335" y="36.666666666666664"/>
      <point x="512.6666666666666" y="0.0" type="curve"/>
      <point x="538.3333333333334" y="-6.333333333333333"/>
      <point x="566.6666666666667" y="-10.0"/>
      <point x="595.6666666666667" y="-10.0" type="curve"/>
      <point x="694.3333333333335" y="-10.0"/>
      <point x="728.6666666666667" y="28.0"/>
    </contour>
    <contour>
      <point x="934.3333333333333" y="326.6666666666667" type="line"/>
      <point x="939.6666666666666" y="341.6666666666667"/>
      <point x="943.9999999999999" y="360.0"/>
      <point x="943.9999999999999" y="387.6666666666667" type="curve" smooth="yes"/>
      <point x="943.9999999999999" y="467.6666666666667"/>
      <point x="912.6666666666666" y="500.0"/>
      <point x="832.3333333333333" y="500.0" type="curve" smooth="yes"/>
      <point x="24.33333333333333" y="500.0" type="line"/>
      <point x="24.33333333333333" y="494.0"/>
      <point x="24.33333333333333" y="488.0"/>
      <point x="24.33333333333333" y="465.6666666666667" type="curve" smooth="yes"/>
      <point x="24.33333333333333" y="349.6666666666667"/>
      <point x="58.33333333333333" y="326.6666666666667"/>
      <point x="202.0" y="326.6666666666667" type="curve" smooth="yes"/>
    </contour>
    <contour>
      <point x="914.6666666666667" y="780.9999999999999" type="curve"/>
      <point x="914.6666666666667" y="705.0" type="line" smooth="yes"/>
      <point x="914.6666666666667" y="647.0"/>
      <point x="968.6666666666667" y="623.0"/>
      <point x="1049.3333333333333" y="623.0" type="curve" smooth="yes"/>
      <point x="1083.333333333333" y="623.0"/>
      <point x="1117.0" y="629.0"/>
      <point x="1150.6666666666665" y="640.6666666666666" type="curve"/>
      <point x="1150.6666666666665" y="716.6666666666666" type="line" smooth="yes"/>
      <point x="1150.6666666666665" y="774.6666666666666"/>
      <point x="1098.3333333333333" y="793.3333333333334"/>
      <point x="1020.0000000000001" y="793.3333333333334" type="curve" smooth="yes"/>
      <point x="985.0" y="793.3333333333334"/>
      <point x="948.3333333333334" y="788.3333333333334"/>
    </contour>
    <contour>
      <point x="909.3333333333333" y="547.6666666666666" type="curve"/>
      <point x="925.0" y="505.6666666666667"/>
      <point x="929.9999999999999" y="473.66666666666663"/>
      <point x="929.9999999999999" y="426.0" type="curve"/>
      <point x="929.9999999999999" y="350.66666666666663"/>
      <point x="929.9999999999999" y="186.0"/>
      <point x="929.9999999999999" y="117.33333333333333" type="curve" smooth="yes"/>
      <point x="929.9999999999999" y="29.333333333333332"/>
      <point x="965.0000000000001" y="-8.666666666666666"/>
      <point x="1058.6666666666667" y="-8.666666666666666" type="curve" smooth="yes"/>
      <point x="1093.0000000000002" y="-8.666666666666666"/>
      <point x="1116.0000000000002" y="-5.999999999999999"/>
      <point x="1146.6666666666667" y="0.0" type="curve"/>
      <point x="1131.0" y="49.333333333333336"/>
      <point x="1128.6666666666667" y="99.66666666666667"/>
      <point x="1128.6666666666667" y="163.0" type="curve" smooth="yes"/>
      <point x="1128.6666666666667" y="261.6666666666667"/>
      <point x="1128.6666666666667" y="377.0"/>
      <point x="1128.6666666666667" y="472.66666666666663" type="curve" smooth="yes"/>
      <point x="1128.6666666666667" y="525.6666666666666"/>
      <point x="1096.0" y="557.3333333333333"/>
      <point x="1009.0" y="557.3333333333333" type="curve" smooth="yes"/>
      <point x="968.0000000000001" y="557.3333333333333"/>
      <point x="926.6666666666667" y="553.0"/>
    </contour>
  </outline>
</glyph>
<glyph name="at.alt" format="2">
  <advance width="600.0"/>
  <outline>
    <contour>
      <point x="45.000000000000014" y="238.6666666666666" type="curve" smooth="yes"/>
      <point x="45.000000000000014" y="216.33333333333331" type="line" smooth="yes"/>
      <point x="45.000000000000014" y="-66.99999999999997"/>
      <point x="145.0" y="-176.66666666666666"/>
      <point x="321.6666666666667" y="-176.66666666666666" type="curve" smooth="yes"/>
      <point x="392.3333333333333" y="-176.66666666666666"/>
      <point x="432.99999999999994" y="-166.99999999999997"/>
      <point x="451.66666666666663" y="-148.33333333333331" type="curve" smooth="yes"/>
      <point x="472.00000000000006" y="-128.66666666666666"/>
      <point x="478.00000000000006" y="-89.66666666666666"/>
      <point x="478.00000000000006" y="-55.333333333333336" type="curve" smooth="yes"/>
      <point x="478.00000000000006" y="-43.666666666666664"/>
      <point x="477.33333333333337" y="-31.666666666666664"/>
      <point x="475.33333333333337" y="-21.333333333333336" type="curve"/>
      <point x="469.33333333333337" y="-21.333333333333336" type="line"/>
      <point x="427.3333333333334" y="-43.99999999999999"/>
      <point x="385.0" y="-55.99999999999999"/>
      <point x="328.0" y="-55.99999999999999" type="curve" smooth="yes"/>
      <point x="282.00000000000006" y="-55.99999999999999"/>
      <point x="247.33333333333334" y="-46.66666666666666"/>
      <point x="213.66666666666663" y="-28.333333333333353" type="curve" smooth="yes"/>
      <point x="174.66666666666669" y="31.33333333333333"/>
      <point x="166.33333333333331" y="103.33333333333336"/>
      <point x="166.33333333333331" y="225.66666666666666" type="curve" smooth="yes"/>
      <point x="166.33333333333331" y="236.33333333333331" type="line" smooth="yes"/>
      <point x="166.33333333333331" y="444.66666666666663"/>
      <point x="233.99999999999997" y="642.6666666666666"/>
      <point x="356.0" y="642.6666666666666" type="curve" smooth="yes"/>
      <point x="364.6666666666667" y="642.6666666666666"/>
      <point x="372.6666666666667" y="642.0000000000001"/>
      <point x="380.3333333333333" y="639.6666666666667" type="curve"/>
      <point x="390.0" y="621.3333333333334"/>
      <point x="392.33333333333337" y="598.3333333333334"/>
      <point x="392.33333333333337" y="575.6666666666667" type="curve" smooth="yes"/>
      <point x="392.33333333333337" y="438.0"/>
      <point x="392.33333333333337" y="301.33333333333337"/>
      <point x="392.33333333333337" y="163.66666666666666" type="curve" smooth="yes"/>
      <point x="392.33333333333337" y="95.66666666666667"/>
      <point x="453.00000000000006" y="26.000000000000007"/>
      <point x="543.3333333333334" y="26.000000000000007" type="curve"/>
      <point x="562.3333333333333" y="26.000000000000007" type="line"/>
      <point x="557.6666666666666" y="66.33333333333333"/>
      <point x="555.6666666666665" y="109.66666666666667"/>
      <point x="555.6666666666665" y="134.66666666666669" type="curve" smooth="yes"/>
      <point x="555.6666666666665" y="263.0"/>
      <point x="555.6666666666665" y="391.00000000000006"/>
      <point x="555.6666666666665" y="519.3333333333334" type="curve" smooth="yes"/>
      <point x="555.6666666666665" y="673.6666666666666"/>
      <point x="476.0" y="763.3333333333334"/>
      <point x="345.00000000000006" y="763.3333333333334" type="curve" smooth="yes"/>
      <point x="158.33333333333334" y="763.3333333333334"/>
      <point x="45.000000000000014" y="542.3333333333334"/>
    </contour>
    <contour>
      <point x="495.00000000000006" y="255.6666666666667" type="line"/>
      <point x="462.66666666666663" y="209.0"/>
      <point x="425.33333333333337" y="170.66666666666669"/>
      <point x="396.0" y="170.66666666666669" type="curve" smooth="yes"/>
      <point x="380.6666666666667" y="170.66666666666669"/>
      <point x="375.33333333333337" y="198.66666666666669"/>
      <point x="375.33333333333337" y="247.33333333333334" type="curve" smooth="yes"/>
      <point x="375.33333333333337" y="255.6666666666667" type="line" smooth="yes"/>
      <point x="375.33333333333337" y="321.0"/>
      <point x="377.33333333333326" y="373.0"/>
      <point x="385.66666666666663" y="417.6666666666667" type="curve" smooth="yes"/>
      <point x="390.66666666666663" y="417.99999999999994"/>
      <point x="395.33333333333337" y="417.99999999999994"/>
      <point x="400.6666666666667" y="417.99999999999994" type="curve" smooth="yes"/>
      <point x="415.00000000000006" y="417.99999999999994"/>
      <point x="432.3333333333333" y="414.33333333333326"/>
      <point x="452.33333333333337" y="399.0" type="curve"/>
      <point x="458.33333333333337" y="535.3333333333334" type="line"/>
      <point x="431.66666666666663" y="535.3333333333334" type="line"/>
      <point x="420.0" y="549.3333333333334"/>
      <point x="409.00000000000006" y="557.3333333333333"/>
      <point x="377.33333333333337" y="557.3333333333333" type="curve" smooth="yes"/>
      <point x="309.99999999999994" y="557.3333333333333"/>
      <point x="240.00000000000003" y="460.66666666666663"/>
      <point x="240.00000000000003" y="230.66666666666669" type="curve" smooth="yes"/>
      <point x="240.00000000000003" y="220.33333333333337" type="line" smooth="yes"/>
      <point x="240.00000000000003" y="87.33333333333334"/>
      <point x="283.0" y="21.333333333333336"/>
      <point x="355.33333333333337" y="21.333333333333336" type="curve" smooth="yes"/>
      <point x="407.66666666666674" y="21.333333333333336"/>
      <point x="437.66666666666674" y="43.66666666666667"/>
      <point x="466.00000000000006" y="93.66666666666666" type="curve"/>
      <point x="494.6666666666667" y="93.66666666666666" type="line"/>
    </contour>
  </outline>
</glyph>
